<svg width="60" height="60" viewBox="0 0 60 60" fill="none" xmlns="http://www.w3.org/2000/svg">
<path d="M58 30C58 33.677 57.2758 37.318 55.8686 40.7151C54.4615 44.1123 52.399 47.1989 49.799 49.799C47.1989 52.399 44.1123 54.4615 40.7151 55.8686C37.318 57.2758 33.677 58 30 58C26.323 58 22.682 57.2758 19.2849 55.8686C15.8877 54.4615 12.8011 52.399 10.201 49.799C7.60097 47.1989 5.5385 44.1123 4.13137 40.7151C2.72424 37.318 2 33.677 2 30C2 22.5739 4.94999 15.452 10.201 10.201C15.452 4.94999 22.5739 2 30 2C37.4261 2 44.548 4.94999 49.799 10.201C55.05 15.452 58 22.5739 58 30Z" fill="#C8F832"/>
</svg>
