<svg width="60" height="60" viewBox="0 0 60 60" fill="none" xmlns="http://www.w3.org/2000/svg">
<path d="M16.1969 40.958C16.1969 42.5689 15.5544 44.1139 14.4107 45.2529C13.267 46.392 11.7159 47.032 10.0985 47.032C8.48104 47.032 6.92988 46.392 5.7862 45.2529C4.64251 44.1139 4 42.5689 4 40.958C4 39.3471 4.64251 37.8022 5.7862 36.6631C6.92988 35.5241 8.48104 34.8841 10.0985 34.8841C11.7159 34.8841 13.267 35.5241 14.4107 36.6631C15.5544 37.8022 16.1969 39.3471 16.1969 40.958ZM16.1969 19.042C16.1969 20.6529 15.5544 22.1978 14.4107 23.3369C13.267 24.4759 11.7159 25.1159 10.0985 25.1159C8.48104 25.1159 6.92988 24.4759 5.7862 23.3369C4.64251 22.1978 4 20.6529 4 19.042C4 17.4311 4.64251 15.8861 5.7862 14.7471C6.92988 13.608 8.48104 12.968 10.0985 12.968C11.7159 12.968 13.267 13.608 14.4107 14.7471C15.5544 15.8861 16.1969 17.4311 16.1969 19.042ZM36.0934 8.07392C36.0934 9.68482 35.4509 11.2297 34.3072 12.3688C33.1636 13.5079 31.6124 14.1478 29.995 14.1478C28.3776 14.1478 26.8264 13.5079 25.6827 12.3688C24.539 11.2297 23.8965 9.68482 23.8965 8.07392C23.8965 6.46301 24.539 4.91809 25.6827 3.77901C26.8264 2.63993 28.3776 2 29.995 2C31.6124 2 33.1636 2.63993 34.3072 3.77901C35.4509 4.91809 36.0934 6.46301 36.0934 8.07392ZM36.0934 51.9261C36.0934 53.537 35.4509 55.0819 34.3072 56.221C33.1636 57.3601 31.6124 58 29.995 58C28.3776 58 26.8264 57.3601 25.6827 56.221C24.539 55.0819 23.8965 53.537 23.8965 51.9261C23.8965 50.3152 24.539 48.7703 25.6827 47.6312C26.8264 46.4921 28.3776 45.8522 29.995 45.8522C31.6124 45.8522 33.1636 46.4921 34.3072 47.6312C35.4509 48.7703 36.0934 50.3152 36.0934 51.9261ZM56 40.958C56 42.5689 55.3575 44.1139 54.2138 45.2529C53.0701 46.392 51.519 47.032 49.9015 47.032C48.2841 47.032 46.733 46.392 45.5893 45.2529C44.4456 44.1139 43.8031 42.5689 43.8031 40.958C43.8031 39.3471 44.4456 37.8022 45.5893 36.6631C46.733 35.5241 48.2841 34.8841 49.9015 34.8841C51.519 34.8841 53.0701 35.5241 54.2138 36.6631C55.3575 37.8022 56 39.3471 56 40.958ZM56 19.042C56 20.6529 55.3575 22.1978 54.2138 23.3369C53.0701 24.4759 51.519 25.1159 49.9015 25.1159C48.2841 25.1159 46.733 24.4759 45.5893 23.3369C44.4456 22.1978 43.8031 20.6529 43.8031 19.042C43.8031 17.4311 44.4456 15.8861 45.5893 14.7471C46.733 13.608 48.2841 12.968 49.9015 12.968C51.519 12.968 53.0701 13.608 54.2138 14.7471C55.3575 15.8861 56 17.4311 56 19.042Z" fill="#9169FF"/>
</svg>
