<svg width="10" height="14" viewBox="0 0 10 14" fill="none" xmlns="http://www.w3.org/2000/svg">
<path d="M8.79 7.2098V7.7098L8.39 8.1098L3.29 13.1098C3.19686 13.234 3.07607 13.3348 2.93722 13.4042C2.79836 13.4737 2.64525 13.5098 2.49 13.5098C2.27363 13.5098 2.0631 13.4396 1.89 13.3098L1.49 13.0098C1.35344 12.7902 1.29863 12.5294 1.3352 12.2734C1.37178 12.0174 1.4974 11.7824 1.69 11.6098L6.29 7.2098L1.69 2.9098C1.42479 2.80371 1.21258 2.59661 1.10005 2.33406C0.987532 2.07151 0.983916 1.77501 1.09 1.5098C1.19609 1.24458 1.40319 1.03237 1.66574 0.919847C1.92829 0.807325 2.22479 0.80371 2.49 0.909797C2.79 0.909797 2.99 1.1098 3.29 1.3098L8.39 6.3098C8.59 6.5098 8.69 6.6098 8.69 6.8098L8.79 7.2098Z" fill="#0066CC"/>
</svg>
