<svg width="60" height="60" viewBox="0 0 60 60" fill="none" xmlns="http://www.w3.org/2000/svg">
<path d="M30 11.11C24.9917 11.1153 20.19 13.1072 16.6486 16.6486C13.1072 20.19 11.1153 24.9917 11.11 30C11.1153 35.0083 13.1072 39.81 16.6486 43.3514C20.19 46.8928 24.9917 48.8847 30 48.89C35.0083 48.8847 39.81 46.8928 43.3514 43.3514C46.8928 39.81 48.8847 35.0083 48.89 30C48.8847 24.9917 46.8928 20.19 43.3514 16.6486C39.81 13.1072 35.0083 11.1153 30 11.11ZM30 58C14.56 58 2 45.44 2 30C2 14.56 14.56 2 30 2C45.44 2 58 14.56 58 30C58 45.44 45.44 58 30 58Z" fill="#F8CD2D"/>
</svg>
