<svg xmlns="http://www.w3.org/2000/svg" width="82" height="20" fill="none" aria-label="HR Partners" class="l2024-c-faXHrU"><path fill="currentColor" d="M9.5 4v10H7.6V9.8H2.8V14H1V4h1.8v4.2h4.8V4h1.9Zm2.9 10h-1.9V4h5c2 0 3.4 1.2 3.4 3 0 1.6-1 2.6-2.7 2.6.7.1 1.3.6 1.8 1.6l1.2 2.8h-2l-1.3-2.8c-.3-.7-.7-1-1.7-1h-1.8V14Zm0-5.4h2.8c1.2 0 1.9-.5 1.9-1.5s-.7-1.5-1.9-1.5h-2.8v3ZM23.3 14V4H28c2.1 0 3.7 1.3 3.7 3.3 0 1.9-1.6 3.3-3.7 3.3H25V14h-1.8ZM25 9H28c1.2 0 2-.7 2-1.7s-.8-1.7-2-1.7H25V9Zm7.1 0c0-1.8 1.4-3 3.6-3 2.4 0 3.8 1.3 3.8 3.4V14h-1.8v-2c-.4 1.4-1.5 2.2-3 2.2-1.7 0-2.8-1-2.8-2.3 0-1.4 1.2-2.3 3.1-2.3h2.7v-.2c0-1.1-.8-1.9-2-1.9S34 8.1 34 9h-1.8Zm5.6 1.8h-2.6c-1 0-1.4.4-1.4 1s.5 1 1.5 1c1.5 0 2.5-.7 2.5-1.7v-.3Zm4.5-.5V14h-1.8V6.3h1.8v2.6c.3-1.6 1.2-2.6 2.8-2.6h.4v1.6h-.6c-2 0-2.6.8-2.6 2.4Zm9 3.6-1.6.3c-1.6 0-2.5-1-2.5-2.9V7.7h-1V6.3h1V4.5H49v1.8h2.4v1.4H49v3.6c0 1 .3 1.4 1.1 1.4.3 0 .7 0 1.3-.2V14Zm2.7-4V14h-1.7V6.3H54v2.3C54.4 7 55.4 6 56.8 6c1.7 0 2.7 1.3 2.7 3.5V14h-1.8V9.8c0-1.5-.5-2.2-1.7-2.2-1.3 0-2 .8-2 2.3Zm12 1.5h1.8a3.5 3.5 0 0 1-3.7 2.8c-2.3 0-3.8-1.6-3.8-4C60.3 7.6 61.8 6 64 6c2.2 0 3.7 1.6 3.7 4v.6H62c.2 1.3 1 2 2.2 2 .9 0 1.5-.4 1.9-1.3Zm-4-2h4c-.1-1.2-.8-1.9-1.9-1.9-1.1 0-1.9.7-2 2Zm8.4 1V14h-1.8V6.3h1.8v2.6c.3-1.6 1.2-2.6 2.8-2.6h.4v1.6H73c-2 0-2.6.8-2.6 2.4ZM77.6 6C79.8 6 81 7 81 8.7h-1.7c0-.8-.6-1.2-1.7-1.2-1 0-1.7.3-1.7.9 0 .7 1 .8 1.8 1h.5c1.2.2 3 .5 3 2.4 0 1.5-1.2 2.4-3.5 2.4-2.4 0-3.6-1-3.6-2.7h1.7c0 .9.6 1.3 2 1.3 1 0 1.7-.3 1.7-1s-.9-.9-1.8-1l-.6-.1c-1.1-.2-2.9-.5-2.9-2.3 0-1.4 1.3-2.3 3.4-2.3Z"></path></svg>