<svg width="68" height="22" viewBox="0 0 68 22" fill="none" xmlns="http://www.w3.org/2000/svg">
<path d="M6.2 1.4C6.7 1.4 7.2 1.4 7.8 1.6C9.1 2 10.2 2.9 10.8 4.1V4.3C10.1617 4.9617 9.6643 5.74595 9.33774 6.60534C9.01117 7.46474 8.86225 8.38143 8.9 9.3C7.99181 9.29449 7.09147 9.46832 6.25062 9.81153C5.40976 10.1547 4.64493 10.6606 4 11.3C3.15929 10.9281 2.43221 10.3399 1.89285 9.59541C1.3535 8.85094 1.02115 7.97679 0.929678 7.06203C0.838203 6.14728 0.990871 5.22463 1.37212 4.3881C1.75338 3.55157 2.34959 2.83106 3.1 2.3C4.1 1.7 5.1 1.3 6.2 1.3V1.4ZM41.1 2.3H38V20H41V2.3H41.1ZM33 5.5H36V2.3H33C30.4 2.3 28.4 4.3 28.4 6.9V8.5H27.1V11.2H28.4V20.1H31.6V11.2H35.8V8.5H31.6V6.9C31.6 6.1 32.2 5.5 33 5.5ZM67 8.4L63 13.9L67.5 19.9H64L61.2 16.2H61.1L58.3 20H54.8L59.4 14L55.2 8.4H58.7L61.1 11.7H61.2L63.6 8.4H67Z" fill="#1D1D1F"/>
<path d="M51.7 16.5C51.1 17.3 50.3 17.8 49.1 17.8C47.4 17.8 46.2 16.8 45.9 15.2H55V14.1C55.0133 13.3037 54.8679 12.5127 54.5723 11.7732C54.2767 11.0336 53.8369 10.3604 53.2784 9.79257C52.7199 9.22478 52.054 8.77386 51.3194 8.4661C50.5849 8.15834 49.7964 7.99989 49 8C48.1783 7.97212 47.3596 8.11342 46.5948 8.41514C45.8299 8.71685 45.1353 9.17254 44.5539 9.75391C43.9725 10.3353 43.5168 11.0299 43.2151 11.7948C42.9134 12.5596 42.7721 13.3783 42.8 14.2C42.7721 15.0217 42.9134 15.8404 43.2151 16.6052C43.5168 17.3701 43.9725 18.0647 44.5539 18.6461C45.1353 19.2275 45.8299 19.6832 46.5948 19.9849C47.3596 20.2866 48.1783 20.4279 49 20.4C51.8 20.4 53.9 19 54.8 16.6H51.7V16.5ZM48.9 10.5C49.6018 10.4858 50.2864 10.7183 50.8346 11.1568C51.3827 11.5953 51.7597 12.2122 51.9 12.9H45.9C46.0764 12.2395 46.4663 11.6558 47.0088 11.2398C47.5514 10.8238 48.2163 10.5989 48.9 10.6V10.5Z" fill="#1D1D1F"/>
<path d="M13.8 15.6C12.71 15.2787 11.7178 14.6893 10.9142 13.8858C10.1107 13.0822 9.5213 12.09 9.20001 11C8.305 10.944 7.41042 11.1161 6.60001 11.5C5.975 11.7809 5.41167 12.1825 4.9424 12.6818C4.47312 13.1811 4.10716 13.7683 3.86555 14.4095C3.62393 15.0507 3.51143 15.7333 3.5345 16.4182C3.55758 17.103 3.71578 17.7765 4.00001 18.4C4.51336 19.5205 5.40804 20.4223 6.52451 20.9445C7.64097 21.4667 8.90662 21.5753 10.0957 21.251C11.2848 20.9267 12.3201 20.1905 13.0169 19.1738C13.7136 18.1572 14.0266 16.926 13.9 15.7H13.7L13.8 15.6ZM15.8 3.89999C17.1791 3.89999 18.5018 4.44785 19.477 5.42304C20.4522 6.39823 21 7.72087 21 9.09999C21 10.4791 20.4522 11.8018 19.477 12.7769C18.5018 13.7521 17.1791 14.3 15.8 14.3C14.4209 14.3 13.0982 13.7521 12.1231 12.7769C11.1479 11.8018 10.6 10.4791 10.6 9.09999C10.6 7.72087 11.1479 6.39823 12.1231 5.42304C13.0982 4.44785 14.4209 3.89999 15.8 3.89999Z" fill="#1D1D1F"/>
</svg>
