<svg width="67" height="21" viewBox="0 0 67 21" fill="none" xmlns="http://www.w3.org/2000/svg">
<path d="M5.32824 1.10106C5.83128 1.10106 6.33431 1.10106 6.93795 1.30319C8.24583 1.70745 9.3525 2.61702 9.95614 3.82979V4.03191C9.31402 4.70065 8.81356 5.49324 8.48501 6.36178C8.15646 7.23032 8.00665 8.15676 8.04462 9.08511C7.13093 9.07953 6.22513 9.25521 5.37917 9.60207C4.53322 9.94893 3.76375 10.4601 3.1149 11.1064C2.26909 10.7305 1.53761 10.136 0.994983 9.38365C0.452359 8.63126 0.117995 7.74781 0.0259651 6.82333C-0.0660648 5.89885 0.0875286 4.96638 0.471094 4.12095C0.854659 3.27552 1.45448 2.54735 2.20945 2.01064C3.21551 1.40426 4.22157 1 5.32824 1V1.10106ZM40.4399 2.01064H37.3211V19.8989H40.3393V2.01064H40.4399ZM32.2908 5.24468H35.309V2.01064H32.2908C29.675 2.01064 27.6629 4.03191 27.6629 6.65957V8.2766H26.355V11.0053H27.6629V20H30.8823V11.0053H35.1077V8.2766H30.8823V6.65957C30.8823 5.85106 31.4859 5.24468 32.2908 5.24468ZM66.497 8.17553L62.4727 13.734L67 19.7979H63.4788L60.6618 16.0585H60.5612L57.7442 19.8989H54.223L58.8509 13.8351L54.6254 8.17553H58.1466L60.5612 11.5106H60.6618L63.0763 8.17553H66.497Z" fill="white"/>
<path d="M50.7544 15.2246C50.1645 15.9983 49.3779 16.4819 48.1979 16.4819C46.5264 16.4819 45.3465 15.5147 45.0515 13.9672H53.9992V12.9033C54.0122 12.1331 53.8693 11.3681 53.5786 10.6528C53.288 9.93749 52.8555 9.28628 52.3064 8.73711C51.7573 8.18795 51.1025 7.75182 50.3802 7.45415C49.658 7.15648 48.8827 7.00323 48.0996 7.00334C47.2917 6.97637 46.4867 7.11304 45.7346 7.40486C44.9826 7.69668 44.2996 8.13742 43.7279 8.69972C43.1563 9.26203 42.7082 9.93391 42.4116 10.6737C42.1149 11.4134 41.976 12.2052 42.0034 13C41.976 13.7948 42.1149 14.5866 42.4116 15.3263C42.7082 16.0661 43.1563 16.738 43.7279 17.3003C44.2996 17.8626 44.9826 18.3033 45.7346 18.5951C46.4867 18.887 47.2917 19.0236 48.0996 18.9967C50.8527 18.9967 52.9176 17.6426 53.8025 15.3213H50.7544V15.2246ZM48.0013 9.42135C48.6914 9.40766 49.3645 9.63245 49.9035 10.0566C50.4425 10.4807 50.8132 11.0774 50.9511 11.7426H45.0515C45.225 11.1038 45.6083 10.5392 46.1418 10.1369C46.6753 9.73457 47.329 9.517 48.0013 9.51807V9.42135Z" fill="white"/>
<path d="M12.9931 15.0108C11.9323 14.681 10.9667 14.0759 10.1847 13.251C9.40268 12.4261 8.82912 11.4076 8.51644 10.2886C7.64543 10.2311 6.77484 10.4077 5.98616 10.8019C5.37792 11.0902 4.8297 11.5025 4.37301 12.0151C3.91632 12.5277 3.56017 13.1304 3.32504 13.7887C3.0899 14.4469 2.98041 15.1477 3.00287 15.8507C3.02533 16.5537 3.17928 17.2451 3.45589 17.8852C3.95547 19.0355 4.82617 19.9612 5.91269 20.4973C6.99921 21.0333 8.23092 21.1448 9.38814 20.8119C10.5454 20.479 11.5529 19.7233 12.231 18.6796C12.909 17.6359 13.2136 16.372 13.0904 15.1135H12.8958L12.9931 15.0108ZM14.9394 3C16.2816 3 17.5688 3.56241 18.5178 4.5635C19.4668 5.5646 20 6.92237 20 8.33813C20 9.75389 19.4668 11.1117 18.5178 12.1128C17.5688 13.1139 16.2816 13.6763 14.9394 13.6763C13.5973 13.6763 12.3101 13.1139 11.3611 12.1128C10.4121 11.1117 9.8789 9.75389 9.8789 8.33813C9.8789 6.92237 10.4121 5.5646 11.3611 4.5635C12.3101 3.56241 13.5973 3 14.9394 3Z" fill="white"/>
</svg>
