<svg width="36" height="27" viewBox="0 0 36 27" fill="none" xmlns="http://www.w3.org/2000/svg">
<path d="M5.875 23C4.88362 23 4.18966 22.6928 3.69397 22.2831C3.19828 21.7711 3 20.9518 3 20.0301V9.07229C3 8.04819 3.19828 7.33133 3.69397 6.81928C4.18966 6.30723 4.78448 6 5.67672 6H23.125C24.1164 6 24.8103 6.30723 25.306 6.81928C25.8017 7.33133 26 8.04819 26 9.07229V20.0301C26 21.0542 25.8017 21.7711 25.306 22.2831C24.8103 22.6928 24.2155 23 23.3233 23H5.875ZM5.875 21.5663H23.125C23.6207 21.5663 24.0172 21.5663 24.3147 21.1566C24.5129 20.9518 24.7112 20.5422 24.7112 20.0301V9.07229C24.7112 8.45783 24.5129 8.04819 24.3147 7.84337C24.0172 7.53614 23.6207 7.43374 23.125 7.43374H5.875C5.37931 7.43374 4.98276 7.53614 4.68534 7.84337C4.48707 8.04819 4.28879 8.45783 4.28879 9.07229V19.9277C4.28879 20.5422 4.48707 20.9518 4.68534 21.1566C4.98276 21.4639 5.37931 21.5663 5.875 21.5663ZM14.5 17.0602C14.2026 17.0602 13.9052 17.0602 13.6078 16.8554C13.3189 16.729 13.0512 16.5562 12.8147 16.3434L3.69397 7.84337L4.68534 6.92169L13.6078 15.2169C13.806 15.5241 14.2026 15.6265 14.5 15.6265C14.7974 15.6265 15.0948 15.5241 15.4914 15.2169L24.4138 7.0241L25.306 7.84337L16.1853 16.3434L15.3922 16.8554L14.5 17.0602ZM4.78448 21.7711L3.7931 20.8494L10.7328 13.6807L11.7241 14.7048L4.78448 21.8735V21.7711ZM24.2155 21.7711L17.2759 14.6024L18.2672 13.7831L25.2069 20.9518L24.2155 21.7711Z" fill="white"/>
<path d="M29 12C31.7614 12 34 9.76142 34 7C34 4.23858 31.7614 2 29 2C26.2386 2 24 4.23858 24 7C24 9.76142 26.2386 12 29 12Z" fill="#FF6523" stroke="#1D1D1F" stroke-width="3"/>
</svg>
