<svg width="61" height="61" viewBox="0 0 61 61" fill="none" xmlns="http://www.w3.org/2000/svg">
<path d="M16.75 41.88C16.75 43.4912 16.11 45.0364 14.9707 46.1757C13.8314 47.315 12.2862 47.955 10.675 47.955C9.06381 47.955 7.51861 47.315 6.37932 46.1757C5.24004 45.0364 4.6 43.4912 4.6 41.88C4.6 40.2688 5.24004 38.7236 6.37932 37.5844C7.51861 36.4451 9.06381 35.805 10.675 35.805C12.2862 35.805 13.8314 36.4451 14.9707 37.5844C16.11 38.7236 16.75 40.2688 16.75 41.88ZM16.75 19.96C16.75 21.5712 16.11 23.1164 14.9707 24.2557C13.8314 25.395 12.2862 26.035 10.675 26.035C9.06381 26.035 7.51861 25.395 6.37932 24.2557C5.24004 23.1164 4.6 21.5712 4.6 19.96C4.6 18.3488 5.24004 16.8036 6.37932 15.6644C7.51861 14.5251 9.06381 13.885 10.675 13.885C12.2862 13.885 13.8314 14.5251 14.9707 15.6644C16.11 16.8036 16.75 18.3488 16.75 19.96ZM36.57 8.99004C36.57 10.6012 35.93 12.1464 34.7907 13.2857C33.6514 14.425 32.1062 15.065 30.495 15.065C28.8838 15.065 27.3386 14.425 26.1993 13.2857C25.06 12.1464 24.42 10.6012 24.42 8.99004C24.42 7.37885 25.06 5.83365 26.1993 4.69437C27.3386 3.55508 28.8838 2.91504 30.495 2.91504C32.1062 2.91504 33.6514 3.55508 34.7907 4.69437C35.93 5.83365 36.57 7.37885 36.57 8.99004ZM36.57 52.85C36.57 54.4612 35.93 56.0064 34.7907 57.1457C33.6514 58.285 32.1062 58.925 30.495 58.925C28.8838 58.925 27.3386 58.285 26.1993 57.1457C25.06 56.0064 24.42 54.4612 24.42 52.85C24.42 51.2388 25.06 49.6936 26.1993 48.5544C27.3386 47.4151 28.8838 46.775 30.495 46.775C32.1062 46.775 33.6514 47.4151 34.7907 48.5544C35.93 49.6936 36.57 51.2388 36.57 52.85ZM56.4 41.88C56.4 43.4912 55.76 45.0364 54.6207 46.1757C53.4814 47.315 51.9362 47.955 50.325 47.955C48.7138 47.955 47.1686 47.315 46.0293 46.1757C44.89 45.0364 44.25 43.4912 44.25 41.88C44.25 40.2688 44.89 38.7236 46.0293 37.5844C47.1686 36.4451 48.7138 35.805 50.325 35.805C51.9362 35.805 53.4814 36.4451 54.6207 37.5844C55.76 38.7236 56.4 40.2688 56.4 41.88ZM56.4 19.96C56.4 21.5712 55.76 23.1164 54.6207 24.2557C53.4814 25.395 51.9362 26.035 50.325 26.035C48.7138 26.035 47.1686 25.395 46.0293 24.2557C44.89 23.1164 44.25 21.5712 44.25 19.96C44.25 18.3488 44.89 16.8036 46.0293 15.6644C47.1686 14.5251 48.7138 13.885 50.325 13.885C51.9362 13.885 53.4814 14.5251 54.6207 15.6644C55.76 16.8036 56.4 18.3488 56.4 19.96Z" fill="#9169FF"/>
</svg>
