<svg width="18" height="30" viewBox="0 0 18 30" fill="none" xmlns="http://www.w3.org/2000/svg">
<path d="M17.9998 14.4901C18.0033 14.6588 17.9683 14.8261 17.8973 14.9803C17.8262 15.1344 17.7209 15.2716 17.5887 15.3821L3.14138 28.6333C2.89477 28.8811 2.59678 29 2.23714 29C2.02056 29.0001 1.80776 28.9452 1.62016 28.8408C1.43256 28.7365 1.27678 28.5862 1.16849 28.4053C1.03189 28.1776 0.976042 27.913 1.00942 27.6519C1.0428 27.3908 1.16359 27.1472 1.35345 26.9583L14.9377 14.5099L1.36372 2.0417C1.14077 1.81774 1.01567 1.51964 1.01436 1.20916C1.00721 0.996325 1.06095 0.785701 1.16971 0.600383C1.27846 0.415065 1.43802 0.26221 1.63089 0.158578C1.82612 0.0594668 2.03163 0 2.24742 0C2.60706 0 2.90505 0.118934 3.15166 0.356801L17.5785 13.5981C17.712 13.7269 17.8148 13.8657 17.8867 14.0144C17.9587 14.1531 17.9895 14.3117 17.9895 14.4901H17.9998Z" fill="#1D1D1F"/>
</svg>
