<svg xmlns="http://www.w3.org/2000/svg" width="107" height="20" fill="none" aria-label="Payroll Partners" class="l2024-c-faXHrU"><path fill="currentColor" d="M.9 14V4h4.7c2.1 0 3.7 1.3 3.7 3.3 0 1.9-1.6 3.3-3.7 3.3H2.7V14H1Zm1.8-5h2.7c1.3 0 2-.7 2-1.7s-.7-1.7-2-1.7H2.8V9Zm7.1 0c0-1.8 1.4-3 3.6-3 2.4 0 3.7 1.3 3.7 3.4V14h-1.7v-2c-.4 1.4-1.5 2.2-3 2.2-1.7 0-2.8-1-2.8-2.3 0-1.4 1.2-2.3 3.1-2.3h2.7v-.2c0-1.1-.8-1.9-2-1.9-1.3 0-1.8.6-1.8 1.5H9.8Zm5.6 1.8h-2.6c-1 0-1.5.4-1.5 1s.6 1 1.6 1c1.4 0 2.5-.7 2.5-1.7v-.3Zm8-4.5H25l-3 8c-.7 1.8-1.8 2.6-3.5 2.6l-1-.1v-1.5h.8c1 0 1.5-.2 1.8-1l-3-8h1.9l2.1 6.2 2.1-6.2Zm4.1 4V14h-1.7V6.3h1.7v2.6c.3-1.6 1.2-2.6 2.8-2.6h.4v1.6h-.6c-2 0-2.6.8-2.6 2.4Zm3.6-.2c0-2.4 1.6-4 3.9-4s3.8 1.6 3.8 4c0 2.5-1.5 4.1-3.8 4.1s-3.9-1.6-3.9-4Zm1.8 0c0 1.6.8 2.6 2 2.6 1.4 0 2.1-1 2.1-2.6 0-1.5-.7-2.5-2-2.5s-2.1 1-2.1 2.5Zm8.5-6.5V14h-1.8V3.6h1.8Zm2.8 0V14h-1.8V3.6h1.8ZM48.4 14V4h4.7c2.2 0 3.7 1.3 3.7 3.3 0 1.9-1.5 3.3-3.7 3.3h-2.9V14h-1.8Zm1.8-5H53c1.2 0 2-.7 2-1.7s-.8-1.7-2-1.7h-2.8V9Zm7.2 0c0-1.8 1.3-3 3.6-3s3.7 1.3 3.7 3.4V14h-1.8v-2c-.3 1.4-1.5 2.2-3 2.2-1.7 0-2.8-1-2.8-2.3 0-1.4 1.2-2.3 3.1-2.3H63v-.2c0-1.1-.7-1.9-2-1.9-1.2 0-1.8.6-1.8 1.5h-1.7Zm5.5 1.8h-2.6c-1 0-1.4.4-1.4 1s.5 1 1.6 1c1.4 0 2.4-.7 2.4-1.7v-.3Zm4.5-.5V14h-1.7V6.3h1.7v2.6c.3-1.6 1.2-2.6 2.8-2.6h.4v1.6H70c-2 0-2.6.8-2.6 2.4Zm9.1 3.6-1.7.3c-1.6 0-2.4-1-2.4-2.9V7.7h-1V6.3h1V4.5H74v1.8h2.4v1.4h-2.4v3.6c0 1 .4 1.4 1.1 1.4.3 0 .7 0 1.3-.2V14Zm2.6-4V14h-1.7V6.3H79v2.3C79.5 7 80.5 6 82 6c1.7 0 2.7 1.3 2.7 3.5V14H83V9.8c0-1.5-.6-2.2-1.8-2.2-1.2 0-2 .8-2 2.3Zm12 1.5H93a3.5 3.5 0 0 1-3.6 2.8c-2.3 0-3.9-1.6-3.9-4C85.4 7.6 87 6 89.2 6S93 7.7 93 10v.6h-5.7c.1 1.3.9 2 2.1 2 1 0 1.5-.4 1.9-1.3Zm-4-2h4c-.1-1.2-.8-1.9-1.9-1.9-1 0-1.8.7-2 2Zm8.4 1V14h-1.7V6.3h1.7v2.6c.3-1.6 1.2-2.6 2.8-2.6h.4v1.6h-.6c-2 0-2.6.8-2.6 2.4Zm7.2-4.3c2.2 0 3.4 1 3.4 2.6h-1.7c0-.8-.6-1.2-1.7-1.2-1 0-1.6.3-1.6.9 0 .7.8.8 1.7 1h.5c1.3.2 3 .5 3 2.4 0 1.5-1.2 2.4-3.5 2.4-2.4 0-3.6-1-3.6-2.7h1.7c0 .9.6 1.3 2 1.3 1 0 1.8-.3 1.8-1s-1-.9-2-1l-.4-.1c-1.2-.2-3-.5-3-2.3 0-1.4 1.3-2.3 3.4-2.3Z"></path></svg>