<svg width="32" height="20" viewBox="0 0 32 20" fill="none" xmlns="http://www.w3.org/2000/svg">
<path d="M27.5 1H4.5C2.567 1 1 2.567 1 4.5V15.5C1 17.433 2.567 19 4.5 19H27.5C29.433 19 31 17.433 31 15.5V4.5C31 2.567 29.433 1 27.5 1Z" stroke="white"/>
<path d="M6 14V6H9.07692C10.9231 6 11.9487 7.12821 11.9487 8.66667C11.9487 10.3077 10.9231 11.4359 9.07692 11.4359H7.64103V14H6ZM7.64103 10.1026H8.76923C9.79487 10.1026 10.2051 9.48718 10.2051 8.66667C10.2051 7.94872 9.79487 7.33333 8.76923 7.33333H7.64103V10.1026ZM15.8462 14H12.9744V6H15.8462C18.2051 6 19.7436 7.53846 19.7436 10C19.7436 12.4615 18.2051 14 15.7436 14H15.8462ZM14.5128 12.5641H15.5385C17.1795 12.5641 17.8974 11.7436 17.8974 10C17.8974 8.25641 17.1795 7.4359 15.641 7.4359H14.6154V12.5641H14.5128ZM20.7692 14V6H26V7.4359H22.4103V9.28205H25.7949V10.7179H22.5128V14H20.8718H20.7692Z" fill="white"/>
</svg>
