<svg width="17" height="30" viewBox="0 0 17 30" fill="none" xmlns="http://www.w3.org/2000/svg">
<g opacity="0.2">
<path d="M6.70401e-05 14.495C6.70401e-05 14.3265 0.0309357 14.1679 0.0926729 14.0291C0.1647 13.8803 0.267595 13.7415 0.401359 13.6126L14.8685 0.356923C15.1051 0.118974 15.4035 0 15.7534 0C15.9797 0 16.1855 0.0594872 16.3707 0.158632C16.5662 0.257778 16.7103 0.406496 16.8235 0.594872C16.9655 0.821235 17.0244 1.087 16.9908 1.34951C16.9572 1.61202 16.8331 1.85604 16.6383 2.04239L3.03548 14.505L16.6383 26.9675C16.8331 27.1539 16.9572 27.3979 16.9908 27.6604C17.0244 27.9229 16.9655 28.1887 16.8235 28.415C16.7206 28.5935 16.5662 28.7422 16.3707 28.8513C16.1855 28.9504 15.9797 29 15.7534 29C15.4035 29 15.1051 28.881 14.8685 28.6332L0.401359 15.3973C0.277138 15.2818 0.172921 15.1479 0.0926729 15.0007C0.029763 14.8425 -0.00165365 14.6743 6.70401e-05 14.505V14.495Z" fill="#1D1D1F" fill-opacity="0.72"/>
</g>
</svg>
