<svg width="48" height="48" viewBox="0 0 48 48" fill="none" xmlns="http://www.w3.org/2000/svg">
<rect x="1.41" y="1.41" width="45.18" height="45.18" rx="22.59" stroke="white" stroke-width="2.82"/>
<path d="M30.0689 24.2999L31.2389 23.1389C31.3229 23.055 31.3894 22.9553 31.4348 22.8457C31.4803 22.7361 31.5036 22.6185 31.5036 22.4999C31.5036 22.3812 31.4803 22.2637 31.4348 22.154C31.3894 22.0444 31.3229 21.9448 31.2389 21.8609C31.155 21.777 31.0554 21.7104 30.9458 21.665C30.8361 21.6196 30.7186 21.5962 30.5999 21.5962C30.4813 21.5962 30.3638 21.6196 30.2541 21.665C30.1445 21.7104 30.0449 21.777 29.9609 21.8609L28.7999 23.0309L27.6389 21.8609C27.4695 21.6914 27.2396 21.5962 26.9999 21.5962C26.7603 21.5962 26.5304 21.6914 26.3609 21.8609C26.1915 22.0303 26.0963 22.2602 26.0963 22.4999C26.0963 22.7395 26.1915 22.9694 26.3609 23.1389L27.5309 24.2999L26.3609 25.4609C26.2766 25.5445 26.2096 25.6441 26.1639 25.7538C26.1183 25.8634 26.0947 25.9811 26.0947 26.0999C26.0947 26.2187 26.1183 26.3363 26.1639 26.446C26.2096 26.5557 26.2766 26.6552 26.3609 26.7389C26.4446 26.8232 26.5442 26.8902 26.6538 26.9359C26.7635 26.9816 26.8811 27.0051 26.9999 27.0051C27.1188 27.0051 27.2364 26.9816 27.3461 26.9359C27.4557 26.8902 27.5553 26.8232 27.6389 26.7389L28.7999 25.5689L29.9609 26.7389C30.0446 26.8232 30.1442 26.8902 30.2538 26.9359C30.3635 26.9816 30.4811 27.0051 30.5999 27.0051C30.7188 27.0051 30.8364 26.9816 30.9461 26.9359C31.0557 26.8902 31.1553 26.8232 31.2389 26.7389C31.3233 26.6552 31.3903 26.5557 31.4359 26.446C31.4816 26.3363 31.5052 26.2187 31.5052 26.0999C31.5052 25.9811 31.4816 25.8634 31.4359 25.7538C31.3903 25.6441 31.3233 25.5445 31.2389 25.4609L30.0689 24.2999Z" fill="white"/>
<path d="M25.4066 27.693C24.9878 27.2685 24.753 26.6963 24.753 26.1C24.753 25.5037 24.9878 24.9314 25.4066 24.507L25.6136 24.3L25.4066 24.093C25.058 23.7189 24.8477 23.2369 24.8108 22.7269C24.7739 22.2169 24.9125 21.7096 25.2036 21.2892C25.4947 20.8688 25.9208 20.5606 26.4112 20.4158C26.9016 20.271 27.4268 20.2982 27.8996 20.493V18C27.8992 17.8372 27.8546 17.6775 27.7706 17.538C27.6866 17.3986 27.5663 17.2845 27.4226 17.208C27.2858 17.129 27.1306 17.0874 26.9726 17.0874C26.8146 17.0874 26.6594 17.129 26.5226 17.208L21.3296 20.7H18.8996C18.4222 20.7 17.9644 20.8896 17.6268 21.2272C17.2893 21.5648 17.0996 22.0226 17.0996 22.5V26.1C17.0996 26.5774 17.2893 27.0352 17.6268 27.3728C17.9644 27.7103 18.4222 27.9 18.8996 27.9H21.3296L26.5046 31.347C26.64 31.4361 26.7969 31.4871 26.9588 31.4944C27.1207 31.5018 27.2816 31.4653 27.4245 31.3887C27.5674 31.3122 27.6869 31.1986 27.7706 31.0597C27.8542 30.9209 27.8988 30.7621 27.8996 30.6V28.143C27.4851 28.3174 27.0289 28.3678 26.5863 28.2879C26.1438 28.208 25.7339 28.0013 25.4066 27.693Z" fill="white"/>
</svg>
