<svg width="48" height="48" viewBox="0 0 48 48" fill="none" xmlns="http://www.w3.org/2000/svg">
<rect x="1.41" y="1.41" width="45.18" height="45.18" rx="22.59" stroke="white" stroke-width="2.82"/>
<path d="M29.6994 17.9999V30.5999C29.699 30.7627 29.6544 30.9224 29.5704 31.0618C29.4864 31.2013 29.3661 31.3154 29.2224 31.3919C29.0817 31.4642 28.9244 31.4981 28.7664 31.4902C28.6084 31.4823 28.4552 31.4328 28.3224 31.3469L23.1294 27.8999H20.6994C20.222 27.8999 19.7642 27.7103 19.4266 27.3727C19.0891 27.0351 18.8994 26.5773 18.8994 26.0999V22.4999C18.8994 22.0225 19.0891 21.5647 19.4266 21.2271C19.7642 20.8895 20.222 20.6999 20.6994 20.6999H23.1294L28.3044 17.2529C28.4412 17.1739 28.5964 17.1323 28.7544 17.1323C28.9124 17.1323 29.0676 17.1739 29.2044 17.2529C29.345 17.3233 29.4646 17.4294 29.5515 17.5604C29.6383 17.6915 29.6893 17.843 29.6994 17.9999Z" fill="white"/>
</svg>
