<svg xmlns="http://www.w3.org/2000/svg" viewBox="0 0 74.2 74.36"><g id="Layer_2" data-name="Layer 2"><g id="Layer_1-2" data-name="Layer 1"><path d="M68.6,16l.88,1.24-3.19,2.26.06.09,5.11.44,1.08,1.53-5-.48-1.89,5.42L64.57,25l1.5-4.18-1.45-.12-2.06,1.46-.89-1.24Z" transform="translate(-2.98 -2.87)"/><path d="M74.12,25l-2.79,3.26,0,.08,4.25.63.6,1.62-6-1-3,1.12-.53-1.43,3-1.12,3.89-4.75Z" transform="translate(-2.98 -2.87)"/><path d="M70.83,40.42a3.72,3.72,0,0,1-1.64-1.24,4.09,4.09,0,0,1-.38-4,3.65,3.65,0,0,1,1.37-1.53,5.68,5.68,0,0,1,4.63-.45,3.59,3.59,0,0,1,1.64,1.24,3.83,3.83,0,0,1,.71,1.94,3.87,3.87,0,0,1-.33,2A3.63,3.63,0,0,1,75.47,40a5.72,5.72,0,0,1-4.64.45Zm3.8-1.7a2.32,2.32,0,0,0,.94-.92,2.24,2.24,0,0,0,.22-1.27,2.15,2.15,0,0,0-1.55-1.92,4,4,0,0,0-1.65-.14,4,4,0,0,0-1.59.45,2.16,2.16,0,0,0-1.16,2.19A2.15,2.15,0,0,0,71.4,39a4.13,4.13,0,0,0,1.65.14A3.93,3.93,0,0,0,74.63,38.72Z" transform="translate(-2.98 -2.87)"/><path d="M74.28,48.33a1.84,1.84,0,0,0,.67-.6,2.24,2.24,0,0,0,.36-.9,2.21,2.21,0,0,0-.11-1.28,2.33,2.33,0,0,0-.85-1A3.91,3.91,0,0,0,72.81,44a3.81,3.81,0,0,0-1.65,0,2.27,2.27,0,0,0-1.15.63,2.2,2.2,0,0,0-.57,1.15,2.33,2.33,0,0,0,0,1,1.89,1.89,0,0,0,.4.8,1.8,1.8,0,0,0,.75.53l-.29,1.52A3.32,3.32,0,0,1,69,48.67a3.17,3.17,0,0,1-.8-1.42,3.83,3.83,0,0,1-.06-1.79A3.79,3.79,0,0,1,69,43.59a3.49,3.49,0,0,1,1.74-1.08,5.68,5.68,0,0,1,4.57.86A3.53,3.53,0,0,1,76.52,45a3.85,3.85,0,0,1,.15,2.06A4.21,4.21,0,0,1,76,48.67a3.22,3.22,0,0,1-1.24,1,3.46,3.46,0,0,1-1.69.32l.28-1.51A1.86,1.86,0,0,0,74.28,48.33Z" transform="translate(-2.98 -2.87)"/><path d="M74.87,53.5l-.69,1.37L71,53.25l-1.77,3.53,3.23,1.62-.69,1.36L64.15,56l.68-1.37,3.23,1.61,1.77-3.53L66.6,51.07l.68-1.36Z" transform="translate(-2.98 -2.87)"/><path d="M60.2,63.28a3.59,3.59,0,0,1-.16-2,4,4,0,0,1,2.72-2.94,3.67,3.67,0,0,1,2.05,0,5.18,5.18,0,0,1,2,1.21,5,5,0,0,1,1.37,2,3.5,3.5,0,0,1,.16,2,3.9,3.9,0,0,1-1,1.82,3.79,3.79,0,0,1-1.75,1.11,3.54,3.54,0,0,1-2,0,5.7,5.7,0,0,1-3.42-3.17ZM64,65a2.29,2.29,0,0,0,1.31.09,2.21,2.21,0,0,0,1.09-.67A2.24,2.24,0,0,0,67,63.27,2.27,2.27,0,0,0,66.8,62a4.57,4.57,0,0,0-2.38-2.2,2.29,2.29,0,0,0-1.31-.09,2.22,2.22,0,0,0-1.49,3.12,4,4,0,0,0,1,1.32A4,4,0,0,0,64,65Z" transform="translate(-2.98 -2.87)"/><path d="M51.84,66.39l1.16-.7,6.43,2.9.06,0-3-5,1.31-.78,4.37,7.27-1.17.7-6.42-2.9-.07,0,3,5-1.3.78Z" transform="translate(-2.98 -2.87)"/><path d="M50,75.91,44.67,77l-.26-1.26L48.24,75l-.46-2.28-3.46.7-.25-1.24,3.46-.7-.71-3.54,1.49-.3Z" transform="translate(-2.98 -2.87)"/><path d="M35.07,70.37a3.55,3.55,0,0,1,1.47-1.43,4.06,4.06,0,0,1,4,.21,3.59,3.59,0,0,1,1.31,1.58,5,5,0,0,1,.38,2.34,5.12,5.12,0,0,1-.62,2.31,3.67,3.67,0,0,1-1.47,1.43,3.89,3.89,0,0,1-2,.41,3.8,3.8,0,0,1-2-.62A3.57,3.57,0,0,1,34.83,75a5,5,0,0,1-.38-2.35A5.11,5.11,0,0,1,35.07,70.37Zm1.12,4a2.1,2.1,0,0,0,2,1.47,2.12,2.12,0,0,0,1.25-.28,2.2,2.2,0,0,0,.88-1A4,4,0,0,0,40.69,73a3.78,3.78,0,0,0-.21-1.63,2.13,2.13,0,0,0-2-1.47,2.16,2.16,0,0,0-1.25.28,2.2,2.2,0,0,0-.88,1A4,4,0,0,0,36,72.75,4.12,4.12,0,0,0,36.19,74.38Z" transform="translate(-2.98 -2.87)"/><path d="M26.59,67.68a3.63,3.63,0,0,1,1.82-1,4.08,4.08,0,0,1,3.77,1.35A3.5,3.5,0,0,1,33,70a5.59,5.59,0,0,1-1.56,4.38,3.58,3.58,0,0,1-1.81,1,3.86,3.86,0,0,1-2.06-.18,3.75,3.75,0,0,1-1.71-1.17,3.52,3.52,0,0,1-.8-1.88,5.05,5.05,0,0,1,.31-2.37A5.11,5.11,0,0,1,26.59,67.68Zm-.08,4.16A2.29,2.29,0,0,0,27,73.08a2.21,2.21,0,0,0,1.05.74,2.26,2.26,0,0,0,1.28.09,2.29,2.29,0,0,0,1.12-.68,3.94,3.94,0,0,0,.83-1.43,4.18,4.18,0,0,0,.27-1.63,2.37,2.37,0,0,0-.44-1.24,2.24,2.24,0,0,0-1-.74,2.18,2.18,0,0,0-1.28-.09,2.22,2.22,0,0,0-1.12.68,3.94,3.94,0,0,0-.83,1.43A4.18,4.18,0,0,0,26.51,71.84Z" transform="translate(-2.98 -2.87)"/><path d="M25.53,64.85l-.77,1.08-1.69-1.21a3,3,0,0,0-1.39-.6,2.1,2.1,0,0,0-1.29.27A4.58,4.58,0,0,0,18.49,67a2.05,2.05,0,0,0,.14,1.3,3,3,0,0,0,1,1.11l1.76,1.27-.77,1.07-1.83-1.31a4.45,4.45,0,0,1-1.47-1.68,3.37,3.37,0,0,1-.28-2,5.47,5.47,0,0,1,2.65-3.68,3.41,3.41,0,0,1,2-.37,4.55,4.55,0,0,1,2.09.88Zm-.65-.46,1.24.89-5,6.88-1.23-.89Z" transform="translate(-2.98 -2.87)"/><path d="M18.37,59.13,9.65,61.34l-1-1.57L14,52.59l.9,1.36-4.36,5.62,0,.06,6.87-1.85Zm-6.18-3.28,1-.68,2.48,3.72-1,.68Z" transform="translate(-2.98 -2.87)"/><path d="M11.73,45.5l.42,1.29L7.86,52.38l0,.08,5.52-1.78.47,1.45-8.08,2.6-.42-1.3,4.3-5.59,0-.07L4.12,49.54,3.65,48.1Z" transform="translate(-2.98 -2.87)"/><path d="M11.54,43.77l-1.32,0-.08-2.08a3.07,3.07,0,0,0-.38-1.47,2.07,2.07,0,0,0-1-.85,4,4,0,0,0-1.63-.24,4.08,4.08,0,0,0-1.61.35,2.07,2.07,0,0,0-.93.92,3,3,0,0,0-.27,1.46l.08,2.17-1.32.05L3,41.88a4.37,4.37,0,0,1,.43-2.19,3.29,3.29,0,0,1,1.41-1.45,4.86,4.86,0,0,1,2.25-.57,4.89,4.89,0,0,1,2.29.4,3.43,3.43,0,0,1,1.51,1.36,4.5,4.5,0,0,1,.59,2.19Zm0-.81.06,1.53-8.48.31,0-1.52Z" transform="translate(-2.98 -2.87)"/><path d="M3.81,31.45l1-3.09A3.72,3.72,0,0,1,5.54,27a2.08,2.08,0,0,1,1-.64,2.21,2.21,0,0,1,1.19.06,1.79,1.79,0,0,1,.76.45,1.65,1.65,0,0,1,.42.69,2.06,2.06,0,0,1,.08.83l.08,0a1.94,1.94,0,0,1,.54-.75,2,2,0,0,1,.89-.42,2.14,2.14,0,0,1,1.11.09,2.19,2.19,0,0,1,1,.67,2.21,2.21,0,0,1,.48,1.18,4,4,0,0,1-.21,1.61l-1,3.26Zm4.45-2.54A1.27,1.27,0,0,0,8,28.3a1.2,1.2,0,0,0-.55-.37,1.1,1.1,0,0,0-.62,0,1.05,1.05,0,0,0-.52.31,1.9,1.9,0,0,0-.36.68l-.48,1.49,2.23.72.47-1.46A1.67,1.67,0,0,0,8.26,28.91Zm3.53.82a1.11,1.11,0,0,0-.23-.62,1,1,0,0,0-.52-.34,1.33,1.33,0,0,0-.71,0,1.38,1.38,0,0,0-.63.36,1.79,1.79,0,0,0-.41.73l-.53,1.62,2.38.77.51-1.58A2.44,2.44,0,0,0,11.79,29.73Z" transform="translate(-2.98 -2.87)"/><path d="M7,23l2.88-4.7,1.09.67-2.08,3.4,2,1.21,1.93-3.15,1.09.66-1.93,3.16,2,1.21L16,22l1.1.67-2.89,4.72Z" transform="translate(-2.98 -2.87)"/><path d="M18.74,18.29l.06-.05-3.1-6.33,1.2-1.17,3.8,8.15-1.34,1.32-8.07-4,1.19-1.18Z" transform="translate(-2.98 -2.87)"/><path d="M19.06,9.28,23.82,6.5l.65,1.11L21,9.62l1.17,2,3.2-1.87.64,1.1-3.2,1.86,1.17,2,3.47-2,.65,1.11-4.79,2.79Z" transform="translate(-2.98 -2.87)"/><path d="M26.54,5.3l3-.91a3.62,3.62,0,0,1,1.66-.15,2.34,2.34,0,0,1,1.25.61,3,3,0,0,1,.74,1.27,2.83,2.83,0,0,1,.07,1.46,2.29,2.29,0,0,1-.71,1.18,3.86,3.86,0,0,1-1.48.79l-2.18.65L28.56,9l2-.6A2.38,2.38,0,0,0,31.4,8a1.15,1.15,0,0,0,.38-.61,1.43,1.43,0,0,0-.05-.78,1.55,1.55,0,0,0-.39-.69,1.13,1.13,0,0,0-.67-.31,2.24,2.24,0,0,0-1,.11l-1.36.41L30.44,13,29,13.43Zm8.64,6.26-1.64.5L30.47,9l1.6-.48Z" transform="translate(-2.98 -2.87)"/><path d="M35.11,11.53,37.8,2.94l1.88-.07L43,11.25l-1.63.05L38.83,4.64h-.07l-2,6.83Zm6-3.55,0,1.22-4.47.16,0-1.22Z" transform="translate(-2.98 -2.87)"/><path d="M49.66,6.09a1.7,1.7,0,0,0-.55-.64,2.15,2.15,0,0,0-.84-.37A2.18,2.18,0,0,0,47,5.14,2.38,2.38,0,0,0,46,6a3.84,3.84,0,0,0-.66,1.5,4.08,4.08,0,0,0-.07,1.65,2.28,2.28,0,0,0,.59,1.19,2.55,2.55,0,0,0,2.3.63,1.78,1.78,0,0,0,.88-.53,2.2,2.2,0,0,0,.49-1l.33.12L47.56,9l.26-1.17,3.36.77L51,9.6a3.7,3.7,0,0,1-.87,1.72,3.15,3.15,0,0,1-1.52.92,4.27,4.27,0,0,1-3.79-1,3.59,3.59,0,0,1-1-1.79,5.11,5.11,0,0,1,0-2.36,5.06,5.06,0,0,1,1-2.15,3.61,3.61,0,0,1,3.74-1.23,4,4,0,0,1,1.58.72,3.37,3.37,0,0,1,1,1.26,3.1,3.1,0,0,1,.28,1.57l-1.52-.35A1.82,1.82,0,0,0,49.66,6.09Z" transform="translate(-2.98 -2.87)"/><path d="M54.85,5.83l4.89,2.55-.6,1.14L55.6,7.67,54.53,9.73l3.28,1.71-.58,1.13-3.29-1.71-1.07,2.06,3.55,1.86-.59,1.14-4.91-2.57Z" transform="translate(-2.98 -2.87)"/></g></g></svg>