<svg width="75" height="75" viewBox="0 0 75 75" fill="none" xmlns="http://www.w3.org/2000/svg">
<g clip-path="url(#clip0_2136_202)">
<path d="M65.6201 13.13L66.5001 14.37L63.3101 16.63L63.3701 16.72L68.4801 17.16L69.5601 18.69L64.5601 18.21L62.6701 23.63L61.5901 22.13L63.0901 17.95L61.6401 17.83L59.5801 19.29L58.6901 18.05L65.6201 13.13Z" fill="#FFB600"/>
<path d="M71.14 22.13L68.35 25.39V25.47L72.6 26.1L73.2 27.72L67.2 26.72L64.2 27.84L63.67 26.41L66.67 25.29L70.56 20.54L71.14 22.13Z" fill="#FFB600"/>
<path d="M67.8501 37.55C67.1978 37.2989 66.6294 36.8692 66.2101 36.31C65.8079 35.7323 65.5616 35.0606 65.495 34.3599C65.4284 33.6591 65.5439 32.9531 65.8301 32.31C66.1309 31.6794 66.6064 31.1484 67.2001 30.78C67.8963 30.3825 68.6689 30.1368 69.4669 30.0593C70.2649 29.9817 71.0703 30.074 71.8301 30.33C72.4859 30.5746 73.056 31.0056 73.4701 31.57C73.88 32.1394 74.1256 32.8105 74.1801 33.51C74.2497 34.1941 74.1358 34.8845 73.8501 35.51C73.5676 36.173 73.0942 36.737 72.4901 37.13C71.7916 37.5266 71.0174 37.7716 70.218 37.8491C69.4185 37.9267 68.6117 37.835 67.8501 37.58V37.55ZM71.6501 35.85C72.0456 35.6404 72.3721 35.3209 72.5901 34.93C72.7862 34.5374 72.8627 34.0957 72.8101 33.66C72.7801 33.2195 72.6152 32.799 72.3379 32.4555C72.0606 32.112 71.6843 31.8622 71.2601 31.74C70.7259 31.5788 70.1638 31.5311 69.6101 31.6C69.0545 31.6377 68.513 31.791 68.0201 32.05C67.6253 32.2519 67.3023 32.5703 67.0948 32.9621C66.8872 33.3539 66.8053 33.8 66.8601 34.24C66.8967 34.6764 67.0656 35.0913 67.3444 35.429C67.6232 35.7668 67.9985 36.0113 68.4201 36.13C68.955 36.2876 69.5163 36.3352 70.0701 36.27C70.6204 36.2423 71.1587 36.0992 71.6501 35.85Z" fill="#FFB600"/>
<path d="M71.3 45.46C71.5696 45.3185 71.7998 45.1123 71.97 44.86C72.1543 44.5899 72.2772 44.2827 72.33 43.96C72.4209 43.5319 72.3826 43.0864 72.22 42.68C72.0384 42.2721 71.7433 41.925 71.37 41.68C70.9012 41.3902 70.3764 41.2027 69.83 41.13C69.2866 41.0095 68.7234 41.0095 68.18 41.13C67.7431 41.2223 67.3431 41.4414 67.03 41.76C66.73 42.0782 66.5315 42.4785 66.46 42.91C66.3877 43.2394 66.3877 43.5806 66.46 43.91C66.5274 44.2048 66.6646 44.4792 66.86 44.71C67.06 44.9485 67.3184 45.1312 67.61 45.24L67.32 46.76C66.8143 46.552 66.3677 46.2222 66.02 45.8C65.6342 45.4045 65.3584 44.915 65.22 44.38C65.0588 43.7965 65.0383 43.183 65.16 42.59C65.2687 41.8993 65.5664 41.2521 66.02 40.72C66.479 40.1941 67.0851 39.8179 67.76 39.64C68.5393 39.4528 69.3494 39.4327 70.1371 39.5809C70.9247 39.7291 71.6721 40.0423 72.33 40.5C72.8843 40.9131 73.305 41.4799 73.54 42.13C73.7767 42.7902 73.8286 43.5025 73.69 44.19C73.5815 44.7675 73.3533 45.316 73.02 45.8C72.697 46.2319 72.2706 46.5758 71.78 46.8C71.2526 47.0472 70.6713 47.1573 70.09 47.12L70.37 45.61C70.6878 45.6406 71.008 45.589 71.3 45.46Z" fill="#FFB600"/>
<path d="M71.89 50.63L71.2 52L68.02 50.38L66.25 53.91L69.48 55.53L68.79 56.89L61.17 53.13L61.85 51.76L65.08 53.37L66.85 49.84L63.62 48.2L64.3 46.84L71.89 50.63Z" fill="#FFB600"/>
<path d="M57.2201 60.41C56.9777 59.7721 56.9222 59.0783 57.0601 58.41C57.215 57.7241 57.5481 57.0912 58.0256 56.575C58.5031 56.0589 59.1083 55.6777 59.7801 55.47C60.4495 55.2753 61.1606 55.2753 61.8301 55.47C62.5802 55.7157 63.2643 56.1296 63.8301 56.68C64.4439 57.2242 64.9144 57.911 65.2001 58.68C65.4474 59.3168 65.5031 60.012 65.3601 60.68C65.1974 61.3659 64.8518 61.9949 64.3601 62.5C63.8912 63.0254 63.2852 63.4098 62.6101 63.61C61.9573 63.8022 61.2629 63.8022 60.6101 63.61C59.8488 63.3526 59.1505 62.9371 58.5611 62.3907C57.9717 61.8444 57.5044 61.1796 57.1901 60.44L57.2201 60.41ZM61.0201 62.13C61.4386 62.2872 61.894 62.3185 62.3301 62.22C62.7515 62.109 63.1308 61.8759 63.4201 61.55C63.7291 61.2342 63.9379 60.8341 64.0201 60.4C64.0772 59.9662 64.0077 59.5252 63.8201 59.13C63.3222 58.1305 62.4755 57.3479 61.4401 56.93C61.0216 56.7728 60.5662 56.7415 60.1301 56.84C59.8074 56.9165 59.5059 57.0643 59.2478 57.2725C58.9897 57.4808 58.7815 57.7442 58.6386 58.0435C58.4957 58.3428 58.4216 58.6703 58.4219 59.0019C58.4221 59.3336 58.4967 59.661 58.6401 59.96C58.8777 60.4649 59.2183 60.9146 59.6401 61.28C60.0373 61.6545 60.5069 61.9438 61.0201 62.13Z" fill="#FFB600"/>
<path d="M48.86 63.52L50.02 62.82L56.45 65.72H56.51L53.51 60.72L54.82 59.94L59.19 67.21L58.02 67.91L51.6 65.01H51.53L54.53 70.01L53.23 70.79L48.86 63.52Z" fill="#FFB600"/>
<path d="M47.0201 73.04L41.6901 74.13L41.4301 72.87L45.2601 72.13L44.8001 69.85L41.3401 70.55L41.0901 69.31L44.5501 68.61L43.8401 65.07L45.3301 64.77L47.0201 73.04Z" fill="#FFB600"/>
<path d="M32.09 67.5C32.4286 66.8891 32.94 66.3917 33.56 66.07C34.188 65.7562 34.8866 65.6106 35.5877 65.6474C36.2888 65.6842 36.9683 65.9021 37.56 66.28C38.1411 66.668 38.5964 67.2171 38.87 67.86C39.1824 68.5983 39.3127 69.4008 39.25 70.2C39.2286 71.0081 39.0161 71.7997 38.63 72.51C38.2858 73.1167 37.7759 73.6127 37.16 73.94C36.5417 74.2523 35.8513 74.3938 35.16 74.35C34.4484 74.3347 33.7554 74.1199 33.16 73.73C32.575 73.3376 32.1193 72.7809 31.85 72.13C31.536 71.3887 31.4056 70.5825 31.47 69.78C31.4957 68.982 31.708 68.2011 32.09 67.5ZM33.21 71.5C33.3439 71.9257 33.6099 72.2978 33.9696 72.5621C34.3292 72.8264 34.7637 72.9693 35.21 72.97C35.6456 73.0078 36.0822 72.91 36.46 72.69C36.8496 72.4556 37.157 72.1062 37.34 71.69C37.5673 71.2003 37.6932 70.6696 37.71 70.13C37.7604 69.5778 37.6887 69.0213 37.5 68.5C37.3621 68.0767 37.095 67.7072 36.7362 67.4436C36.3775 67.1799 35.9452 67.0353 35.5 67.03C35.0646 66.9948 34.6288 67.0924 34.25 67.31C33.8604 67.5444 33.5529 67.8937 33.37 68.31C33.1482 68.8042 33.0291 69.3384 33.02 69.88C32.9734 70.4306 33.038 70.9849 33.21 71.51V71.5Z" fill="#FFB600"/>
<path d="M23.6101 64.81C24.1064 64.3066 24.739 63.959 25.4301 63.81C26.1215 63.692 26.8317 63.7542 27.4921 63.9907C28.1525 64.2272 28.7407 64.6299 29.2001 65.16C29.6718 65.7153 29.9584 66.404 30.0201 67.13C30.0896 67.9293 29.9862 68.7341 29.7171 69.4899C29.4479 70.2457 29.0192 70.9346 28.4601 71.51C27.9682 72.0141 27.3386 72.362 26.6501 72.51C25.9598 72.6385 25.2476 72.5762 24.5901 72.33C23.9215 72.1083 23.3289 71.7029 22.8801 71.16C22.4334 70.6262 22.155 69.972 22.0801 69.28C21.9923 68.4766 22.0986 67.6638 22.3901 66.91C22.6221 66.1221 23.0405 65.4018 23.6101 64.81ZM23.5301 68.97C23.5668 69.4228 23.7374 69.8544 24.0201 70.21C24.2891 70.5552 24.6545 70.8127 25.0701 70.95C25.4791 71.103 25.9237 71.1343 26.3501 71.04C26.7817 70.9273 27.1709 70.6909 27.4701 70.36C27.8448 69.9474 28.1277 69.46 28.3001 68.93C28.4976 68.4101 28.5894 67.8559 28.5701 67.3C28.5434 66.8534 28.3908 66.4235 28.1301 66.06C27.8733 65.7239 27.5266 65.4673 27.1301 65.32C26.7221 65.1623 26.2761 65.1309 25.8501 65.23C25.4168 65.3388 25.0265 65.5758 24.7301 65.91C24.3554 66.3226 24.0725 66.81 23.9001 67.34C23.6682 67.8529 23.5424 68.4073 23.5301 68.97Z" fill="#FFB600"/>
<path d="M22.55 61.98L21.78 63.06L20.09 61.85C19.6856 61.5345 19.2071 61.3279 18.7 61.25C18.2522 61.1993 17.7999 61.2939 17.41 61.52C16.4809 62.1306 15.8056 63.0582 15.51 64.13C15.4136 64.567 15.4627 65.0236 15.65 65.43C15.8844 65.8784 16.2284 66.2603 16.65 66.54L18.41 67.81L17.64 68.88L15.81 67.57C15.1853 67.144 14.6793 66.5658 14.34 65.89C14.0445 65.2676 13.9467 64.5696 14.06 63.89C14.2129 63.1228 14.5286 62.3973 14.9857 61.7625C15.4429 61.1276 16.0309 60.5982 16.71 60.21C17.3236 59.8861 18.0213 59.757 18.71 59.84C19.4698 59.9523 20.1888 60.255 20.8 60.72L22.55 61.98ZM21.9 61.52L23.14 62.41L18.14 69.29L16.91 68.4L21.9 61.52Z" fill="#FFB600"/>
<path d="M15.39 56.26L6.67004 58.47L5.67004 56.9L11.02 49.72L11.92 51.08L7.56004 56.7V56.76L14.43 54.91L15.39 56.26ZM9.21004 52.98L10.21 52.3L12.69 56.02L11.69 56.7L9.21004 52.98Z" fill="#FFB600"/>
<path d="M8.75004 42.63L9.17004 43.92L4.88004 49.51V49.59L10.4 47.81L10.87 49.26L2.79004 51.86L2.37004 50.56L6.67004 44.97V44.9L1.14004 46.67L0.670044 45.23L8.75004 42.63Z" fill="#FFB600"/>
<path d="M8.56003 40.9H7.24003L7.16003 38.82C7.15844 38.3059 7.02778 37.8005 6.78003 37.35C6.54772 36.9657 6.19674 36.6674 5.78003 36.5C5.25924 36.3078 4.70413 36.226 4.15003 36.26C3.59514 36.266 3.04731 36.3851 2.54003 36.61C2.13873 36.8081 1.81243 37.1309 1.61003 37.53C1.39912 37.9864 1.30627 38.4884 1.34003 38.99L1.42003 41.16L0.100028 41.21L0.0200282 39.01C-0.0286068 38.2551 0.119559 37.5005 0.450028 36.82C0.75612 36.2006 1.24944 35.6933 1.86003 35.37C2.55298 35.0011 3.325 34.8055 4.11003 34.8C4.89442 34.7473 5.67995 34.8845 6.40003 35.2C7.02918 35.4904 7.55563 35.9645 7.91003 36.56C8.29045 37.2276 8.49357 37.9816 8.50003 38.75L8.56003 40.9ZM8.56003 40.09L8.62003 41.62L0.140028 41.93V40.41L8.56003 40.09Z" fill="#FFB600"/>
<path d="M0.830078 28.58L1.83008 25.49C1.97565 24.9906 2.22434 24.5273 2.56008 24.13C2.82415 23.824 3.17165 23.6016 3.56008 23.49C3.95476 23.4007 4.36639 23.4214 4.75008 23.55C5.03702 23.6342 5.29831 23.7889 5.51008 24C5.70508 24.1916 5.84941 24.4288 5.93008 24.69C6.01305 24.9583 6.04027 25.2408 6.01008 25.52H6.09008C6.20703 25.2301 6.39229 24.9728 6.63008 24.77C6.88713 24.5581 7.19306 24.4137 7.52008 24.35C7.89154 24.2815 8.2745 24.3126 8.63008 24.44C9.01945 24.5655 9.36587 24.7976 9.63008 25.11C9.90243 25.4477 10.0694 25.8581 10.1101 26.29C10.1509 26.8354 10.0794 27.3833 9.90008 27.9L8.90008 31.16L0.830078 28.58ZM5.28008 26.04C5.24896 25.8172 5.15924 25.6067 5.02008 25.43C4.87512 25.2575 4.68451 25.1292 4.47008 25.06C4.26769 25.0006 4.05247 25.0006 3.85008 25.06C3.65007 25.11 3.46922 25.2179 3.33008 25.37C3.16496 25.5697 3.04245 25.8012 2.97008 26.05L2.49008 27.54L4.72008 28.26L5.19008 26.8C5.2785 26.557 5.30931 26.2969 5.28008 26.04ZM8.81008 26.86C8.79818 26.6348 8.71796 26.4185 8.58008 26.24C8.44724 26.0743 8.26511 25.9552 8.06008 25.9C7.82778 25.8357 7.58237 25.8357 7.35008 25.9C7.11172 25.9617 6.89421 26.086 6.72008 26.26C6.52762 26.4675 6.38711 26.7177 6.31008 26.99L5.78008 28.61L8.16008 29.38L8.67008 27.8C8.7779 27.4989 8.82547 27.1795 8.81008 26.86Z" fill="#FFB600"/>
<path d="M4.02002 20.13L6.90002 15.43L7.99002 16.1L5.91002 19.5L7.91002 20.71L9.84002 17.56L10.93 18.22L9.00002 21.38L11 22.59L13.02 19.13L14.12 19.8L11.23 24.52L4.02002 20.13Z" fill="#FFB600"/>
<path d="M15.7601 15.42L15.8201 15.37L12.7201 9.04L13.9201 7.87L17.7201 16.02L16.3801 17.34L8.31006 13.34L9.50006 12.16L15.7601 15.42Z" fill="#FFB600"/>
<path d="M16.0801 6.41L20.8401 3.63L21.4901 4.74001L18.0201 6.75L19.1901 8.75L22.3901 6.88L23.0301 7.98001L19.8301 9.84L21.0001 11.84L24.4701 9.84L25.1201 10.95L20.3301 13.74L16.0801 6.41Z" fill="#FFB600"/>
<path d="M23.5601 2.43L26.5601 1.52C27.0942 1.34156 27.6626 1.29019 28.2201 1.37C28.6889 1.44193 29.1249 1.65467 29.4701 1.98C29.8182 2.33542 30.0725 2.77185 30.2101 3.25C30.3608 3.72214 30.385 4.2256 30.2801 4.71C30.1701 5.16686 29.9222 5.57883 29.5701 5.89C29.1406 6.25865 28.6353 6.52835 28.0901 6.68L25.9101 7.33L25.5801 6.13L27.5801 5.52999C27.8836 5.45322 28.1691 5.31729 28.4201 5.13C28.6086 4.97248 28.7418 4.7587 28.8001 4.52C28.8561 4.2604 28.8388 3.99031 28.7501 3.74C28.6821 3.48008 28.5477 3.24231 28.3601 3.05C28.1777 2.87457 27.9418 2.7654 27.6901 2.74C27.3527 2.70037 27.0107 2.73798 26.6901 2.85L25.3301 3.26L27.4601 10.13L26.0201 10.56L23.5601 2.43ZM32.2001 8.69L30.5601 9.19L27.4901 6.13L29.0901 5.65L32.2001 8.69Z" fill="#FFB600"/>
<path d="M32.13 8.66L34.82 0.0700002L36.7 0L40.02 8.38L38.39 8.43L35.85 1.77H35.78L33.78 8.6L32.13 8.66ZM38.13 5.11V6.33L33.66 6.49V5.27L38.13 5.11Z" fill="#FFB600"/>
<path d="M46.68 3.22001C46.5534 2.96384 46.3642 2.74372 46.13 2.58001C45.8799 2.39765 45.5934 2.27144 45.29 2.21001C44.8701 2.10337 44.428 2.12426 44.02 2.27001C43.6123 2.45674 43.2657 2.75486 43.02 3.13001C42.6946 3.57669 42.4695 4.08834 42.36 4.63001C42.2244 5.16948 42.2006 5.73099 42.29 6.28001C42.3642 6.72644 42.5696 7.14069 42.88 7.47001C43.183 7.75451 43.551 7.96063 43.9518 8.07044C44.3527 8.18024 44.7743 8.19039 45.18 8.10001C45.5191 8.01366 45.8251 7.82932 46.06 7.57001C46.3064 7.28421 46.4751 6.93985 46.55 6.57001L46.88 6.69001L44.58 6.13001L44.84 4.96001L48.2 5.73001L48.02 6.73001C47.8871 7.37014 47.5869 7.96361 47.15 8.45001C46.7421 8.89617 46.2145 9.21554 45.63 9.37001C44.9643 9.51808 44.2729 9.50456 43.6135 9.33058C42.9541 9.1566 42.346 8.82722 41.84 8.37001C41.3398 7.88324 40.9922 7.2612 40.84 6.58001C40.6559 5.80412 40.6559 4.9959 40.84 4.22001C40.9984 3.43425 41.3411 2.69735 41.84 2.07001C42.2775 1.52497 42.8637 1.11862 43.5276 0.900286C44.1915 0.681948 44.9045 0.661008 45.58 0.840007C46.153 0.961426 46.6924 1.20722 47.16 1.56001C47.5902 1.89313 47.9333 2.32544 48.16 2.82001C48.3887 3.30997 48.4852 3.85121 48.44 4.39001L46.92 4.04001C46.9062 3.7515 46.8239 3.47042 46.68 3.22001Z" fill="#FFB600"/>
<path d="M51.8701 2.96001L56.7601 5.51001L56.1601 6.65001L52.6201 4.80001L51.5501 6.86001L54.8301 8.57001L54.2501 9.70001L50.9601 7.99001L49.8901 10.05L53.4401 11.91L52.8501 13.05L47.9401 10.48L51.8701 2.96001Z" fill="#FFB600"/>
</g>
<defs>
<clipPath id="clip0_2136_202">
<rect width="74.2" height="74.36" fill="white"/>
</clipPath>
</defs>
</svg>
