<svg width="22" height="22" viewBox="0 0 22 22" fill="none" xmlns="http://www.w3.org/2000/svg">
<path d="M6.90018 3.00226C7.28965 3.00226 7.67911 3.00226 8.06858 3.19734C8.56881 3.34881 9.0335 3.59959 9.43496 3.93473C9.83642 4.26987 10.1664 4.68252 10.4054 5.1481C9.90504 5.66131 9.51679 6.27322 9.26535 6.94492C9.01391 7.61661 8.90477 8.33337 8.94488 9.04961V8.95208C8.26221 8.93861 7.58365 9.06099 6.94853 9.31214C6.31342 9.56328 5.73437 9.93819 5.24494 10.4151C4.62597 10.1252 4.09404 9.67722 3.70256 9.1162C3.31108 8.55518 3.07384 7.90085 3.01464 7.21892C2.95545 6.53699 3.07639 5.85146 3.36533 5.23117C3.65426 4.61088 4.10102 4.07765 4.66074 3.68503C5.34685 3.21317 6.1658 2.9739 6.99755 3.00226H6.90018ZM12.5475 13.7314C11.7339 13.474 10.9968 13.0184 10.4021 12.4057C9.80741 11.7929 9.37363 11.0419 9.13962 10.2201C8.46775 10.1794 7.79683 10.3138 7.19228 10.6102C6.26604 11.0537 5.55205 11.8456 5.20561 12.8137C4.85917 13.7818 4.9083 14.8477 5.34231 15.7797C5.73294 16.5992 6.3967 17.2565 7.21917 17.6383C8.04165 18.0202 8.97133 18.1026 9.84799 17.8715C10.7246 17.6404 11.4934 17.1102 12.0217 16.3723C12.55 15.6343 12.8048 14.7349 12.7422 13.829L12.5475 13.7314ZM14.1053 4.85548C14.6168 4.85548 15.1232 4.9564 15.5958 5.15247C16.0683 5.34854 16.4976 5.63592 16.8593 5.99821C17.2209 6.3605 17.5078 6.7906 17.7035 7.26395C17.8993 7.73731 18 8.24464 18 8.757C18 9.26935 17.8993 9.77669 17.7035 10.25C17.5078 10.7234 17.2209 11.1535 16.8593 11.5158C16.4976 11.8781 16.0683 12.1655 15.5958 12.3615C15.1232 12.5576 14.6168 12.6585 14.1053 12.6585C13.0724 12.6585 12.0818 12.2475 11.3514 11.5158C10.621 10.7841 10.2107 9.79175 10.2107 8.757C10.2107 7.72225 10.621 6.72989 11.3514 5.99821C12.0818 5.26653 13.0724 4.85548 14.1053 4.85548Z" fill="white"/>
</svg>
