<svg width="23" height="22" viewBox="0 0 23 22" fill="none" xmlns="http://www.w3.org/2000/svg">
<path d="M18.9977 10.9922C18.9807 9.44841 18.5243 7.94151 17.6821 6.64867C16.8399 5.35583 15.6468 4.33078 14.2432 3.694C13.2016 3.22866 12.0727 2.9921 10.9323 3.0002C9.7919 3.0083 8.66644 3.26089 7.63154 3.74098C6.59664 4.22108 5.67628 4.91756 4.93228 5.78364C4.18829 6.64971 3.6379 7.66532 3.3181 8.76222C3.00278 9.85561 2.92069 11.0033 3.07716 12.1305C3.23363 13.2578 3.62516 14.3395 4.22628 15.3051C4.82741 16.2708 5.62466 17.0988 6.56619 17.7354C7.50771 18.372 8.57243 18.8029 9.69108 19V13.3236H7.66791V10.9922H9.69108V9.16767C9.6049 8.52895 9.73825 7.87985 10.0692 7.32717C10.4001 6.77448 10.9089 6.35113 11.5119 6.12674C11.9166 6.02538 12.3212 5.92402 12.7258 6.02538L14.4455 6.12674V8.15403H13.4339C13.1681 8.12003 12.8989 8.18335 12.6759 8.33233C12.4528 8.48131 12.291 8.70594 12.22 8.96494V10.9922H14.4455L14.0409 13.3236H12.22V19C14.1404 18.7049 15.8877 17.7188 17.1352 16.2263C18.3826 14.7338 19.0447 12.8371 18.9977 10.8909V10.9922Z" fill="white"/>
</svg>
