<svg width="23" height="22" viewBox="0 0 23 22" fill="none" xmlns="http://www.w3.org/2000/svg">
<path d="M16.5 6C16.3674 6 16.2402 6.05268 16.1464 6.14645C16.0527 6.24021 16 6.36739 16 6.5C16 6.63261 16.0527 6.75979 16.1464 6.85355C16.2402 6.94732 16.3674 7 16.5 7C16.6326 7 16.7598 6.94732 16.8536 6.85355C16.9473 6.75979 17 6.63261 17 6.5C17 6.36739 16.9473 6.24021 16.8536 6.14645C16.7598 6.05268 16.6326 6 16.5 6Z" fill="white"/>
<path fill-rule="evenodd" clip-rule="evenodd" d="M12.5 16C13.0909 16 13.6761 15.8836 14.2221 15.6575C14.768 15.4313 15.2641 15.0998 15.682 14.682C16.0998 14.2641 16.4313 13.768 16.6575 13.2221C16.8836 12.6761 17 12.0909 17 11.5C17 10.9091 16.8836 10.3239 16.6575 9.77792C16.4313 9.23196 16.0998 8.73588 15.682 8.31802C15.2641 7.90016 14.768 7.56869 14.2221 7.34254C13.6761 7.1164 13.0909 7 12.5 7C11.3065 7 10.1619 7.47411 9.31802 8.31802C8.47411 9.16193 8 10.3065 8 11.5C8 12.6935 8.47411 13.8381 9.31802 14.682C10.1619 15.5259 11.3065 16 12.5 16ZM12.5 14.4965C12.9091 14.5207 13.3188 14.4609 13.7039 14.321C14.0891 14.181 14.4416 13.9639 14.7398 13.6827C15.038 13.4016 15.2755 13.0625 15.4379 12.6863C15.6003 12.31 15.6841 11.9046 15.6841 11.4948C15.6841 11.085 15.6003 10.6795 15.4379 10.3033C15.2755 9.92701 15.038 9.58792 14.7398 9.30682C14.4416 9.02571 14.0891 8.80852 13.7039 8.66858C13.3188 8.52864 12.9091 8.4689 12.5 8.49304C11.7025 8.49304 10.9377 8.80984 10.3738 9.37376C9.80984 9.93767 9.49304 10.7025 9.49304 11.5C9.49304 12.2975 9.80984 13.0623 10.3738 13.6262C10.9377 14.1902 11.7025 14.507 12.5 14.507V14.4965Z" fill="white"/>
<path fill-rule="evenodd" clip-rule="evenodd" d="M4.01011 9.98862C4.01011 7.54109 4.01011 6.31732 4.47535 5.38685C4.89385 4.56322 5.56322 3.89385 6.38685 3.47535C7.31732 3 8.54109 3 10.9785 3H13.0215C15.4589 3 16.6827 3 17.6131 3.47535C18.4368 3.89385 19.1061 4.56322 19.5247 5.38685C20 6.31732 20 7.54109 20 9.97851V12.0215C20 14.4589 20 15.6827 19.5247 16.6131C19.1061 17.4368 18.4368 18.1061 17.6131 18.5247C16.6827 19 15.4589 19 13.0215 19H10.9785C8.54109 19 7.31732 19 6.38685 18.5247C5.56322 18.1061 4.89385 17.4368 4.47535 16.6131C4 15.6827 4 14.4589 4 12.0215V9.97851L4.01011 9.98862ZM10.9886 4.45638H13.0114C14.2655 4.45638 15.1049 4.45638 15.7623 4.51707C16.3995 4.56764 16.7231 4.65866 16.9558 4.76991C17.5019 5.0531 17.9469 5.4981 18.2301 6.04425C18.3413 6.27686 18.4324 6.60051 18.4829 7.23767C18.5436 7.89507 18.5436 8.73451 18.5436 9.97851V12.0215C18.5436 13.2655 18.5436 14.1049 18.4829 14.7623C18.4776 15.1729 18.3917 15.5783 18.2301 15.9558C17.9469 16.5019 17.5019 16.9469 16.9558 17.2301C16.7231 17.3413 16.3995 17.4324 15.7623 17.4829C15.1049 17.5436 14.2655 17.5436 13.0215 17.5436H10.9785C9.73451 17.5436 8.89507 17.5436 8.23767 17.4829C7.82715 17.4776 7.42166 17.3917 7.04425 17.2301C6.49544 16.9507 6.0493 16.5046 5.76991 15.9558C5.6083 15.5783 5.5224 15.1729 5.51707 14.7623C5.45638 14.1049 5.45638 13.2655 5.45638 12.0215V9.97851C5.45638 8.73451 5.45638 7.89507 5.51707 7.23767C5.56764 6.60051 5.65866 6.27686 5.76991 6.04425C6.0531 5.4981 6.4981 5.0531 7.04425 4.76991C7.27686 4.65866 7.60051 4.56764 8.23767 4.51707C8.89507 4.45638 9.73451 4.45638 10.9785 4.45638H10.9886Z" fill="white"/>
</svg>
