<svg width="23" height="22" viewBox="0 0 23 22" fill="none" xmlns="http://www.w3.org/2000/svg">
<path d="M6.85751 3C6.36486 3 5.8924 3.1962 5.54405 3.54543C5.1957 3.89466 5 4.36832 5 4.86221C5 5.3561 5.1957 5.82977 5.54405 6.179C5.8924 6.52823 6.36486 6.72443 6.85751 6.72443C7.35015 6.72443 7.82261 6.52823 8.17096 6.179C8.51931 5.82977 8.71501 5.3561 8.71501 4.86221C8.71501 4.36832 8.51931 3.89466 8.17096 3.54543C7.82261 3.1962 7.35015 3 6.85751 3ZM8.26209 7.49993H5.45293C5.32061 7.49993 5.21883 7.60196 5.21883 7.72441V16.7753C5.21883 16.8977 5.32061 16.9998 5.45293 16.9998H8.26209C8.38422 16.9998 8.48601 16.8977 8.48601 16.7753V7.72441C8.48601 7.60196 8.38422 7.49993 8.26209 7.49993ZM12.9338 8.31624C13.2504 7.97871 13.6341 7.71164 14.0602 7.53234C14.4862 7.35304 14.9451 7.26552 15.4071 7.27544C18.5623 7.27544 19 9.57132 19 11.8162V16.7753C19 16.8977 18.8982 16.9998 18.7659 16.9998H15.9669C15.9075 16.9998 15.8506 16.9761 15.8086 16.934C15.7666 16.8919 15.743 16.8348 15.743 16.7753V12.3774C15.743 11.1529 15.6412 10.204 14.5013 10.204C13.4529 10.204 13.0458 10.7856 13.0458 12.2958V16.7753C13.0458 16.8977 12.944 16.9998 12.8219 16.9998H10.0229C9.99265 17.0011 9.96244 16.9964 9.93408 16.9857C9.90573 16.975 9.87983 16.9587 9.85795 16.9377C9.83606 16.9168 9.81865 16.8915 9.80677 16.8636C9.79488 16.8357 9.78877 16.8056 9.7888 16.7753V7.72441C9.7888 7.60196 9.89059 7.49993 10.0229 7.49993H12.7099C12.8321 7.49993 12.9338 7.60196 12.9338 7.72441V8.31624Z" fill="white"/>
</svg>
