<svg width="22" height="22" viewBox="0 0 22 22" fill="none" xmlns="http://www.w3.org/2000/svg">
<path fill-rule="evenodd" clip-rule="evenodd" d="M9.58751 12.9048V7.71655L14.7052 10.3107L9.58751 12.9048ZM20.13 5.12245C19.8229 4.72336 19.3112 4.42404 18.697 4.22449C16.957 3.92517 6.10747 3.92517 4.36745 4.22449C3.85568 4.32426 3.44626 4.52381 3.03685 4.9229C1.50153 6.31973 2.0133 13.7029 2.42272 14.9002C2.52508 15.3991 2.72978 15.898 3.03685 16.0975C3.34391 16.3968 3.75333 16.5964 4.2651 16.6961C5.69805 16.9955 13.0676 17.195 18.5947 16.6961C19.2088 16.6961 19.6182 16.3968 20.0276 16.0975C21.3582 14.7007 21.2559 6.81859 20.13 5.12245Z" fill="white"/>
</svg>
