<svg width="100" height="56" viewBox="0 0 100 56" fill="none" xmlns="http://www.w3.org/2000/svg">
<path d="M6.01599 21.08C5.35155 21.0799 4.69361 21.2107 4.07976 21.4649C3.4659 21.7192 2.90817 22.0919 2.43844 22.5619C1.96871 23.0318 1.59619 23.5897 1.34216 24.2036C1.08814 24.8176 0.957592 25.4756 0.957986 26.14C0.957592 26.8044 1.08814 27.4624 1.34216 28.0764C1.59619 28.6903 1.96871 29.2482 2.43844 29.7181C2.90817 30.188 3.4659 30.5608 4.07976 30.8151C4.69361 31.0693 5.35155 31.2001 6.01599 31.2C6.6805 31.2003 7.33855 31.0696 7.95252 30.8153C8.56649 30.5611 9.12434 30.1884 9.59418 29.7185C10.064 29.2486 10.4366 28.6906 10.6907 28.0766C10.9448 27.4626 11.0754 26.8045 11.075 26.14C11.0754 25.4755 10.9448 24.8174 10.6907 24.2034C10.4366 23.5894 10.064 23.0314 9.59418 22.5615C9.12434 22.0916 8.56649 21.7189 7.95252 21.4647C7.33855 21.2104 6.6805 21.0797 6.01599 21.08ZM6.01599 28.78C4.56599 28.78 3.38599 27.6 3.38599 26.15C3.38599 24.699 4.56599 23.519 6.01599 23.519C7.46599 23.519 8.64599 24.699 8.64599 26.149C8.64599 27.6 7.46599 28.779 6.01599 28.779V28.78ZM39.65 21.08C38.9856 21.0799 38.3276 21.2107 37.7138 21.4649C37.0999 21.7192 36.5422 22.0919 36.0724 22.5619C35.6027 23.0318 35.2302 23.5897 34.9762 24.2036C34.7221 24.8176 34.5916 25.4756 34.592 26.14C34.5916 26.8045 34.7222 27.4626 34.9763 28.0766C35.2303 28.6906 35.603 29.2486 36.0728 29.7185C36.5426 30.1884 37.1005 30.5611 37.7145 30.8153C38.3284 31.0696 38.9865 31.2003 39.651 31.2C40.3154 31.2001 40.9734 31.0693 41.5872 30.8151C42.2011 30.5608 42.7588 30.188 43.2285 29.7181C43.6983 29.2482 44.0708 28.6903 44.3248 28.0764C44.5788 27.4624 44.7094 26.8044 44.709 26.14C44.7094 25.4756 44.5788 24.8176 44.3248 24.2036C44.0708 23.5897 43.6983 23.0318 43.2285 22.5619C42.7588 22.0919 42.2011 21.7192 41.5872 21.4649C40.9734 21.2107 40.3144 21.0799 39.65 21.08ZM39.65 28.78C38.2 28.78 37.021 27.6 37.021 26.15C37.021 24.699 38.201 23.519 39.651 23.519C41.101 23.519 42.281 24.699 42.281 26.149C42.281 27.6 41.101 28.779 39.651 28.779L39.65 28.78ZM61.134 28.631C60.4994 28.6309 59.8709 28.7558 59.2846 28.9987C58.6983 29.2415 58.1656 29.5975 57.717 30.0464C57.2683 30.4952 56.9125 31.0281 56.6699 31.6145C56.4273 32.2009 56.3026 32.8294 56.303 33.464C56.3019 34.0987 56.4261 34.7274 56.6684 35.3141C56.9108 35.9007 57.2665 36.4338 57.7151 36.8827C58.1638 37.3317 58.6967 37.6877 59.2832 37.9304C59.8696 38.1731 60.4983 38.2977 61.133 38.297C61.7679 38.2979 62.3967 38.1735 62.9834 37.931C63.5702 37.6884 64.1032 37.3324 64.5521 36.8834C65.001 36.4345 65.3569 35.9013 65.5993 35.3145C65.8418 34.7277 65.966 34.0989 65.965 33.464C65.966 32.8292 65.8418 32.2004 65.5994 31.6137C65.357 31.027 65.0013 30.4939 64.5525 30.0449C64.1037 29.5959 63.5707 29.2399 62.9841 28.9973C62.3975 28.7547 61.7688 28.6302 61.134 28.631ZM61.134 35.972C60.4688 35.972 59.8309 35.7078 59.3606 35.2374C58.8902 34.7671 58.626 34.1292 58.626 33.464C58.626 32.7988 58.8902 32.1609 59.3606 31.6906C59.8309 31.2202 60.4688 30.956 61.134 30.956C61.7985 30.9578 62.4352 31.2227 62.905 31.6927C63.3748 32.1626 63.6394 32.7995 63.641 33.464C63.6394 34.1285 63.3748 34.7653 62.905 35.2353C62.4352 35.7053 61.7985 35.9701 61.134 35.972ZM14.42 20.53V20.224H11.694V20.53H12.087V35.561H14.42V27.54H16.761V25.364H14.42V20.53ZM29.212 20.224V20.53H29.605V35.561H31.937V20.224H29.212ZM48.133 20.53V20.224H45.407V20.53H45.801V35.561H48.133V27.54H50.387V25.364H48.133V20.53ZM63.317 20.224V20.53H63.702V22.016H61.212V24.192H63.702V25.362H61.212V27.539H63.702V29.025H66.043V20.224H63.317ZM77.173 20.224V20.53H77.558V24.812H75.418V26.997H77.558V35.561H79.899V20.224H77.173ZM80.755 20.224V20.53H81.139V35.561H83.481V20.224H80.755ZM60.278 23.02V20.688H52.337V23.021H57.631C57.631 23.021 57.395 26.141 51.481 27.853L52.957 29.488C52.957 29.488 55.797 28.788 57.351 27.618C58.906 26.447 60.269 24.507 60.269 23.021L60.278 23.02Z" fill="#111111"/>
<path d="M73.67 24.891V23.178H76.16V20.766H68.76V23.178H71.329V24.891C71.329 24.891 71.469 27.443 67.747 29.794L69.38 31.506C69.38 31.506 71.722 30.038 72.49 28.334C73.268 30.038 75.6 31.506 75.6 31.506L77.234 29.794C73.417 27.382 73.653 24.891 73.653 24.891H73.67ZM24.703 24.428V20.608H21.549V21.002H21.899V24.454C21.899 24.454 22.397 26.997 17.854 30.117L19.487 31.83C19.487 31.83 22.659 29.671 23.532 27.862C24.38 29.628 27.35 31.515 27.35 31.515L28.984 29.802C24.467 26.919 24.703 24.428 24.703 24.428Z" fill="#111111"/>
<path d="M89.788 16.947V25.206L98.586 29.331V16.09L89.788 16.946V16.947ZM96.708 26.298L91.44 23.773V18.853L96.708 18.258V26.298Z" fill="#EA1D23"/>
</svg>
