<svg width="56" height="56" viewBox="0 0 56 56" fill="none" xmlns="http://www.w3.org/2000/svg">
<path d="M48.67 17.3C43.27 15.1 37.67 15.3 36.27 17.9C34.87 20.5 36.97 26.5 40.87 31.6C44.77 36.6 50.27 36.4 53.37 30.9C56.37 25.4 54.27 19.4 48.77 17.3H48.67Z" fill="#F78F31"/>
<path d="M20.67 19C25.67 22.4 31.07 23.4 33.07 21.2C35.07 19 34.27 12.7 31.57 6.89997C28.87 1.09997 23.57 0.0999715 19.27 4.79997C15.17 9.39997 15.87 15.8 20.77 19.1" fill="#2570B8"/>
<path d="M38.27 36.6C37.47 30.7 34.57 26 31.67 26C28.67 26 24.47 30.8 21.97 36.6C19.47 42.5 22.27 47.3 28.57 47.2C34.87 47.2 39.07 42.5 38.27 36.6Z" fill="#E32D30"/>
<path d="M15.97 21.4C14.97 21.4 14.27 22 14.27 22.9V23.9H16.67V32.4C16.57 33.3 16.37 34.6 14.87 35.3C13.57 35.9 13.57 36.5 13.47 37C13.47 37.6 13.47 37.7 13.97 37.6C15.87 37.1 17.97 36.4 18.97 34.6C19.47 33.5 19.67 32.4 19.67 30.8V23.8C20.67 23.8 21.37 23.2 21.37 22.3V21.3H15.97V21.4ZM13.27 31.9C13.27 31.9 11.37 34.6 7.66998 34.6C4.06998 34.6 1.06998 31.7 1.06998 27.8C1.06998 24 3.86998 21 7.66998 21C11.57 21 13.27 23.7 13.27 23.7C13.27 23.7 12.27 24.8 11.27 24.8C10.77 24.8 10.47 24.6 10.07 24.3C9.36531 23.8162 8.52422 23.5709 7.66998 23.6C5.56998 23.6 3.76998 25.6 3.76998 27.9C3.76998 30.2 5.66998 32 7.76998 32C8.96998 32 9.56998 31.6 10.17 31.3C10.47 31.1 10.87 30.9 11.37 30.9C12.47 30.9 13.37 31.9 13.37 31.9H13.27Z" fill="#111111"/>
</svg>
