<svg width="58" height="56" viewBox="0 0 58 56" fill="none" xmlns="http://www.w3.org/2000/svg">
<path d="M1.06998 31H8.36998V37.5L10.97 36.5V31H18.37V28.8H1.06998V31ZM15.87 27V24.8H6.06998V20.6H15.87V18.4H3.46998V27H15.87ZM56.87 28.8H39.37V31H46.77V37.5L49.27 36.5V31H56.67V28.8H56.87ZM34.97 17.8H32.47V28.4L28.67 29.9H23.67V18.9H21.07V32.1H28.67L29.27 32L32.37 30.7001V37.5L34.97 36.5V27H37.77V25H34.97V17.9V17.8ZM51.07 27.1L54.57 25.7001V18.4H41.67V27.1H51.17H51.07ZM52.07 20.6V24.4L50.67 25H44.17V20.6H52.07Z" fill="#033D8A"/>
</svg>
