<svg width="97" height="56" viewBox="0 0 97 56" fill="none" xmlns="http://www.w3.org/2000/svg">
<path d="M68.27 25.4C66.71 26.1759 65.4459 27.44 64.67 29C62.67 32.9 64.07 37 68.37 37C72.57 37 74.87 34.3 75.67 33.5L76.57 32.5C76.57 32.3 76.87 32.5 76.77 32.6L76.47 33.2C75.87 34.2 76.07 35.7 77.07 36.4C77.47 36.8 78.07 37 79.07 37C81.67 37 83.87 35 84.87 33.9C85.1853 33.5117 85.4856 33.1114 85.77 32.7C85.77 32.6 86.07 32.7 85.97 32.9L85.87 33.3C85.47 34 85.47 34.8 85.77 35.5C86.17 36.4 86.97 37.1 88.27 37.1C89.27 37.1 91.07 36.5 92.67 35.1C95.87 32.1 96.17 29.6 95.87 29C95.37 27.3 93.37 28.3 91.37 29.7C91.27 29.7 91.07 29.7 91.17 29.5C91.77 28.2 92.87 25.2 91.77 23.5C90.47 21.6 87.87 22.8 85.27 24.8C85.17 24.8 84.97 24.8 85.07 24.6C85.47 23.3 86.37 20 84.87 18.6C81.47 15.1 74.27 24.3 72.17 27.1C72.07 27.2 71.87 27.1 71.87 27V25.8C71.57 24.6 69.77 24.7 68.37 25.4H68.27Z" fill="#111111"/>
<path d="M73.77 22.5C75.17 21.1 75.37 19.3 74.37 18.3C73.37 17.3 71.57 17.7 70.17 19.1C68.87 20.4 68.57 22.3 69.57 23.3C70.57 24.3 72.47 23.9 73.77 22.5ZM32.47 24.5L34.47 30.5L36.17 24.5H39.17L36.07 34.6H33.07L30.67 28.1L28.67 34.6H25.47L22.37 24.6H25.57L27.27 30.5L29.27 24.5H32.47ZM48.87 31.7C48.37 33.5 46.77 34.9 44.17 34.9C41.47 34.9 38.97 32.9 38.97 29.5C38.97 26.2 41.37 24.2 43.97 24.2C47.07 24.2 48.97 26.2 48.97 29.4V30.4H41.97C41.97 31.4 42.97 32.3 44.27 32.3C45.27 32.3 45.97 31.8 46.27 31L48.87 31.7ZM46.07 28.4C46.07 27.6 45.47 26.7 44.07 26.7C43.5877 26.6945 43.1196 26.8636 42.7521 27.176C42.3846 27.4884 42.1423 27.9231 42.07 28.4H46.07ZM50.17 34.6V20H53.17V25.6C53.57 25 54.67 24.4 56.07 24.4C59.07 24.4 60.77 26.6 60.77 29.6C60.77 32.6 58.77 34.9 55.97 34.9C54.57 34.9 53.57 34.3 53.07 33.6V34.7H50.07L50.17 34.6ZM55.37 27.1C54.17 27.1 53.07 27.9 53.07 29.6C53.07 31.3 54.17 32.1 55.37 32.1C56.57 32.1 57.67 31.2 57.67 29.6C57.67 27.9 56.67 27.1 55.37 27.1ZM6.37001 34.5V24.5H9.37001V25.5C9.87001 24.7 11.17 24.1 12.27 24.1C13.67 24.1 14.67 24.7 15.27 25.7C15.5929 25.2003 16.0378 24.7912 16.5627 24.5112C17.0876 24.2313 17.6752 24.0898 18.27 24.1C20.27 24.1 22.07 25.2 22.07 28V34.5H19.07V28.7C19.07 27.7 18.57 27 17.47 27C16.47 27 15.77 27.8 15.77 28.7V34.5H12.77V28.7C12.77 27.7 12.27 27 11.17 27C10.07 27 9.47001 27.8 9.47001 28.7V34.5H6.47001H6.37001ZM4.87001 24.4H1.67001V34.5H4.67001V24.5L4.87001 24.4ZM5.17001 21.7C5.17001 22.1774 4.98036 22.6352 4.6428 22.9728C4.30523 23.3104 3.8474 23.5 3.37001 23.5C2.89262 23.5 2.43478 23.3104 2.09722 22.9728C1.75965 22.6352 1.57001 22.1774 1.57001 21.7C1.57001 21.2226 1.75965 20.7648 2.09722 20.4272C2.43478 20.0896 2.89262 19.9 3.37001 19.9C3.8474 19.9 4.30523 20.0896 4.6428 20.4272C4.98036 20.7648 5.17001 21.2226 5.17001 21.7Z" fill="#111111"/>
</svg>
