<svg width="69" height="56" viewBox="0 0 69 56" fill="none" xmlns="http://www.w3.org/2000/svg">
<path fill-rule="evenodd" clip-rule="evenodd" d="M19.37 33.4C19.67 33.4 20.07 33.4 20.37 33.2C21.0701 33.0259 21.743 32.7568 22.37 32.4L23.07 31.8V28.7H20.77C19.57 28.7 18.77 28.9 18.17 29.3C17.57 29.7 17.27 30.3 17.27 31.3C17.27 32.6 17.97 33.3 19.37 33.3V33.4ZM15.17 31.4C15.17 30 15.57 28.9 16.47 28.2C17.47 27.5 18.77 27.2 20.47 27.2H23.07V26.2C23.07 24.2 22.17 23.2 20.37 23.2C19.77 23.2 19.17 23.2 18.47 23.4L16.67 24L16.07 22.4C17.4143 21.641 18.9265 21.2286 20.47 21.2C23.67 21.2 25.27 22.9 25.27 26.3V35H23.57L23.27 33.5C22.6349 34.0041 21.9268 34.4088 21.17 34.7C20.4749 35.0043 19.7283 35.174 18.97 35.2C17.77 35.2 16.87 34.8 16.17 34.2C15.47 33.5 15.17 32.5 15.17 31.3M37.67 21.1L39.37 22.4L35.07 27.9L40.07 33.9L38.37 35.3L32.37 28L37.67 21.1ZM31.57 35H29.27V15.9L31.57 15.4V35ZM46.37 33.4C46.67 33.4 46.97 33.4 47.37 33.2C48.0701 33.0259 48.743 32.7568 49.37 32.4L50.07 31.8V28.7H47.67C46.47 28.7 45.67 28.9 45.07 29.3C44.57 29.7 44.27 30.3 44.27 31.3C44.27 32.6 44.97 33.3 46.27 33.3L46.37 33.4ZM42.07 31.4C42.07 30 42.57 28.9 43.47 28.2C44.47 27.5 45.67 27.2 47.47 27.2H50.07V26.2C50.07 24.2 49.07 23.2 47.27 23.2C46.67 23.2 46.07 23.2 45.47 23.4L43.67 24L42.97 22.4C44.3439 21.6248 45.8925 21.2119 47.47 21.2C50.67 21.2 52.27 22.9 52.27 26.3V35H50.57L50.27 33.5C49.6349 34.0041 48.9268 34.4088 48.17 34.7C47.4749 35.0043 46.7283 35.174 45.97 35.2C44.77 35.2 43.77 34.8 43.17 34.2C42.47 33.5 42.17 32.5 42.17 31.3M61.37 23C60.17 23 59.27 23.5 58.67 24.4C57.97 25.3 57.67 26.6 57.67 28.3C57.67 30 57.97 31.3 58.67 32.1C59.27 33 60.17 33.4 61.37 33.4C62.57 33.4 63.47 33 64.07 32.1C64.77 31.3 65.07 30 65.07 28.3C65.07 26.6 64.77 25.3 64.07 24.4C63.7602 23.9794 63.3522 23.641 62.8816 23.4144C62.4109 23.1878 61.892 23.0799 61.37 23.1V23ZM61.37 21.2C63.27 21.2 64.67 21.9 65.77 23.1C66.77 24.3 67.37 26.1 67.37 28.3C67.37 30.5 66.87 32.3 65.77 33.4C65.2135 34.0044 64.5309 34.479 63.7705 34.7901C63.0101 35.1012 62.1905 35.2411 61.37 35.2C59.47 35.2 57.97 34.6 56.97 33.4C55.87 32.2 55.37 30.5 55.37 28.3C55.37 26 55.87 24.3 56.97 23.1C57.97 21.9 59.47 21.2 61.37 21.2ZM4.67 15.4L2.37 15.9V34.9H4.57V15.5L4.67 15.4ZM5.26999 28L11.27 35.3L13.07 33.9L8.06999 27.9L12.37 22.4L10.57 21.1L5.36999 28H5.26999Z" fill="#111111"/>
</svg>
