<svg width="101" height="56" viewBox="0 0 101 56" fill="none" xmlns="http://www.w3.org/2000/svg">
<path d="M23.67 29.1001L19.17 22.0001H16.37V31.0001H9.67C8.93263 31.0291 8.19776 30.8977 7.5161 30.6151C6.83444 30.3324 6.22224 29.9052 5.72175 29.3629C5.22127 28.8207 4.84442 28.1762 4.61723 27.4741C4.39004 26.7721 4.31792 26.029 4.40584 25.2964C4.49376 24.5637 4.73963 23.8588 5.12648 23.2304C5.51333 22.602 6.03195 22.065 6.64652 21.6566C7.26109 21.2481 7.95699 20.9779 8.68616 20.8645C9.41534 20.7512 10.1604 20.7974 10.87 21.0001C10.2963 20.1971 9.92952 19.2651 9.80213 18.2865C9.67473 17.308 9.79066 16.3131 10.1396 15.3901C10.4886 14.467 11.0599 13.6443 11.8028 12.9948C12.5458 12.3453 13.4374 11.8891 14.3988 11.6665C15.3602 11.444 16.3616 11.462 17.3144 11.719C18.2672 11.976 19.1418 12.464 19.8609 13.1398C20.58 13.8156 21.1213 14.6583 21.4369 15.5933C21.7524 16.5283 21.8325 17.5267 21.67 18.5001C22.101 18.0988 22.6214 17.8062 23.1882 17.6466C23.755 17.487 24.3517 17.4649 24.9287 17.5823C25.5057 17.6996 26.0464 17.953 26.5058 18.3214C26.9652 18.6897 27.33 19.1624 27.57 19.7001H30.57C29.87 17.0001 27.47 14.9001 24.57 14.7001C23.859 12.573 22.3955 10.779 20.4547 9.65516C18.5138 8.53134 16.2293 8.15517 14.0306 8.59737C11.8319 9.03957 9.87049 10.2697 8.51502 12.0564C7.15955 13.8432 6.50343 16.0635 6.67 18.3001C4.96739 19.097 3.58133 20.4421 2.73363 22.1201C1.88594 23.798 1.6256 25.7118 1.99428 27.5552C2.36296 29.3986 3.33935 31.0651 4.7672 32.2879C6.19505 33.5107 7.99182 34.2192 9.87 34.3001H19.67V28.0001L22.67 33.0001H24.17L27.37 27.7001V34.3001H30.67V22.0001H27.67L23.67 29.0001V29.1001ZM44.17 23.3001C43.57 22.7001 42.87 22.3001 42.07 21.9001C41.17 21.6001 40.27 21.4001 39.27 21.4001C38.27 21.4001 37.27 21.6001 36.47 21.9001C35.6742 22.1992 34.946 22.654 34.3278 23.2378C33.7097 23.8215 33.2141 24.5226 32.87 25.3001C32.57 26.1 32.37 27.0001 32.37 27.9001C32.3764 28.762 32.5569 29.6137 32.9006 30.4042C33.2442 31.1946 33.744 31.9075 34.37 32.5001C34.97 33.1001 35.67 33.5001 36.47 33.9001C37.37 34.2001 38.27 34.4001 39.27 34.4001C40.27 34.4001 41.27 34.2001 42.07 33.9001C43.6716 33.2861 44.9656 32.064 45.67 30.5001C45.97 29.7001 46.17 28.8001 46.17 27.9001C46.1755 27.0363 46.0004 26.1809 45.656 25.3888C45.3115 24.5966 44.8054 23.8852 44.17 23.3001ZM42.37 29.3001C42.2203 29.7137 41.9814 30.0894 41.6704 30.4004C41.3593 30.7115 40.9837 30.9503 40.57 31.1001C39.7461 31.4564 38.8188 31.492 37.97 31.2001C37.5922 31.0377 37.2518 30.7994 36.97 30.5001C36.57 30.2001 36.37 29.8001 36.17 29.3001C35.9866 28.8552 35.885 28.381 35.87 27.9001L36.17 26.4001C36.37 26.0001 36.57 25.6001 36.87 25.4001C37.1419 25.0645 37.483 24.7916 37.87 24.6001C38.7359 24.2498 39.7041 24.2498 40.57 24.6001C40.97 24.8001 41.37 25.0001 41.57 25.3001C41.97 25.6 42.17 26.0001 42.37 26.4001C42.57 26.9001 42.57 27.4001 42.57 27.9001C42.57 28.4001 42.57 28.9001 42.37 29.3001ZM51.47 22.0001H47.97V34.4001H57.37V31.6001H51.47V21.9001V22.0001ZM69.97 23.3001C69.37 22.7001 68.67 22.3001 67.77 21.9001C65.9992 21.223 64.0408 21.223 62.27 21.9001C61.4742 22.1992 60.746 22.654 60.1278 23.2378C59.5097 23.8215 59.0141 24.5226 58.67 25.3001C58.27 26.1 58.17 27.0001 58.17 27.9001C58.1764 28.762 58.3569 29.6137 58.7006 30.4042C59.0442 31.1946 59.544 31.9075 60.17 32.5001C60.77 33.1001 61.47 33.5001 62.27 33.9001C63.17 34.2001 64.07 34.4001 65.07 34.4001C66.07 34.4001 66.97 34.2001 67.77 33.9001C68.5815 33.6072 69.3266 33.1558 69.9618 32.5721C70.5971 31.9883 71.1098 31.284 71.47 30.5001C71.77 29.7001 71.97 28.8001 71.97 27.9001C71.9755 27.0363 71.8004 26.1809 71.456 25.3888C71.1115 24.5966 70.6054 23.8852 69.97 23.3001ZM68.17 29.3001C68.0203 29.7137 67.7814 30.0894 67.4704 30.4004C67.1593 30.7115 66.7836 30.9503 66.37 31.1001C65.5171 31.4827 64.5488 31.5185 63.67 31.2001C63.2922 31.0377 62.9518 30.7994 62.67 30.5001C62.37 30.2001 62.07 29.8001 61.97 29.3001C61.7979 28.8866 61.6965 28.4471 61.67 28.0001L61.97 26.5001C62.07 26.1001 62.37 25.7001 62.67 25.5001C62.9419 25.1645 63.283 24.8916 63.67 24.7001C64.5359 24.3498 65.5041 24.3498 66.37 24.7001C66.77 24.9001 67.17 25.1001 67.37 25.4001C67.77 25.7001 67.97 26.1001 68.17 26.5001L68.37 28.0001C68.37 28.5001 68.37 29.0001 68.17 29.4001V29.3001ZM77.87 25.3001C78.1809 24.9889 78.5564 24.7499 78.97 24.6001C79.4519 24.4177 79.9651 24.3327 80.48 24.3499C80.9949 24.367 81.5013 24.4861 81.97 24.7001C82.47 25.0001 82.97 25.3001 83.37 25.8001L85.57 23.8001C84.9633 23.0198 84.1732 22.4014 83.27 22.0001C82.37 21.6001 81.27 21.4001 80.27 21.4001C79.27 21.4001 78.27 21.6001 77.47 21.9001C76.6742 22.1992 75.946 22.654 75.3279 23.2378C74.7097 23.8215 74.2141 24.5226 73.87 25.3001C73.57 26.1 73.37 27.0001 73.37 27.9001C73.3687 28.7779 73.5452 29.647 73.889 30.4547C74.2327 31.2625 74.7365 31.9923 75.37 32.6C75.97 33.1 76.67 33.6001 77.47 33.9001C78.37 34.2001 79.27 34.4001 80.17 34.4001C81.37 34.4001 82.37 34.2001 83.27 33.8001C84.27 33.3001 84.97 32.8001 85.57 32.0001L83.37 30.0001C82.97 30.5001 82.47 30.8001 81.97 31.0001C81.57 31.3001 80.97 31.5001 80.37 31.5001C79.87 31.5001 79.37 31.4001 78.97 31.2001C78.5922 31.0377 78.2518 30.7994 77.97 30.5001C77.57 30.2001 77.37 29.8001 77.17 29.4001C77.0085 28.9173 76.9406 28.4082 76.97 27.9001C76.97 27.4001 76.97 26.9001 77.17 26.5001C77.37 26.0001 77.57 25.6 77.87 25.3001ZM99.47 25.3001C98.7656 23.7361 97.4716 22.514 95.87 21.9001C94.0992 21.223 92.1408 21.223 90.37 21.9001C89.5742 22.1992 88.846 22.654 88.2279 23.2378C87.6097 23.8215 87.1141 24.5226 86.77 25.3001C86.2372 26.499 86.0858 27.8327 86.3362 29.1205C86.5866 30.4083 87.2268 31.5881 88.17 32.5001C88.77 33.1001 89.57 33.5001 90.37 33.9001C91.17 34.2001 92.07 34.4001 93.17 34.4001C94.17 34.4001 95.07 34.2001 95.87 33.9001C96.6658 33.6009 97.394 33.1461 98.0121 32.5623C98.6303 31.9786 99.1259 31.2775 99.47 30.5001C99.8465 29.685 100.041 28.7979 100.041 27.9001C100.041 27.0022 99.8465 26.1151 99.47 25.3001ZM96.17 29.3001C96.07 29.8001 95.77 30.2001 95.47 30.5001C95.1882 30.7994 94.8478 31.0377 94.47 31.2001C93.6041 31.5503 92.6359 31.5503 91.77 31.2001C91.3922 31.0377 91.0518 30.7994 90.77 30.5001C90.47 30.2001 90.17 29.8001 90.07 29.3001C89.8634 28.8927 89.7281 28.453 89.67 28.0001C89.67 27.5001 89.67 27.0001 89.97 26.5001C90.07 26.1001 90.37 25.7001 90.67 25.5001C90.9419 25.1645 91.283 24.8916 91.67 24.7001C92.5359 24.3498 93.5041 24.3498 94.37 24.7001L95.37 25.4001C95.67 25.7001 95.97 26.1001 96.07 26.5001L96.37 28.0001C96.37 28.5001 96.37 29.0001 96.07 29.4001L96.17 29.3001Z" fill="#0280FB"/>
</svg>
