<svg width="180" height="56" viewBox="0 0 180 56" fill="none" xmlns="http://www.w3.org/2000/svg">
<path d="M61.47 28.6L66.37 34.3H62.97C62.8616 34.3092 62.7525 34.2962 62.6494 34.2619C62.5462 34.2275 62.4511 34.1724 62.37 34.1L58.17 29L57.77 28.8V33.9001C57.77 34.2001 57.57 34.4 57.17 34.3H55.17C54.87 34.3 54.77 34.3 54.77 34V21.8C54.77 21.5 54.77 21.4 55.07 21.4H60.77C61.77 21.4 62.77 21.8 63.57 22.4C64.77 23.2 65.17 24.8001 64.57 26.1C64.07 27.4001 63.07 28.1 61.87 28.5H61.47V28.6ZM57.67 25V27.4C57.67 27.7 57.67 27.8 58.07 27.8H59.87C60.27 27.8 60.57 27.6 60.87 27.5C61.87 26.9 62.37 25.6 62.07 24.3C61.87 23.1 61.07 22.4 59.97 22.3H58.07C57.77 22.3 57.67 22.3001 57.67 22.6V25ZM2.66998 24.2001V34C2.66998 34.3 2.66998 34.5 2.26998 34.5C1.66998 34.5 1.36998 34.2001 1.36998 33.7001V21.9C1.36998 21.6 1.56998 21.4 1.96998 21.4H3.66998C3.96998 21.4 4.16998 21.4001 4.26998 21.7001L10.97 29.4L11.17 29.8L11.27 29.7001V21.8C11.27 21.5 11.37 21.3 11.77 21.3C12.67 21.3 12.67 21.3 12.67 22.3V33.9001C12.67 34.4001 12.67 34.3001 12.17 34.4001C11.57 34.4001 11.17 34.2 10.87 33.8L2.96998 24.4L2.86998 24.1L2.66998 24.2001ZM51.57 26.2001V30.4C51.57 32.2 50.77 33.5 49.07 34.3C48.07 34.7 47.07 34.8 46.07 34.8C44.87 34.8 43.77 34.6 42.77 34.1C41.07 33.1 40.37 31.7 40.37 29.9V21.9C40.37 21.6 40.37 21.5 40.77 21.5H42.77C43.27 21.5 43.27 21.5 43.27 22V30C43.27 31.1 43.67 32.2 44.67 32.8C46.27 33.8 48.87 33.3 49.77 31.8C50.07 31.3 50.17 30.8001 50.17 30.2001V22C50.17 21.5 50.17 21.5 50.67 21.5C51.27 21.5 51.57 21.8 51.57 22.5V26.2001ZM68.07 27.9V21.9C68.07 21.6 68.07 21.5 68.47 21.5H76.47C76.97 21.5 76.97 21.5 76.97 22C76.97 23 77.07 22.8 76.17 22.8H71.47C71.07 22.8 70.97 22.8001 70.97 23.2001V27.2001C70.97 27.5001 71.07 27.6 71.37 27.6H76.17C76.67 27.6 76.67 27.6 76.67 28.1C76.67 28.9001 76.67 28.8 75.87 28.8H71.47C71.07 28.8 70.97 28.8 70.97 29.3V32.6C70.97 32.9 71.07 33 71.37 33H76.87C77.27 33 77.37 33.1 77.37 33.5C77.37 34.5 77.47 34.3 76.47 34.3H68.47C68.17 34.3 68.07 34.3001 68.07 33.9001V27.9ZM27.57 34.4001H24.57C24.37 34.4001 24.27 34.2 24.17 34.1L22.77 30.9C22.57 30.6 22.47 30.5 22.17 30.5H17.87C17.57 30.5 17.47 30.5 17.37 30.9L15.97 34C15.97 34.3 15.77 34.4001 15.47 34.4001H14.47L14.67 33.9001L19.87 21.9C19.97 21.6 20.17 21.5 20.47 21.5C21.27 21.3 21.67 21.7 22.07 22.5L27.37 34L27.57 34.4001ZM21.97 29.2001L20.07 25L19.87 25.2001L18.27 29C18.07 29.3 18.27 29.4 18.47 29.4H21.97V29.2001ZM32.17 21.5H37.77C38.17 21.5 38.27 21.6 38.27 22V22.6C38.27 22.9 38.17 23 37.87 23H34.17C33.87 23 33.77 23 33.77 23.4V33.8C33.77 34.2 33.57 34.4001 33.17 34.4001H31.17C30.87 34.4001 30.77 34.3001 30.77 33.9001V23.4C30.77 23.1 30.57 22.9 30.27 22.9H26.57C26.27 22.9 26.07 22.9 26.17 22.5V22C26.17 21.7 26.17 21.6 26.57 21.6H32.17V21.5ZM92.97 28.7001L97.97 34.5H94.67C94.5147 34.5 94.3616 34.4639 94.2228 34.3945C94.0839 34.3251 93.9631 34.2242 93.87 34.1L89.87 29.4L89.57 29L89.37 28.9L89.27 29.2001V34C89.27 34.3 89.17 34.4001 88.87 34.4001H86.67C86.37 34.4001 86.27 34.3 86.27 34V22C86.27 21.6 86.37 21.5 86.77 21.5H91.47C92.57 21.5 93.67 21.7001 94.67 22.2001C96.67 23.2001 96.87 26 95.37 27.4C94.77 28 93.97 28.4001 92.97 28.7001ZM89.27 25.3V27.7001C89.27 28.0001 89.27 28.1 89.57 28.1H91.27C91.87 28.1 92.37 27.8 92.77 27.4C93.67 26.6 93.77 25.6 93.57 24.4C93.37 23.4 92.57 22.7 91.57 22.6L89.57 22.5C89.27 22.5 89.17 22.6 89.17 22.9V25.3H89.27ZM145.47 27.6L146.77 28.2001C148.77 29.4001 148.77 32.2 146.87 33.5C145.87 34.3 144.67 34.5 143.47 34.5H138.47C138.17 34.5 138.07 34.5 138.07 34.1V22C138.07 21.7 138.07 21.5 138.57 21.5L143.47 21.6C144.47 21.6 145.47 22 146.17 22.6C146.536 22.8658 146.832 23.2162 147.033 23.6213C147.234 24.0264 147.333 24.4741 147.324 24.9262C147.314 25.3783 147.195 25.8212 146.976 26.2172C146.758 26.6132 146.447 26.9504 146.07 27.2001L145.47 27.6ZM140.97 31V33.2001C140.97 33.4001 140.97 33.6 141.27 33.6H143.47C144.77 33.4 145.57 32.4001 145.57 31.1C145.57 29.6 144.87 28.7 143.57 28.5H141.37C141.07 28.4 140.97 28.5 140.97 28.8V31ZM140.97 25V27.2001C140.97 27.4001 140.97 27.5 141.27 27.5H142.27C143.37 27.4 144.27 26.6 144.47 25.5C144.67 24 144.17 22.7 142.47 22.5L141.27 22.3C141.07 22.3 140.97 22.4001 140.97 22.7001V24.9V25ZM134.87 26.3V30.4C134.87 31.4 134.67 32.4001 134.07 33.2001C133.37 34.0001 132.47 34.6 131.37 34.8C129.97 35.1 128.47 35 127.07 34.6C124.97 34 123.67 32.3001 123.67 30.2001V22C123.67 21.6 123.77 21.5 124.17 21.6H126.17C126.57 21.6 126.67 21.6 126.67 22V29.5C126.67 30.1 126.67 30.6 126.87 31.1C127.17 32.2001 127.87 32.9 128.87 33.1C129.453 33.2905 130.071 33.3444 130.678 33.2577C131.285 33.171 131.864 32.946 132.37 32.6C133.17 32 133.57 31.1 133.47 30.1V22.1C133.47 21.6 133.47 21.5 134.07 21.6C135.07 21.6 134.87 21.4 134.87 22.4V26.2001V26.3ZM111.67 28V22C111.67 21.6 111.67 21.5 112.17 21.6H117.67C118.57 21.6 119.47 22 120.27 22.6C120.683 22.9459 121.007 23.3849 121.217 23.8808C121.427 24.3767 121.516 24.9153 121.477 25.4524C121.438 25.9894 121.272 26.5095 120.992 26.9698C120.713 27.4301 120.328 27.8175 119.87 28.1C118.87 28.7 117.87 28.9 116.87 28.9H115.07C114.77 28.9 114.67 29 114.67 29.3V34.1C114.67 34.5 114.57 34.6 114.17 34.5H112.17C111.77 34.5 111.67 34.5 111.67 34.1V28.1V28ZM114.67 25.2001V27.5C114.67 27.8 114.67 27.9 115.07 27.9H116.47C117.67 27.9 118.57 27.2 118.87 25.9C119.27 24.5 118.57 23.1 117.27 22.6C116.57 22.3001 115.77 22.5 115.07 22.4C114.77 22.4 114.67 22.5 114.67 22.8V25.2001ZM99.67 28V22.2001C99.67 21.7001 99.67 21.7001 100.07 21.7001H108.07C108.37 21.7001 108.57 21.7 108.47 22.1C108.47 23 108.47 23 107.67 23H102.97C102.67 23 102.57 23 102.57 23.4V27.4C102.57 27.6 102.57 27.7001 102.97 27.7001H107.67C108.17 27.7001 108.17 27.7001 108.17 28.2001C108.17 29.0001 108.17 29 107.37 29H102.97C102.67 29 102.47 29 102.57 29.4V32.8C102.57 33.1 102.57 33.2001 102.97 33.2001H108.47C108.77 33.2001 108.87 33.2 108.87 33.6C108.87 34.6 108.87 34.6 107.97 34.6H100.07C99.57 34.6 99.57 34.6 99.57 34V28.1L99.67 28ZM170.67 28.1C170.67 29.4001 170.67 30.5 171.27 31.6C172.27 33.8 175.57 34.2 177.07 32.3C177.37 31.9 177.57 31.3 177.77 30.8C177.77 30.5 177.97 30.4 178.27 30.4C178.97 30.4 179.07 30.3 178.77 31.3C178.418 32.3524 177.725 33.2576 176.802 33.8732C175.879 34.4887 174.777 34.7796 173.67 34.7001C172.87 34.7001 172.17 34.7001 171.57 34.4001C170.702 34.1774 169.911 33.7258 169.277 33.0926C168.644 32.4593 168.193 31.6675 167.97 30.8C167.37 28.6 167.37 26.3 168.57 24.3C169.57 22.5 171.17 21.6 173.07 21.4C174.57 21.2 176.07 21.4 177.07 22.4C178.012 23.1507 178.651 24.2159 178.87 25.4C178.87 25.6 178.87 25.6 178.57 25.6C177.77 25.6 177.77 25.6 177.57 24.9C177.07 23.5 176.07 22.7 174.57 22.6C173.17 22.6 171.97 23.2 171.37 24.5C170.868 25.6318 170.629 26.8626 170.67 28.1ZM154.07 27.4V32.7001C154.07 33.0001 154.07 33.1 154.47 33.1H159.17C159.57 33.1 159.67 33.1 159.67 33.5C159.67 34.5 159.67 34.5 158.67 34.5H151.67C151.07 34.5 151.07 34.5 151.07 34V22C151.07 21.7 151.17 21.6 151.57 21.6H153.67C153.97 21.6 154.07 21.7 154.07 22V27.4ZM161.97 21.6H164.47C164.77 21.6 164.87 21.8 164.87 22.1V34.2001C164.87 34.4001 164.87 34.5 164.57 34.5H162.17C161.97 34.5 161.97 34.3 161.97 34.1V21.6Z" fill="#111111"/>
</svg>
