<svg width="104" height="56" viewBox="0 0 104 56" fill="none" xmlns="http://www.w3.org/2000/svg">
<path d="M20.97 20H22.67V25L24.27 24.6C26.17 24.4 27.77 25.2 28.47 26.9C29.17 28.6 29.27 30.4 28.47 32.1C27.87 33.7 26.67 34.6 24.87 34.6L20.87 34.4V20H20.97ZM22.67 32.7C24.57 33.4 26.27 32.9 26.87 31.5C27.1597 30.8554 27.3096 30.1567 27.3096 29.45C27.3096 28.7433 27.1597 28.0446 26.87 27.4C26.07 25.6 23.87 25.9 22.87 26.6L22.67 27.2V32.7ZM18.87 30H11.87C11.87 31 12.07 31.8 12.87 32.3C13.57 32.7 14.47 32.9 15.27 33L17.77 32.7L18.07 34.1C16.07 34.8 13.97 35.1 12.07 33.8C10.17 32.6 9.76999 30.8 10.07 28.8C10.47 25.7 12.57 24.1 15.47 24.6C16.77 24.7 17.77 25.4 18.17 26.6C18.57 27.6 18.67 28.8 18.87 30ZM16.87 28.6C16.97 27.4 16.17 26.1 14.77 26C13.37 25.8 12.17 27 11.87 28.6H16.87ZM39.57 30H32.67C32.57 32.5 34.27 33.3 38.57 32.7C38.97 34.1 38.97 34.2 37.57 34.4C36.57 34.6 35.57 34.6 34.57 34.4C32.17 34.1 30.87 32.3 30.77 29.9C30.77 28.3 31.07 26.9 32.27 25.7C33.67 24.4 35.27 24.1 37.07 24.7C38.77 25.4 39.27 26.8 39.47 28.5V30H39.57ZM37.67 28.6C37.77 27 36.87 26 35.47 26C33.97 26 32.77 27.2 32.87 28.6H37.67ZM79.47 34.3V32.3L79.37 28C79.27 26.7 78.57 26 77.37 26C76.17 26.1 75.47 26.9 75.37 28.2V34.3H73.77V27.2C73.97 25.5 75.27 24.6 77.17 24.5C79.37 24.4 80.67 25.4 81.17 27.6V34.3H79.47ZM90.77 25L90.47 26.2L86.57 26.1C86.07 26.1 85.57 26.3 85.47 27C85.27 27.7 85.77 28 86.27 28.2L88.27 29L89.97 29.8C90.87 30.3 91.27 31.1 91.17 32.1C91.07 33.1 90.47 33.9 89.47 34.2C87.47 34.8 85.47 34.7 83.47 34L83.87 32.7L87.87 33L88.67 32.9C89.47 32.5 89.67 31.6 88.87 31.1L86.87 30.1L85.07 29.4C84.07 28.9 83.47 28.1 83.67 27C83.67 25.8 84.47 25.1 85.57 24.7C86.67 24.3 89.67 24.4 90.77 25ZM42.67 21.5H40.47V20H44.47V30.5C44.47 32.8 44.87 33.1 47.07 32.8C47.37 34.4 47.27 34.5 45.77 34.5C43.77 34.5 42.77 33.7 42.77 31.8L42.67 22.5V21.4V21.5ZM49.87 21.5H48.87C47.87 21.5 47.57 21 47.67 20.1H51.67V30.7C51.67 32.8 52.17 33.3 54.27 32.9C54.67 34.3 54.57 34.5 53.27 34.6C50.97 34.6 49.87 33.6 49.87 31.4V21.4V21.5ZM8.96999 25L8.26999 26.5L6.26999 26.2C4.36999 26.2 3.26999 27.5 3.16999 29.5V34.2L3.06999 34.3H1.46999C1.46999 32.3 1.26999 30.3 1.46999 28.4C1.86999 25.1 5.76999 23.4 8.96999 25ZM57.17 24.6H58.87V31.2C58.87 32.7 59.47 33.2 60.97 33L61.47 32.9V33C61.67 34.6 61.57 34.6 60.07 34.6C58.27 34.6 57.27 33.8 57.17 32V24.6ZM92.87 36.3H102.87V37.7H92.87V36.3ZM57.97 20C58.67 20 59.17 20.6 59.17 21.2C59.17 21.9 58.57 22.4 57.87 22.4C57.17 22.4 56.67 21.8 56.67 21.1C56.67 20.5 57.27 20 57.97 20ZM71.47 28.2C71.3244 27.1664 70.8079 26.2211 70.0167 25.5403C69.2255 24.8596 68.2137 24.4898 67.17 24.5C65.17 24.5 63.27 25.9 62.97 28.2C62.77 29.2 62.77 30.4 63.07 31.5C63.57 33.5 65.17 34.6 67.17 34.5C69.17 34.6 70.87 33.5 71.37 31.5C71.57 30.5 71.67 29.2 71.47 28.2ZM69.47 31.5C69.07 32.5 68.17 33.1 67.17 33C66.17 33 65.37 32.5 64.97 31.5C64.37 30.1 64.37 28.7 65.07 27.4C65.47 26.5 66.17 26.1 67.07 26.1H67.17C68.17 26.1 68.97 26.5 69.37 27.4C70.07 28.7 70.07 30.1 69.37 31.5H69.47Z" fill="#111111"/>
</svg>
