<svg width="108" height="56" viewBox="0 0 108 56" fill="none" xmlns="http://www.w3.org/2000/svg">
<path d="M20.47 24.2C19.67 25.2 18.87 24.8 18.27 23.5C17.97 22.7 17.47 22.5 17.07 22.7C16.67 22.9 16.87 23.5 17.27 24.1C17.57 24.6 17.47 25.1 17.17 25.4C16.87 25.7 16.37 25.8 15.77 25.7C14.77 25.5 13.77 24.2 14.57 21.4C14.87 20.4 14.27 19.8 13.97 19.4L13.67 19H14.27L15.57 19.3H16.57C17.57 19.3 18.27 19.4 18.97 19.8C20.27 20.4 20.37 21.4 19.67 21.3L18.87 21C18.67 21 18.57 20.9 18.47 21C18.37 21 18.27 21.2 18.47 21.3C18.47 21.6 19.07 21.8 19.77 22C20.97 22.3 21.07 23.4 20.37 24.2H20.47ZM19.97 35C19.3332 35.8808 18.4691 36.5721 17.47 37H16.97L17.17 36.6C18.67 34.6 17.57 33 15.17 31.6L10.97 29.3C7.16997 27.1 6.36997 25.3 6.26997 24.1C5.86997 21.2 8.26997 19.1 10.77 18.6H11.17L10.97 19C9.86997 19.6 8.76997 20.9 8.86997 22.3C8.86997 23.1 9.26997 24.3 11.47 25.7C12.77 26.7 14.47 27.4 17.67 29.3C21.07 31.3 20.67 33.8 19.97 35ZM13.67 37.5C12.27 37.7 9.86997 37.3 8.26997 36.3C6.86997 35.5 6.06997 34.4 5.56997 33.3C4.96997 32.3 4.76997 30.9 5.26997 30.9C5.56997 30.9 5.86997 31.5 6.26997 32.1C6.66997 32.6 7.06997 32.9 7.26997 33C7.36997 33 7.46997 33 7.56997 32.8L8.26997 31.6C8.56997 31.3 8.96997 31.1 9.16997 31.9L9.36997 33.1C9.36997 33.6 9.36997 33.9 9.66997 34L10.57 33.8L11.87 33.3C12.37 33.2 12.77 33.3 12.37 34C12.27 34.4 12.07 34.7 11.57 35.5C11.47 35.6 11.47 35.8 11.57 35.9L12.57 36.5L13.77 36.8C14.17 37 14.07 37.4 13.67 37.5ZM13.47 16C6.86997 16.1 1.46997 21.4 1.46997 28C1.46997 34.5 6.86997 39.7 13.47 39.7C20.17 39.7 25.47 34.5 25.47 28C25.47 21.5 20.17 16.2 13.47 16.2V16ZM30.77 32L31.77 32.6C32.4671 32.9573 33.2062 33.226 33.97 33.4H34.97C35.5638 33.4382 36.1555 33.299 36.67 33C37.07 32.7 37.37 32.2 37.37 31.6C37.3926 31.1332 37.2511 30.6733 36.97 30.3C36.77 30 36.27 29.7 35.67 29.3C35.021 28.9621 34.3532 28.6616 33.67 28.4C33.0817 28.1048 32.5138 27.7708 31.97 27.4C31.492 26.9677 31.0868 26.4612 30.77 25.9C30.47 25.3 30.27 24.7 30.27 23.9C30.2738 23.3961 30.3929 22.8998 30.6183 22.4491C30.8436 21.9985 31.1692 21.6054 31.57 21.3L33.07 20.5L35.07 20.3C36.77 20.3 38.27 20.5 39.47 21.1V23.4C39.47 23.5 39.47 23.6 39.27 23.7L38.97 23.6C37.97 22.7 36.77 22.3 35.47 22.3C34.87 22.3 34.27 22.4 33.97 22.7C33.57 23 33.37 23.4 33.37 23.9L33.57 24.9L34.17 25.5L35.67 26.5C36.6523 27.0346 37.6529 27.5349 38.67 28L39.67 29L40.27 30L40.47 31.6C40.47 32.3 40.27 32.9 40.07 33.4C39.77 33.8 39.37 34.3 38.87 34.6L37.07 35.3C35.2038 35.7098 33.2589 35.5709 31.47 34.9L30.37 34.2C30.07 34 29.97 33.8 30.07 33.5L30.67 32H30.77ZM42.27 20.5H45.47V25.6L46.87 24.8C47.9396 24.4343 49.1004 24.4343 50.17 24.8C50.57 24.9 50.97 25.2 51.37 25.5C51.706 25.7994 51.9704 26.1706 52.1435 26.586C52.3166 27.0015 52.394 27.4506 52.37 27.9V35.3H49.37V28.3C49.37 27.3 48.87 26.7 47.77 26.7C47.3605 26.684 46.9521 26.7521 46.57 26.9L45.47 27.6V35.3H42.47V21.6L42.07 21C41.87 20.8 41.87 20.7 41.97 20.6L42.27 20.5ZM58.17 21.6C58.17 22.1 57.97 22.6 57.67 22.9C57.27 23.2 56.87 23.4 56.37 23.4C55.77 23.4 55.37 23.2 55.07 22.9C54.67 22.5 54.57 22.1 54.57 21.6C54.5554 21.3598 54.5919 21.1193 54.6772 20.8943C54.7625 20.6693 54.8946 20.4649 55.0648 20.2948C55.2349 20.1246 55.4392 19.9926 55.6642 19.9073C55.8892 19.822 56.1298 19.7854 56.37 19.8C56.87 19.8 57.37 20 57.67 20.3C57.97 20.7 58.17 21.1 58.17 21.6ZM57.97 24.9V35.3H54.97V26L54.57 25.4C54.47 25.3 54.47 25.2 54.57 25L54.77 24.9H57.97ZM60.47 24.9H63.57V25.9L64.97 24.9C65.37 24.7 65.97 24.5 66.67 24.5C67.27 24.5 67.67 24.6 68.27 24.8L69.47 25.4C69.87 25.7 70.17 26.1 70.37 26.5C70.57 27 70.67 27.5 70.67 28.1V35.3H67.67V28.3C67.67 27.7 67.57 27.3 67.27 27C66.97 26.8 66.57 26.6 65.97 26.6L64.67 27C64.3028 27.1808 63.9655 27.4169 63.67 27.7V35.4H60.67V26.9V26L60.27 25.4C60.17 25.3 60.07 25.2 60.17 25.1C60.17 25 60.27 24.9 60.47 24.9ZM72.87 20.5H76.17V25.6L77.47 24.8C78.5396 24.4343 79.7004 24.4343 80.77 24.8C81.27 24.9 81.67 25.2 81.97 25.5C82.3242 25.7897 82.6075 26.1565 82.7982 26.5725C82.9888 26.9885 83.0818 27.4426 83.07 27.9V35.3H80.07V28.3C80.07 27.3 79.57 26.7 78.37 26.7C77.994 26.6972 77.6209 26.765 77.27 26.9L76.17 27.6V35.3H73.17V22.3L73.07 21.6C73.07 21.4 72.87 21.2 72.67 21C72.57 20.8 72.57 20.7 72.67 20.6L72.87 20.5ZM91.67 30.7H89.67C88.97 30.7 88.47 30.8 88.17 31.1C87.87 31.4 87.67 31.8 87.67 32.3C87.67 32.7 87.87 33 88.07 33.3C88.27 33.5 88.67 33.6 89.07 33.6C89.57 33.6 90.07 33.6 90.47 33.3C90.97 33.1 91.37 32.8 91.67 32.4V30.7ZM89.87 26.5C89.2566 26.4887 88.6465 26.5904 88.07 26.8L86.57 27.5C86.37 27.7 86.27 27.7 86.07 27.6L85.97 27.2V25.3L87.97 24.7C88.6299 24.5775 89.2989 24.5106 89.97 24.5C91.2014 24.4332 92.4235 24.7474 93.47 25.4C94.27 25.9 94.67 26.8 94.67 27.9V35.3H91.67V34C91.27 34.6 90.77 35 90.27 35.2C89.2061 35.5989 88.0338 35.5989 86.97 35.2C86.57 35.2 86.17 34.9 85.87 34.6C85.5395 34.2962 85.2789 33.9243 85.1062 33.5099C84.9335 33.0955 84.8529 32.6486 84.87 32.2C84.87 31.2 85.27 30.2 86.07 29.6C86.87 28.9 88.07 28.6 89.77 28.6H91.67V28C91.67 27.5 91.47 27.2 91.17 27C90.87 26.7 90.47 26.6 89.87 26.6M96.87 24.9H99.97V25.9L101.37 24.9C101.77 24.7 102.37 24.5 103.07 24.5C103.67 24.5 104.07 24.6 104.67 24.8L105.87 25.4C106.27 25.7 106.57 26.1 106.77 26.5C106.97 27 107.07 27.5 107.07 28.1V35.3H104.07V28.3C104.07 27.7 103.97 27.3 103.67 27C103.37 26.8 102.97 26.6 102.37 26.6L101.17 26.9C100.803 27.0808 100.466 27.3169 100.17 27.6V35.3H97.17V26.8L97.07 26L96.67 25.4C96.57 25.3 96.47 25.2 96.57 25.1C96.57 25 96.67 24.9 96.87 24.9Z" fill="#0845FF"/>
</svg>
