<svg width="65" height="56" viewBox="0 0 65 56" fill="none" xmlns="http://www.w3.org/2000/svg">
<path d="M64.07 40.3C64.024 40.8405 63.8324 41.3585 63.5154 41.7987C63.1984 42.2389 62.768 42.585 62.27 42.8C43.27 48.8 22.67 48.8 3.56999 42.8C2.56999 42.5 1.76999 41.3 1.76999 40.3V15.5C1.79815 14.942 1.98157 14.403 2.2996 13.9436C2.61762 13.4842 3.05761 13.1228 3.56999 12.9C22.57 6.90002 43.17 6.90002 62.27 12.9C63.27 13.2 64.07 14.4 64.07 15.5V40.3Z" fill="#00426B"/>
<path d="M59.27 22.9C55.47 19.9 28.97 20.9 23.57 20.9C16.47 20.9 12.07 19.9 12.87 17.6C13.47 16 26.07 14 32.87 14C44.47 14 53.77 16 52.87 19.2L56.17 19.5L59.87 16.2C42.3152 10.729 23.4765 10.9741 6.06998 16.9C4.76998 17.4 4.46998 31.3 6.46998 32.9C10.27 35.9 36.87 34.9 42.17 34.9C49.27 34.9 53.77 35.8 52.87 38.2C52.27 39.7 39.67 41.7 32.87 41.7C21.27 41.7 12.07 39.7 12.87 36.5L9.66998 36.2L6.06998 39.5C14.7957 42.2791 23.9133 43.6298 33.07 43.5C47.07 43.5 55.27 40.9 59.87 38.9C61.07 38.3 61.37 24.4 59.37 22.9H59.27Z" fill="white"/>
<path d="M14.47 29.3C14.47 30.6 13.17 31.5 11.67 31.5C10.67 31.5 9.76998 31.2 9.36998 31V29.3C9.56998 30 10.27 30.9 11.47 30.9C12.67 30.9 13.07 30.2 13.07 29.7C13.07 28.7 12.07 28.7 10.87 28.2C9.86998 27.7 9.36998 27.1 9.36998 26.4C9.36998 25 10.87 24.4 11.97 24.4C12.37 24.4 13.17 24.5 13.77 24.9V26.4C13.67 25.9 12.97 25 11.77 25C10.87 25 10.57 25.5 10.57 26C10.57 26.6 11.07 26.8 12.27 27.2C13.27 27.6 14.47 28 14.47 29.3ZM57.07 29.3C57.07 30.6 55.77 31.5 54.27 31.5C53.27 31.5 52.47 31.2 51.97 31V29.3C52.17 30 52.87 30.9 54.07 30.9C55.27 30.9 55.67 30.2 55.67 29.7C55.67 28.7 54.67 28.7 53.57 28.2C52.47 27.7 51.97 27.1 51.97 26.4C51.97 25 53.47 24.4 54.57 24.4C55.07 24.4 55.77 24.5 56.47 24.9V26.4C56.27 25.9 55.57 25 54.47 25C53.47 25 53.27 25.5 53.27 26C53.27 26.6 53.77 26.8 54.87 27.2C55.87 27.6 57.07 28 57.07 29.3ZM17.37 24.5L17.17 25V30.8C17.17 31.1 17.17 31.2 17.37 31.3H15.67C15.87 31.3 15.87 31 15.87 30.8V25C15.87 24.7 15.77 24.6 15.67 24.5H17.47H17.37ZM24.67 24.5H26.37C26.17 24.6 26.17 24.8 26.17 25V30.8C26.17 31.1 26.27 31.2 26.37 31.3H24.67L24.87 30.8V25.6V25.9L22.37 31.5L19.87 26V25.8V31C19.87 31.2 19.87 31.3 20.17 31.3H18.97C19.17 31.3 19.17 31.1 19.17 30.9V25L18.87 24.6H20.67L22.67 29.2L24.67 24.5ZM33.37 24.5H35.17C34.97 24.6 34.87 24.8 34.87 25V30.8C34.87 31.1 34.97 31.2 35.17 31.3H33.27C33.47 31.3 33.47 31 33.47 30.8V25.6V25.9L30.97 31.5L28.47 26V25.8V31C28.47 31.2 28.47 31.3 28.67 31.3H27.67L27.87 30.9V25L27.57 24.6H29.37L31.37 29.2L33.47 24.5H33.37ZM39.87 31.4C37.67 31.4 35.87 29.9 35.97 27.8C36.07 26.1 37.47 24.4 39.97 24.4C41.77 24.4 43.77 25.7 43.77 27.9C43.77 30.3 41.77 31.5 39.77 31.4H39.87ZM37.47 27.8C37.47 29.9 38.67 30.9 39.87 30.9C41.27 30.9 42.27 29.9 42.27 28C42.27 26.1 41.27 25 39.87 25C38.47 25 37.47 26 37.47 27.8ZM49.97 25C49.97 24.7 49.77 24.6 49.67 24.5H50.87C50.67 24.6 50.67 24.8 50.67 25V31.6L45.67 25.9V30.9C45.67 31.1 45.67 31.2 45.97 31.3H44.67L44.87 30.8V25.5L44.67 24.9L44.17 24.5H46.07L49.87 28.9V24.9L49.97 25Z" fill="#111111"/>
</svg>
