<svg width="47" height="56" viewBox="0 0 47 56" fill="none" xmlns="http://www.w3.org/2000/svg">
<path d="M7.67001 26.3C6.47001 25.7 5.37001 25.3 5.37001 24.3C5.37001 23.6 5.97001 23.1 7.17001 23.1L8.27001 23.2H8.87001C9.87001 23.2 10.47 22.7 10.87 21.6L10.97 21.1C10.87 21.1 9.17001 20.3 6.97001 20.3C3.57001 20.3 1.77001 22.5 1.77001 24.7C1.77001 25.8 2.07001 26.7 2.67001 27.3C3.37001 28.1 4.47001 28.7 5.37001 29.1C6.87001 29.8 8.07001 30.3 8.07001 31.3C8.07001 32.2 7.17001 32.7 5.87001 32.7C4.17001 32.7 2.67001 31.7 2.47001 31.7L1.07001 34.1C1.27001 34.3 3.07001 35.4 6.07001 35.4C9.37001 35.4 11.77 33.6 11.77 30.8C11.77 28.1 9.57001 27.1 7.77001 26.2L7.67001 26.3ZM20.37 27.6L26.17 20.6H21.97L17.37 26.6V20.6H13.87V35.4H14.07C15.57 35.4 17.27 34.7 17.27 32.3V28.9H17.37L22.17 35.2H26.47L20.37 27.6ZM26.37 4.90002C25.17 5.10002 23.37 6.10002 23.37 8.00002C23.37 9.70002 24.77 10.8 24.77 13C24.7763 13.7082 24.5945 14.4055 24.2431 15.0204C23.8918 15.6353 23.3834 16.1459 22.77 16.5C23.834 16.3931 24.906 16.3931 25.97 16.5L31.37 10C29.9895 8.04131 28.301 6.31903 26.37 4.90002ZM30.97 22.3C31.57 21.3 31.67 19.6 31.77 17.9C31.77 16.4 32.17 15.2 34.27 15.2H36.07C39.17 15.2 41.27 14.2 42.57 13.5C39.2021 11.3846 35.3432 10.1787 31.37 10L28.47 18L29.47 19.4C30.0459 20.3453 30.5155 21.3514 30.87 22.4L30.97 22.3Z" fill="#CE0E2D"/>
<path d="M19.47 17C19.17 17 19.07 16.8 19.07 16.5L17.47 2.4L17.37 1.4C17.37 1.1 17.47 1 17.77 1C18.37 1 21.87 1.8 25.57 4.3C24.57 4.6 22.57 5.7 22.57 7.9C22.57 9.9 24.07 11 24.07 12.9C24.07 16.2 20.27 17 19.47 17ZM31.27 23.1L31.37 23.5L31.77 23.7H32.07L45.37 17.7L46.27 17.2L46.47 16.9V16.7C46.17 16.3 45.07 15.2 43.27 14C41.77 14.7 39.57 16 36.17 16L34.57 15.9C32.97 15.9 32.57 16.6 32.47 18V19C32.47 20.3 32.27 22 31.27 23.2V23.1Z" fill="#EE7623"/>
</svg>
