<svg width="109" height="56" viewBox="0 0 109 56" fill="none" xmlns="http://www.w3.org/2000/svg">
<path d="M5.26997 33V31C5.26622 30.7362 5.15839 30.4846 4.96997 30.3C3.96997 29.3 2.96997 28.1 2.36997 26.8C1.88993 25.9872 1.71283 25.0308 1.86997 24.1C2.16997 22.9 2.96997 22.4 4.06997 22.2C5.56997 21.9 7.06997 22.2 8.56997 22.6H8.66997C9.36997 23 9.86997 22.7 10.47 22.3L12.47 20.6C12.97 20.3 13.17 20.3 13.57 20.6L20.37 25.8C20.77 26 20.87 26.3 20.87 26.8C20.9055 27.8684 20.9722 28.9355 21.07 30L23.37 33C23.97 33.7 24.37 34.7 24.37 35.7C24.37 36.7 23.67 37.7 22.57 38.1C21.67 38.3 20.87 38.4 19.97 38.3C17.27 38 14.97 37 12.67 35.8H6.06997C5.46997 35.8 5.26997 35.6 5.26997 35V33ZM16.27 35.3H19.87C20.27 35.3 20.47 35.3 20.47 34.8V30.2C20.47 30 20.47 29.9 20.27 29.8L19.47 29L15.47 26.1C13.7766 25.001 11.9653 24.0953 10.07 23.4C9.76997 23.4 9.56997 23.4 9.26997 23.6L6.16997 25.9C5.76997 26.2 5.66997 26.5 5.66997 26.9V29.9C5.66997 30.3 5.66997 30.5 5.96997 30.7C8.10293 32.5185 10.4544 34.0637 12.97 35.3H16.37H16.27ZM46.07 36.4L47.87 34.8C48.37 35.2 48.67 35.6 49.17 35.8C50.37 36.6 51.77 36.7 53.07 36.1C53.87 35.8 54.07 35.1 54.27 34.3V33.3C53.07 34.3 51.77 34.6 50.27 34.5C49.5623 34.4414 48.8752 34.2327 48.2545 33.8879C47.6338 33.543 47.0936 33.0699 46.67 32.5C45.17 30.5 45.27 27.3 47.17 25.4C48.87 23.6 52.37 23.4 54.17 25.1V24.1H56.87V34.2C56.87 36.2 55.57 37.9 53.87 38.4C50.97 39.4 48.37 38.9 46.27 36.6L46.07 36.4ZM54.27 29.2V28.6C54.27 27.7 53.87 27.1 53.07 26.6C52.37 26.3 51.67 26.2 50.87 26.3C49.77 26.3 48.87 27.1 48.47 28.2C48.07 29.4 48.47 30.7 49.27 31.4C50.07 32.1 50.97 32.2 51.97 32.1C52.77 32.1 53.37 31.7 53.97 31.1C54.37 30.5 54.27 29.8 54.27 29.2ZM105.07 25.2V24.2H107.57V34C107.57 35.5 107.17 36.8 105.97 37.7C105.17 38.3 104.17 38.7 103.17 38.7C101.87 38.9 100.67 38.7 99.47 38.3C98.47 37.9 97.47 37.3 96.77 36.3L98.77 34.8C99.27 35.5 100.07 36.1 100.97 36.3C101.87 36.5 102.77 36.6 103.67 36.3C104.57 35.8 104.97 35.2 104.97 34.2V33.4C104.305 33.9316 103.519 34.2916 102.682 34.4485C101.845 34.6055 100.983 34.5545 100.17 34.3C99.07 34 98.07 33.3 97.37 32.4C96.6432 31.3509 96.2965 30.085 96.3875 28.812C96.4784 27.5389 97.0014 26.3352 97.87 25.4C99.27 23.9 102.97 23.1 105.07 25.2ZM105.07 29.2C105.17 27.1 103.67 26.2 102.07 26.2C100.07 26.2 99.07 27.6 99.07 29.2C99.0683 29.9622 99.3568 30.6964 99.8768 31.2536C100.397 31.8108 101.109 32.1492 101.87 32.2C103.67 32.2 105.27 31.2 105.07 29.2ZM61.27 33.5V34.3H58.77V20.2H61.37V25C62.57 23.9 63.97 23.7 65.47 23.8C66.87 24 68.07 24.6 68.97 25.8C70.47 27.7 70.37 30.6 68.97 32.5C68.5257 33.0637 67.9654 33.5251 67.3269 33.853C66.6885 34.1808 65.9869 34.3674 65.27 34.4C63.87 34.4 62.47 34.4 61.37 33.3L61.27 33.5ZM61.27 29.1V29.7C61.27 30.2 61.37 30.7 61.77 31.2C62.67 32.1 63.77 32.3 64.87 32.2C65.97 32 66.87 31.3 67.17 30.2C67.3483 29.6921 67.3867 29.1456 67.2811 28.6178C67.1756 28.0899 66.9299 27.6002 66.57 27.2C65.97 26.5 65.27 26.2 64.37 26.2C63.37 26.2 62.57 26.4 61.87 27.1C61.27 27.7 61.27 28.4 61.27 29.1ZM82.37 34.3H79.87V33.3C77.67 35.3 73.87 34.7 72.27 32.7C71.4915 31.6994 71.0689 30.4678 71.0689 29.2C71.0689 27.9322 71.4915 26.7006 72.27 25.7C73.77 23.9 77.67 23.1 79.87 25.1V24.2H82.37V34.2V34.3ZM79.87 29.3C79.87 28.5 79.87 27.8 79.27 27.3C78.27 26.3 77.27 26.1 75.97 26.3C74.67 26.6 73.97 27.5 73.77 28.8C73.6733 29.3722 73.7446 29.9602 73.9754 30.4927C74.2061 31.0251 74.5863 31.4793 75.07 31.8C75.87 32.2 76.77 32.3 77.67 32.1C78.37 32 78.97 31.6 79.47 31.1C79.77 30.5 79.87 29.9 79.87 29.2V29.3ZM28.97 34.2V32.2L29.17 32L34.17 27.6L35.47 26.5H29.67C29.37 26.5 29.27 26.5 29.27 26.1V24.1H39.67V26.1L39.37 26.4L33.37 31.7L33.17 31.9H39.97V34.2H28.97ZM92.47 34.3V29.3L92.17 27.7C91.57 26.4 90.37 26.1 89.17 26.3C87.67 26.5 86.77 27.7 86.77 29.2V34.3H84.27V24.2H86.67V25.1L87.97 24.3C89.67 23.6 92.27 23.8 93.67 25.3C94.3771 25.9889 94.8045 26.9149 94.87 27.9V34.3H92.37H92.47ZM44.17 34.3H41.47V24.2H44.17V34.2V34.3ZM42.77 20C43.77 20 44.37 20.6 44.37 21.5C44.37 22.5 43.67 23.1 42.77 23.1C41.97 23.1 41.17 22.4 41.27 21.5C41.27 20.6 41.87 20 42.77 20Z" fill="#FF691A"/>
</svg>
