<svg width="20" height="21" viewBox="0 0 20 21" fill="none" xmlns="http://www.w3.org/2000/svg">
<path d="M5.66406 8.2019H8.24219V5.81909C8.24219 5.81909 8.27148 5.5131 8.33008 4.90112C8.38867 4.28914 8.71094 3.69019 9.29688 3.10425C9.89583 2.50529 10.6022 2.18302 11.416 2.13745C12.2298 2.09188 13.2031 2.12118 14.3359 2.22534V4.88159H12.6562C12.6562 4.88159 12.526 4.89461 12.2656 4.92065C12.0052 4.9467 11.7904 5.05086 11.6211 5.23315C11.4648 5.42847 11.377 5.6368 11.3574 5.85815C11.3379 6.07951 11.3281 6.22274 11.3281 6.28784V8.2019H14.2383L13.8672 11.1511H11.3086V18.7683H8.24219V11.1511H5.66406V8.2019Z" fill="#AEB2BB"/>
</svg>
