<svg width="20" height="21" viewBox="0 0 20 21" fill="none" xmlns="http://www.w3.org/2000/svg">
<path d="M10 3.59253C11.1068 3.59253 11.8359 3.59578 12.1875 3.60229C12.5391 3.60881 12.9362 3.62508 13.3789 3.65112C13.7695 3.66414 14.0885 3.69995 14.3359 3.75854C14.5833 3.81714 14.7786 3.89201 14.9219 3.98315C15.1042 4.03524 15.2734 4.11336 15.4297 4.21753C15.5859 4.3217 15.7357 4.43888 15.8789 4.56909C16.0221 4.71232 16.1393 4.85555 16.2305 4.99878C16.3216 5.14201 16.3997 5.31779 16.4648 5.52612C16.5039 5.66935 16.556 5.86141 16.6211 6.10229C16.6862 6.34318 16.7318 6.66545 16.7578 7.06909C16.7708 7.49878 16.7806 7.89266 16.7871 8.25073C16.7936 8.60881 16.7969 9.33472 16.7969 10.4285C16.7969 11.5352 16.7936 12.2677 16.7871 12.6257C16.7806 12.9838 16.7708 13.3777 16.7578 13.8074C16.7578 14.211 16.7285 14.5333 16.6699 14.7742C16.6113 15.0151 16.543 15.2071 16.4648 15.3503C16.3997 15.5326 16.3151 15.7019 16.2109 15.8582C16.1068 16.0144 15.9961 16.1641 15.8789 16.3074C15.7357 16.4506 15.5924 16.5678 15.4492 16.6589C15.306 16.7501 15.1302 16.8282 14.9219 16.8933C14.7786 16.9324 14.5833 16.9845 14.3359 17.0496C14.0885 17.1147 13.7695 17.1602 13.3789 17.1863C12.9362 17.2123 12.5391 17.2253 12.1875 17.2253C11.8359 17.2253 11.1068 17.2253 10 17.2253C8.89323 17.2253 8.16406 17.2253 7.8125 17.2253C7.46094 17.2253 7.0638 17.2123 6.62109 17.1863C6.23047 17.1863 5.91146 17.157 5.66406 17.0984C5.41667 17.0398 5.22135 16.9714 5.07812 16.8933C4.89583 16.8282 4.72656 16.7468 4.57031 16.6492C4.41406 16.5515 4.26432 16.4376 4.12109 16.3074C3.97786 16.1641 3.86068 16.0209 3.76953 15.8777C3.67839 15.7345 3.60026 15.5587 3.53516 15.3503C3.48307 15.2071 3.42122 15.0151 3.34961 14.7742C3.27799 14.5333 3.22917 14.211 3.20312 13.8074C3.1901 13.3777 3.18034 12.9838 3.17383 12.6257C3.16732 12.2677 3.16406 11.5352 3.16406 10.4285C3.16406 9.33472 3.16732 8.60881 3.17383 8.25073C3.18034 7.89266 3.1901 7.49878 3.20312 7.06909C3.22917 6.66545 3.27148 6.34318 3.33008 6.10229C3.38867 5.86141 3.45703 5.66935 3.53516 5.52612C3.60026 5.33081 3.6849 5.15828 3.78906 5.00854C3.89323 4.85881 4.00391 4.71232 4.12109 4.56909C4.26432 4.41284 4.40755 4.28914 4.55078 4.198C4.69401 4.10685 4.86979 4.03524 5.07812 3.98315C5.22135 3.91805 5.41667 3.84969 5.66406 3.77808C5.91146 3.70646 6.23047 3.66414 6.62109 3.65112C7.0638 3.65112 7.46094 3.64136 7.8125 3.62183C8.16406 3.60229 8.89323 3.59253 10 3.59253ZM10 2.10815C8.88021 2.10815 8.14128 2.10815 7.7832 2.10815C7.42513 2.10815 7.02474 2.12118 6.58203 2.14722C6.13932 2.16024 5.75521 2.1993 5.42969 2.2644C5.10417 2.32951 4.8112 2.41414 4.55078 2.51831C4.27734 2.64852 4.01367 2.78198 3.75977 2.9187C3.50586 3.05542 3.26823 3.24097 3.04688 3.47534C2.8125 3.70972 2.6237 3.9506 2.48047 4.198C2.33724 4.44539 2.20703 4.70581 2.08984 4.97925C1.9987 5.22664 1.91732 5.51961 1.8457 5.85815C1.77409 6.1967 1.72526 6.58081 1.69922 7.0105C1.6862 7.45321 1.67643 7.8536 1.66992 8.21167C1.66341 8.56974 1.66016 9.30867 1.66016 10.4285C1.66016 11.5613 1.66341 12.3067 1.66992 12.6648C1.67643 13.0229 1.6862 13.4167 1.69922 13.8464C1.72526 14.2891 1.77083 14.6733 1.83594 14.9988C1.90104 15.3243 1.98568 15.6238 2.08984 15.8972C2.20703 16.1707 2.33724 16.4246 2.48047 16.6589C2.6237 16.8933 2.8125 17.1407 3.04688 17.4011C3.26823 17.6225 3.49935 17.8113 3.74023 17.9675C3.98112 18.1238 4.2513 18.254 4.55078 18.3582C4.79818 18.4363 5.08789 18.5111 5.41992 18.5828C5.75195 18.6544 6.13932 18.7032 6.58203 18.7292C7.02474 18.7423 7.42513 18.752 7.7832 18.7585C8.14128 18.7651 8.88021 18.7683 10 18.7683C11.1198 18.7683 11.8587 18.7651 12.2168 18.7585C12.5749 18.752 12.9753 18.7423 13.418 18.7292C13.8607 18.7032 14.2448 18.6609 14.5703 18.6023C14.8958 18.5437 15.1888 18.4623 15.4492 18.3582C15.7227 18.2279 15.9798 18.0912 16.2207 17.948C16.4616 17.8048 16.7057 17.6225 16.9531 17.4011C17.1875 17.1667 17.3796 16.9291 17.5293 16.6882C17.679 16.4473 17.806 16.1837 17.9102 15.8972C18.0013 15.6498 18.0827 15.3569 18.1543 15.0183C18.2259 14.6798 18.2747 14.2891 18.3008 13.8464C18.3138 13.4167 18.3236 13.0229 18.3301 12.6648C18.3366 12.3067 18.3398 11.5613 18.3398 10.4285C18.3398 9.30867 18.3366 8.56974 18.3301 8.21167C18.3236 7.8536 18.3138 7.45321 18.3008 7.0105C18.2747 6.58081 18.2292 6.20321 18.1641 5.87769C18.099 5.55217 18.0143 5.25269 17.9102 4.97925C17.793 4.70581 17.6628 4.44865 17.5195 4.20776C17.3763 3.96688 17.1875 3.72274 16.9531 3.47534C16.7318 3.22795 16.4941 3.03914 16.2402 2.90894C15.9863 2.77873 15.7227 2.64852 15.4492 2.51831C15.2018 2.44019 14.9121 2.36206 14.5801 2.28394C14.248 2.20581 13.8607 2.16024 13.418 2.14722C12.9753 2.12118 12.5749 2.10815 12.2168 2.10815C11.8587 2.10815 11.1198 2.10815 10 2.10815ZM10 6.19019C9.40104 6.19019 8.8444 6.30086 8.33008 6.52222C7.81576 6.74357 7.36654 7.04631 6.98242 7.43042C6.59831 7.81453 6.29557 8.26701 6.07422 8.78784C5.85286 9.30867 5.74219 9.85555 5.74219 10.4285C5.74219 11.0144 5.85286 11.5645 6.07422 12.0789C6.29557 12.5932 6.59831 13.0457 6.98242 13.4363C7.36654 13.8269 7.81576 14.1329 8.33008 14.3542C8.8444 14.5756 9.40104 14.6863 10 14.6863C10.599 14.6863 11.1556 14.5756 11.6699 14.3542C12.1842 14.1329 12.6335 13.8302 13.0176 13.446C13.4017 13.0619 13.7044 12.6127 13.9258 12.0984C14.1471 11.5841 14.2578 11.0274 14.2578 10.4285C14.2578 9.84253 14.1471 9.28914 13.9258 8.76831C13.7044 8.24748 13.4017 7.79826 13.0176 7.42065C12.6335 7.04305 12.1842 6.74357 11.6699 6.52222C11.1556 6.30086 10.599 6.19019 10 6.19019ZM10 13.2214C9.23177 13.2214 8.57422 12.9513 8.02734 12.4109C7.48047 11.8705 7.20703 11.2097 7.20703 10.4285C7.20703 9.66024 7.48047 9.00269 8.02734 8.45581C8.57422 7.90894 9.23177 7.6355 10 7.6355C10.7682 7.6355 11.4258 7.90894 11.9727 8.45581C12.5195 9.00269 12.793 9.66024 12.793 10.4285C12.793 11.2097 12.5195 11.8705 11.9727 12.4109C11.4258 12.9513 10.7682 13.2214 10 13.2214ZM15.4492 5.97534C15.4492 6.24878 15.3516 6.48315 15.1562 6.67847C14.9609 6.87378 14.7266 6.97144 14.4531 6.97144C14.1797 6.97144 13.9453 6.87378 13.75 6.67847C13.5547 6.48315 13.457 6.24878 13.457 5.97534C13.457 5.7019 13.5547 5.46753 13.75 5.27222C13.9453 5.0769 14.1797 4.97925 14.4531 4.97925C14.7266 4.97925 14.9609 5.0769 15.1562 5.27222C15.3516 5.46753 15.4492 5.7019 15.4492 5.97534Z" fill="#AEB2BB"/>
</svg>
