<svg width="20" height="21" viewBox="0 0 20 21" fill="none" xmlns="http://www.w3.org/2000/svg">
<path d="M13.5742 10.4285C13.5742 10.3243 13.5514 10.2299 13.5059 10.1453C13.4603 10.0606 13.3919 9.99227 13.3008 9.94019L8.53516 6.9519C8.43099 6.8868 8.33008 6.85425 8.23242 6.85425C8.13477 6.85425 8.03385 6.88029 7.92969 6.93237C7.82552 6.99748 7.7474 7.07235 7.69531 7.15698C7.64323 7.24162 7.61719 7.34253 7.61719 7.45972V13.4167C7.61719 13.5339 7.64323 13.6348 7.69531 13.7195C7.7474 13.8041 7.82552 13.8725 7.92969 13.9246C7.98177 13.9506 8.0306 13.9701 8.07617 13.9832C8.12174 13.9962 8.17057 14.0027 8.22266 14.0027C8.27474 14.0027 8.32682 13.9962 8.37891 13.9832C8.43099 13.9701 8.48307 13.9441 8.53516 13.905L13.3008 10.9363C13.3919 10.8842 13.4603 10.8158 13.5059 10.7312C13.5514 10.6466 13.5742 10.5457 13.5742 10.4285ZM18.3398 10.4285C18.3398 10.7279 18.3366 10.9949 18.3301 11.2292C18.3236 11.4636 18.3203 11.6654 18.3203 11.8347C18.3203 12.004 18.3138 12.1928 18.3008 12.4011C18.2878 12.6095 18.2682 12.8438 18.2422 13.1042C18.2161 13.3516 18.1868 13.5925 18.1543 13.8269C18.1217 14.0613 18.0794 14.2761 18.0273 14.4714C17.9883 14.6928 17.9134 14.9011 17.8027 15.0964C17.6921 15.2917 17.5586 15.4675 17.4023 15.6238C17.2331 15.767 17.0508 15.8842 16.8555 15.9753C16.6602 16.0665 16.4583 16.1251 16.25 16.1511C15.5599 16.2292 14.694 16.2878 13.6523 16.3269C12.6107 16.366 11.3932 16.3855 10 16.3855C8.60677 16.3855 7.38932 16.366 6.34766 16.3269C5.30599 16.2878 4.4401 16.2292 3.75 16.1511C3.54167 16.1251 3.33984 16.0665 3.14453 15.9753C2.94922 15.8842 2.76693 15.767 2.59766 15.6238C2.42839 15.4675 2.29167 15.2917 2.1875 15.0964C2.08333 14.9011 2.00521 14.6928 1.95312 14.4714C1.91406 14.2761 1.87826 14.0613 1.8457 13.8269C1.81315 13.5925 1.78385 13.3516 1.75781 13.1042C1.73177 12.8438 1.71224 12.6095 1.69922 12.4011C1.6862 12.1928 1.67969 12.004 1.67969 11.8347C1.67969 11.6654 1.67643 11.4636 1.66992 11.2292C1.66341 10.9949 1.66016 10.7279 1.66016 10.4285C1.66016 10.129 1.66341 9.86532 1.66992 9.63745C1.67643 9.40959 1.67969 9.21102 1.67969 9.04175C1.67969 8.87248 1.6862 8.68368 1.69922 8.47534C1.71224 8.26701 1.73177 8.03263 1.75781 7.77222C1.78385 7.5118 1.81315 7.26766 1.8457 7.03979C1.87826 6.81193 1.92057 6.60034 1.97266 6.40503C2.01172 6.17065 2.08659 5.95907 2.19727 5.77026C2.30794 5.58146 2.44141 5.40894 2.59766 5.25269C2.76693 5.09644 2.94922 4.97274 3.14453 4.88159C3.33984 4.79045 3.54167 4.73185 3.75 4.70581C4.4401 4.64071 5.30599 4.58862 6.34766 4.54956C7.38932 4.5105 8.60677 4.49097 10 4.49097C11.3932 4.49097 12.6107 4.5105 13.6523 4.54956C14.694 4.58862 15.5599 4.64071 16.25 4.70581C16.4583 4.73185 16.6602 4.79045 16.8555 4.88159C17.0508 4.97274 17.2331 5.09644 17.4023 5.25269C17.5716 5.40894 17.7083 5.58146 17.8125 5.77026C17.9167 5.95907 17.9948 6.17065 18.0469 6.40503C18.0859 6.60034 18.1217 6.81193 18.1543 7.03979C18.1868 7.26766 18.2161 7.5118 18.2422 7.77222C18.2682 8.03263 18.2878 8.26701 18.3008 8.47534C18.3138 8.68368 18.3203 8.87248 18.3203 9.04175C18.3203 9.21102 18.3236 9.40959 18.3301 9.63745C18.3366 9.86532 18.3398 10.129 18.3398 10.4285Z" fill="#AEB2BB"/>
</svg>
