<svg width="30" height="30" viewBox="0 0 30 30" fill="none" xmlns="http://www.w3.org/2000/svg">
<path fill-rule="evenodd" clip-rule="evenodd" d="M11.0844 9.00001C11.5164 6.59401 13.2156 4.98001 15 4.98001C16.7844 4.98001 18.4836 6.59401 18.9156 9.00001H11.0844ZM9.50878 9.00001C9.96478 5.94001 12.132 3.42001 15 3.42001C17.868 3.42001 20.0352 5.94001 20.4912 9.00001H22.2C22.5182 9.00001 22.8235 9.12644 23.0485 9.35149C23.2735 9.57653 23.4 9.88175 23.4 10.2V22.2C23.4 22.5183 23.2735 22.8235 23.0485 23.0485C22.8235 23.2736 22.5182 23.4 22.2 23.4H7.79998C7.48172 23.4 7.17649 23.2736 6.95145 23.0485C6.7264 22.8235 6.59998 22.5183 6.59998 22.2V10.2C6.59998 9.88175 6.7264 9.57653 6.95145 9.35149C7.17649 9.12644 7.48172 9.00001 7.79998 9.00001H9.50878ZM8.15998 21.84V10.56H21.84V21.84H8.15998Z" fill="black"/>
</svg>
