<svg width="10" height="6" viewBox="0 0 10 6" fill="none" xmlns="http://www.w3.org/2000/svg">
<g clip-path="url(#clip0_1_229)">
<path d="M0.777117 0.172108C0.691772 0.0867641 0.576022 0.0388184 0.455328 0.0388184C0.334634 0.0388184 0.218883 0.0867641 0.133538 0.172108C0.0481949 0.257452 0.000249863 0.373203 0.000249863 0.493897C0.000249863 0.614591 0.0481949 0.730342 0.133538 0.815686L0.777117 0.172108ZM5.00037 5.03894L4.67858 5.36073L5.00037 5.68161L5.32216 5.36073L5.00037 5.03894ZM9.8672 0.815686C9.95254 0.730342 10.0005 0.614591 10.0005 0.493897C10.0005 0.373203 9.95254 0.257452 9.8672 0.172108C9.78186 0.0867641 9.6661 0.0388184 9.54541 0.0388184C9.42472 0.0388184 9.30896 0.0867641 9.22362 0.172108L9.8672 0.815686ZM0.133538 0.815686L4.67858 5.36073L5.32216 4.71715L0.777117 0.172108L0.133538 0.815686ZM5.32216 5.36073L9.8672 0.815686L9.22362 0.172108L4.67858 4.71715L5.32216 5.36073Z" fill="black"/>
</g>
<defs>
<clipPath id="clip0_1_229">
<rect width="10" height="5.64312" fill="white" transform="translate(0 0.0385742)"/>
</clipPath>
</defs>
</svg>
