<svg width="30" height="30" viewBox="0 0 30 30" fill="none" xmlns="http://www.w3.org/2000/svg">
<path fill-rule="evenodd" clip-rule="evenodd" d="M16.7976 18.0024C15.5832 18.9124 14.0692 19.3284 12.5604 19.1667C11.0516 19.0051 9.66008 18.2777 8.66609 17.1311C7.6721 15.9845 7.14947 14.5039 7.20345 12.9874C7.25743 11.4709 7.88402 10.0312 8.95701 8.95823C10.03 7.88524 11.4697 7.25865 12.9862 7.20467C14.5027 7.15069 15.9833 7.67332 17.1299 8.66731C18.2765 9.6613 19.0038 11.0528 19.1655 12.5616C19.3272 14.0704 18.9111 15.5845 18.0012 16.7988L16.7976 18V18.0024ZM18.042 19.3152C16.4814 20.5511 14.5074 21.1436 12.5241 20.9713C10.5409 20.799 8.69859 19.8749 7.3746 18.3883C6.0506 16.9017 5.3451 14.9651 5.40261 12.9752C5.46012 10.9854 6.27628 9.09279 7.68392 7.68514C9.09157 6.2775 10.9842 5.46134 12.974 5.40383C14.9639 5.34632 16.9005 6.05182 18.3871 7.37582C19.8736 8.69982 20.7977 10.5421 20.9701 12.5253C21.1424 14.5086 20.5499 16.4826 19.314 18.0432L23.436 22.164C23.5244 22.2464 23.5953 22.3458 23.6445 22.4562C23.6937 22.5666 23.7202 22.6857 23.7223 22.8066C23.7244 22.9274 23.7022 23.0475 23.6569 23.1595C23.6117 23.2716 23.5443 23.3734 23.4588 23.4589C23.3734 23.5443 23.2716 23.6117 23.1595 23.657C23.0474 23.7022 22.9274 23.7245 22.8066 23.7223C22.6857 23.7202 22.5666 23.6937 22.4562 23.6446C22.3458 23.5954 22.2464 23.5244 22.164 23.436L18.042 19.3152Z" fill="black"/>
</svg>
