<svg width="16" height="10" viewBox="0 0 16 10" fill="none" xmlns="http://www.w3.org/2000/svg">
<path d="M14.8162 8.80041C14.944 8.92821 15.1174 9 15.2982 9C15.479 9 15.6524 8.92821 15.7802 8.80041C15.908 8.67262 15.9799 8.49929 15.9799 8.31857C15.9799 8.13784 15.908 7.96451 15.7802 7.83672L14.8162 8.80041ZM8.48993 1.51283L8.97196 1.03099L8.48993 0.550502L8.00791 1.03099L8.48993 1.51283ZM1.19966 7.83672C1.07182 7.96451 1 8.13784 1 8.31857C1 8.49929 1.07182 8.67262 1.19966 8.80041C1.3275 8.92821 1.50089 9 1.68169 9C1.86248 9 2.03587 8.92821 2.16371 8.80041L1.19966 7.83672ZM15.7802 7.83672L8.97196 1.03099L8.00791 1.99468L14.8162 8.80041L15.7802 7.83672ZM8.00791 1.03099L1.19966 7.83672L2.16371 8.80041L8.97196 1.99468L8.00791 1.03099Z" fill="black"/>
</svg>
