<svg width="30" height="30" viewBox="0 0 30 30" fill="none" xmlns="http://www.w3.org/2000/svg">
<path d="M19.1568 6.42C18.3775 6.41448 17.6056 6.571 16.89 6.87963C16.1744 7.18825 15.5308 7.64225 15 8.2128L14.88 8.3484C14.3687 7.78843 13.7447 7.34311 13.0489 7.04176C12.3531 6.7404 11.6014 6.58984 10.8432 6.6V6.42H10.842C7.73997 6.42 5.21997 8.8896 5.21997 11.9436C5.21997 13.2588 5.81277 14.6244 6.68397 15.9252C7.55757 17.2272 8.72157 18.4812 9.89277 19.5792C11.2712 20.8628 12.7407 22.0451 14.2896 23.1168C14.5584 23.3016 14.7456 23.4216 14.8128 23.4588C14.9128 23.5224 15.029 23.5562 15.1476 23.5562C15.2662 23.5562 15.3823 23.5224 15.4824 23.4588C15.5484 23.4228 15.732 23.3016 15.9936 23.118C17.4998 22.054 18.925 20.8796 20.2572 19.6044C21.3912 18.5124 22.518 17.2584 23.3628 15.9528C24.2064 14.6484 24.78 13.2744 24.78 11.9436C24.78 8.8896 22.26 6.4212 19.1568 6.42ZM10.8444 7.734H10.8468C11.5565 7.7228 12.2575 7.89091 12.8849 8.22276C13.5123 8.55462 14.0458 9.03947 14.436 9.6324L14.442 9.6408C14.5507 9.78692 14.7124 9.88459 14.8923 9.91285C15.0722 9.94112 15.2561 9.89773 15.4044 9.792C15.4632 9.75 15.5151 9.69898 15.558 9.6408L15.5628 9.6336C16.8588 7.6884 19.5204 7.14 21.5064 8.4144C22.1004 8.79193 22.5897 9.31309 22.929 9.92972C23.2684 10.5463 23.4469 11.2386 23.448 11.9424C23.448 12.9324 23.0256 14.0184 22.3476 15.114C21.672 16.2084 20.754 17.2944 19.788 18.282C17.928 20.178 15.912 21.6852 15.1476 22.1412C14.376 21.6732 12.2868 20.1528 10.3572 18.2532C9.35397 17.2632 8.39877 16.1772 7.69677 15.0876C6.99117 13.9956 6.55197 12.918 6.55197 11.9436C6.55197 9.6216 8.47077 7.734 10.8444 7.734Z" fill="black"/>
<path d="M19.1568 6.42C18.3775 6.41448 17.6056 6.571 16.89 6.87963C16.1744 7.18825 15.5308 7.64225 15 8.2128L14.88 8.3484C14.3687 7.78843 13.7447 7.34311 13.0489 7.04176C12.3531 6.7404 11.6014 6.58984 10.8432 6.6V6.42H10.842C7.73997 6.42 5.21997 8.8896 5.21997 11.9436C5.21997 13.2588 5.81277 14.6244 6.68397 15.9252C7.55757 17.2272 8.72157 18.4812 9.89277 19.5792C11.2712 20.8628 12.7407 22.0451 14.2896 23.1168C14.5584 23.3016 14.7456 23.4216 14.8128 23.4588C14.9128 23.5224 15.029 23.5562 15.1476 23.5562C15.2662 23.5562 15.3823 23.5224 15.4824 23.4588C15.5484 23.4228 15.732 23.3016 15.9936 23.118C17.4998 22.054 18.925 20.8796 20.2572 19.6044C21.3912 18.5124 22.518 17.2584 23.3628 15.9528C24.2064 14.6484 24.78 13.2744 24.78 11.9436C24.78 8.8896 22.26 6.4212 19.1568 6.42ZM19.1568 6.42V6.6M10.8444 7.734H10.8468C11.5565 7.7228 12.2575 7.89091 12.8849 8.22276C13.5123 8.55462 14.0458 9.03947 14.436 9.6324L14.442 9.6408C14.5507 9.78692 14.7124 9.88459 14.8923 9.91285C15.0722 9.94112 15.2561 9.89773 15.4044 9.792C15.4632 9.75 15.5151 9.69898 15.558 9.6408L15.5628 9.6336C16.8588 7.6884 19.5204 7.14 21.5064 8.4144C22.1004 8.79193 22.5897 9.31309 22.929 9.92972C23.2684 10.5463 23.4469 11.2386 23.448 11.9424C23.448 12.9324 23.0256 14.0184 22.3476 15.114C21.672 16.2084 20.754 17.2944 19.788 18.282C17.928 20.178 15.912 21.6852 15.1476 22.1412C14.376 21.6732 12.2868 20.1528 10.3572 18.2532C9.35397 17.2632 8.39877 16.1772 7.69677 15.0876C6.99117 13.9956 6.55197 12.918 6.55197 11.9436C6.55197 9.6216 8.47077 7.734 10.8444 7.734Z" stroke="black" stroke-width="0.36"/>
</svg>
