<svg width="21" height="21" viewBox="0 0 21 21" fill="none" xmlns="http://www.w3.org/2000/svg">
<path d="M10.86 1.5C9.60997 1.5 8.55997 2.34 8.20997 3.47H4.65997C4.43852 3.47 4.22613 3.55797 4.06954 3.71457C3.91295 3.87116 3.82497 4.08354 3.82497 4.305C3.82497 4.52646 3.91295 4.73884 4.06954 4.89543C4.22613 5.05203 4.43852 5.14 4.65997 5.14H8.21997C8.35152 5.57235 8.58577 5.96643 8.9027 6.28859C9.21963 6.61074 9.60983 6.8514 10.04 6.99V16.5H4.64997C4.42852 16.5 4.21613 16.588 4.05954 16.7446C3.90295 16.9012 3.81497 17.1135 3.81497 17.335C3.81497 17.5565 3.90295 17.7688 4.05954 17.9254C4.21613 18.082 4.42852 18.17 4.64997 18.17H17.07C17.2914 18.17 17.5038 18.082 17.6604 17.9254C17.817 17.7688 17.905 17.5565 17.905 17.335C17.905 17.1135 17.817 16.9012 17.6604 16.7446C17.5038 16.588 17.2914 16.5 17.07 16.5H11.69V6.99C12.1201 6.8514 12.5103 6.61074 12.8272 6.28859C13.1442 5.96643 13.3784 5.57235 13.51 5.14H17.07C17.1796 5.14 17.2882 5.1184 17.3895 5.07644C17.4908 5.03448 17.5829 4.97297 17.6604 4.89543C17.7379 4.8179 17.7994 4.72585 17.8414 4.62454C17.8834 4.52323 17.905 4.41465 17.905 4.305C17.905 4.19535 17.8834 4.08677 17.8414 3.98546C17.7994 3.88415 17.7379 3.7921 17.6604 3.71457C17.5829 3.63703 17.4908 3.57552 17.3895 3.53356C17.2882 3.4916 17.1796 3.47 17.07 3.47H13.51C13.3368 2.90152 12.9861 2.40347 12.5091 2.04893C12.0322 1.69439 11.4542 1.50201 10.86 1.5Z" fill="#1D1D1F" fill-opacity="0.48"/>
<path fill-rule="evenodd" clip-rule="evenodd" d="M6.51999 6.61986C6.44501 6.50216 6.34155 6.40527 6.2192 6.33815C6.09685 6.27103 5.95955 6.23584 5.81999 6.23584C5.68044 6.23584 5.54314 6.27103 5.42078 6.33815C5.29843 6.40527 5.19498 6.50216 5.11999 6.61986L2.77999 10.2799C2.64999 10.4799 2.53999 10.6599 2.43999 10.9499C2.30581 11.3806 2.28514 11.8388 2.37999 12.2799C2.56675 13.0515 3.00541 13.7389 3.62661 14.2333C4.24781 14.7278 5.0161 15.001 5.80999 15.0099C6.60561 15.0032 7.3762 14.731 7.99943 14.2364C8.62266 13.7418 9.06281 13.0532 9.24999 12.2799C9.32042 11.9367 9.32131 11.5829 9.2526 11.2393C9.1839 10.8958 9.04699 10.5696 8.84999 10.2799L6.51999 6.61986ZM5.81999 8.61986L4.81999 10.1799H6.81999L5.81999 8.61986ZM16.61 6.61986C16.535 6.50216 16.4316 6.40527 16.3092 6.33815C16.1868 6.27103 16.0495 6.23584 15.91 6.23584C15.7704 6.23584 15.6331 6.27103 15.5108 6.33815C15.3884 6.40527 15.285 6.50216 15.21 6.61986L12.86 10.2799C12.73 10.4799 12.62 10.6599 12.52 10.9499C12.3854 11.3806 12.3647 11.8388 12.46 12.2799C12.6472 13.0532 13.0873 13.7418 13.7106 14.2364C14.3338 14.731 15.1044 15.0032 15.9 15.0099C16.6939 15.001 17.4622 14.7278 18.0834 14.2333C18.7046 13.7389 19.1432 13.0515 19.33 12.2799C19.401 11.9367 19.4022 11.5828 19.3334 11.2392C19.2647 10.8956 19.1275 10.5693 18.93 10.2799L16.6 6.61986H16.61ZM15.91 8.61986L16.91 10.1799H14.91L15.91 8.61986Z" fill="#1D1D1F" fill-opacity="0.48"/>
</svg>
