<svg width="21" height="21" viewBox="0 0 21 21" fill="none" xmlns="http://www.w3.org/2000/svg">
<path d="M14.14 13.9598C14.14 14.5798 14.06 15.1798 13.9 15.7598C14.2688 15.6767 14.6301 15.5629 14.98 15.4198H15.01L15.06 15.4398H15.09L17.49 15.7898L17.85 15.8398C17.98 15.8398 18.19 15.8398 18.41 15.7398C18.69 15.6298 18.91 15.4098 19.03 15.1398C19.13 14.9198 19.13 14.7098 19.13 14.5798L19.1 14.2198L18.8 11.7398L18.78 11.6398L18.83 11.4998C19.1602 10.6211 19.3059 9.68374 19.2581 8.74623C19.2104 7.80871 18.9702 6.89106 18.5525 6.05039C18.1347 5.20973 17.5484 4.46405 16.83 3.85977C16.1117 3.25549 15.2766 2.80554 14.3768 2.53795C13.477 2.27035 12.5318 2.19083 11.6 2.30433C10.6681 2.41784 9.76961 2.72194 8.96037 3.1977C8.15114 3.67347 7.44849 4.31071 6.89618 5.06977C6.34387 5.82883 5.95371 6.69345 5.75 7.60981C6.73122 7.32523 7.76529 7.2734 8.77005 7.45845C9.77481 7.64349 10.7226 8.06031 11.538 8.67579C12.3535 9.29127 13.0142 10.0884 13.4676 11.004C13.921 11.9195 14.1547 12.9282 14.15 13.9498L14.14 13.9598Z" fill="#1D1D1F" fill-opacity="0.48"/>
<path d="M7.64001 8.99975C6.99652 9.00758 6.36087 9.14209 5.76937 9.3956C5.17787 9.64911 4.64209 10.0167 4.19265 10.4772C3.7432 10.9378 3.38889 11.4824 3.14994 12.08C2.91099 12.6775 2.79208 13.3163 2.80001 13.9597C2.79629 14.5562 2.89785 15.1486 3.10001 15.7097L3.08001 15.8297L2.63001 17.8997C2.60155 18.03 2.60487 18.1651 2.63969 18.2938C2.67451 18.4224 2.7398 18.5408 2.83005 18.6389C2.92029 18.737 3.03283 18.8119 3.15815 18.8573C3.28347 18.9027 3.41788 18.9173 3.55001 18.8997L5.79001 18.5997L5.89001 18.5797L6.06001 18.6397C6.56001 18.8197 7.09001 18.9097 7.64001 18.9097C8.93785 18.8939 10.1764 18.3638 11.0838 17.4358C11.9912 16.5078 12.4933 15.2576 12.48 13.9597C12.4893 13.3154 12.3713 12.6756 12.133 12.0769C11.8946 11.4782 11.5405 10.9324 11.0909 10.4708C10.6414 10.0091 10.1051 9.64068 9.51299 9.38655C8.92083 9.13241 8.28435 8.99757 7.64001 8.98975V8.99975Z" fill="#1D1D1F" fill-opacity="0.48"/>
</svg>
