<svg width="20" height="21" viewBox="0 0 20 21" fill="none" xmlns="http://www.w3.org/2000/svg">
<path d="M8.60001 2.7499C8.60001 2.52447 8.51046 2.30827 8.35105 2.14886C8.19165 1.98946 7.97545 1.8999 7.75001 1.8999C7.52458 1.8999 7.30838 1.98946 7.14897 2.14886C6.98957 2.30827 6.90001 2.52447 6.90001 2.7499V3.8499C6.90001 4.07534 6.98957 4.29154 7.14897 4.45094C7.30838 4.61035 7.52458 4.6999 7.75001 4.6999C7.97545 4.6999 8.19165 4.61035 8.35105 4.45094C8.51046 4.29154 8.60001 4.07534 8.60001 3.8499V2.7499ZM4.60001 3.6499C4.44088 3.49077 4.22506 3.40137 4.00001 3.40137C3.77497 3.40137 3.55914 3.49077 3.40001 3.6499C3.24088 3.80903 3.15148 4.02486 3.15148 4.2499C3.15148 4.47495 3.24088 4.69077 3.40001 4.8499L4.20001 5.6499C4.27881 5.7287 4.37235 5.7912 4.47529 5.83384C4.57824 5.87648 4.68858 5.89843 4.80001 5.89843C4.91144 5.89843 5.02178 5.87648 5.12473 5.83384C5.22768 5.7912 5.32122 5.7287 5.40001 5.6499C5.47881 5.57111 5.54131 5.47757 5.58395 5.37462C5.62659 5.27167 5.64854 5.16133 5.64854 5.0499C5.64854 4.93847 5.62659 4.82813 5.58395 4.72518C5.54131 4.62224 5.47881 4.5287 5.40001 4.4499L4.60001 3.6499ZM12.1 4.8499C12.2591 4.70403 12.3538 4.50092 12.3632 4.28526C12.3726 4.06959 12.2959 3.85903 12.15 3.6999C12.0041 3.54077 11.801 3.44611 11.5854 3.43673C11.3697 3.42735 11.1591 3.50403 11 3.6499L10.2 4.4499C10.0409 4.59577 9.94622 4.79888 9.93684 5.01455C9.92746 5.23021 10.0041 5.44077 10.15 5.5999C10.2959 5.75903 10.499 5.8537 10.7147 5.86308C10.9303 5.87245 11.1409 5.79577 11.3 5.6499L12.1 4.8499ZM2.50001 7.2499C2.28784 7.2499 2.08436 7.33419 1.93433 7.48422C1.7843 7.63425 1.70001 7.83773 1.70001 8.0499C1.70001 8.26208 1.7843 8.46556 1.93433 8.61559C2.08436 8.76562 2.28784 8.8499 2.50001 8.8499H3.60001C3.82545 8.8499 4.04165 8.76035 4.20105 8.60094C4.36046 8.44154 4.45001 8.22534 4.45001 7.9999C4.45001 7.77447 4.36046 7.55827 4.20105 7.39886C4.04165 7.23946 3.82545 7.1499 3.60001 7.1499H2.50001V7.2499ZM5.40001 11.5499C5.47224 11.4711 5.52824 11.3789 5.56482 11.2784C5.60139 11.178 5.61783 11.0713 5.61319 10.9645C5.60854 10.8578 5.58291 10.7529 5.53776 10.6561C5.4926 10.5592 5.42881 10.4721 5.35001 10.3999C5.27122 10.3277 5.17897 10.2717 5.07854 10.2351C4.9781 10.1985 4.87144 10.1821 4.76466 10.1867C4.65787 10.1914 4.55304 10.217 4.45616 10.2622C4.35928 10.3073 4.27224 10.3711 4.20001 10.4499L3.40001 11.2499C3.30524 11.3231 3.22811 11.4167 3.17433 11.5237C3.12054 11.6307 3.09148 11.7484 3.08927 11.8682C3.08705 11.9879 3.11176 12.1067 3.16156 12.2156C3.21135 12.3245 3.28497 12.4209 3.37698 12.4975C3.46899 12.5742 3.57704 12.6292 3.69316 12.6586C3.80928 12.6879 3.9305 12.6908 4.04789 12.6671C4.16528 12.6433 4.27583 12.5935 4.37139 12.5213C4.46695 12.4491 4.54508 12.3563 4.60001 12.2499L5.40001 11.4499V11.5499ZM6.90001 7.1499C7.10001 6.9499 7.30001 6.9499 7.60001 6.9499L17.2 10.0499C17.2969 10.0986 17.3811 10.1691 17.446 10.2559C17.5109 10.3427 17.5548 10.4434 17.5742 10.55C17.5936 10.6567 17.588 10.7664 17.5577 10.8705C17.5275 10.9746 17.4735 11.0702 17.4 11.1499L15.7 12.8499L18 15.2499C18.1058 15.376 18.1638 15.5353 18.1638 15.6999C18.1638 15.8645 18.1058 16.0238 18 16.1499L15.8 18.2499C15.7348 18.3164 15.657 18.3693 15.5712 18.4053C15.4853 18.4414 15.3931 18.46 15.3 18.46C15.2069 18.46 15.1147 18.4414 15.0288 18.4053C14.943 18.3693 14.8652 18.3164 14.8 18.2499L12.6 15.9499L10.9 17.6499C10.8222 17.7053 10.7338 17.7442 10.6404 17.7642C10.547 17.7841 10.4505 17.7848 10.3568 17.766C10.2631 17.7473 10.1743 17.7096 10.0957 17.6552C10.0171 17.6009 9.95055 17.531 9.90001 17.4499L6.60001 7.8499C6.60001 7.5499 6.60001 7.3499 6.80001 7.1499H6.90001Z" fill="#1D1D1F" fill-opacity="0.72"/>
</svg>
