<svg width="21" height="21" viewBox="0 0 21 21" fill="none" xmlns="http://www.w3.org/2000/svg">
<path fill-rule="evenodd" clip-rule="evenodd" d="M17.02 2.60988C16.9464 2.46171 16.8386 2.33322 16.7055 2.23508C16.5723 2.13693 16.4177 2.07196 16.2544 2.04556C16.0911 2.01916 15.9239 2.03209 15.7666 2.08328C15.6093 2.13446 15.4665 2.22243 15.35 2.33988L13.1 4.58988C12.9 4.78988 12.8 5.04988 12.8 5.32988V7.14988L10.1 9.84988C9.90505 10.0461 9.79607 10.3118 9.797 10.5884C9.79794 10.865 9.90873 11.1299 10.105 11.3249C10.3012 11.5198 10.5669 11.6288 10.8435 11.6279C11.1201 11.6269 11.3851 11.5161 11.58 11.3199L14.28 8.61988H16.09C16.37 8.61988 16.63 8.51988 16.83 8.31988L19.08 6.06988C19.1974 5.9534 19.2854 5.81058 19.3366 5.65329C19.3878 5.496 19.4007 5.32876 19.3743 5.16547C19.3479 5.00218 19.2829 4.84754 19.1848 4.71439C19.0866 4.58124 18.9582 4.47342 18.81 4.39988L17.61 3.79988L17.02 2.60988Z" fill="#1D1D1F" fill-opacity="0.48"/>
<path d="M4.37999 10.5798C4.37999 7.0098 7.27999 4.11979 10.84 4.11979C11.1158 4.11979 11.3803 4.01022 11.5754 3.81519C11.7704 3.62015 11.88 3.35562 11.88 3.07979C11.88 2.80397 11.7704 2.53944 11.5754 2.3444C11.3803 2.14937 11.1158 2.03979 10.84 2.03979C9.15094 2.03979 7.49982 2.54066 6.09542 3.47904C4.69103 4.41743 3.59643 5.7512 2.95006 7.31168C2.30369 8.87216 2.13457 10.5893 2.46409 12.2459C2.7936 13.9025 3.60696 15.4241 4.8013 16.6185C5.99564 17.8128 7.51732 18.6262 9.17392 18.9557C10.8305 19.2852 12.5476 19.1161 14.1081 18.4697C15.6686 17.8234 17.0024 16.7288 17.9407 15.3244C18.8791 13.92 19.38 12.2688 19.38 10.5798C19.38 10.304 19.2704 10.0394 19.0754 9.8444C18.8803 9.64937 18.6158 9.53979 18.34 9.53979C18.0642 9.53979 17.7996 9.64937 17.6046 9.8444C17.4096 10.0394 17.3 10.304 17.3 10.5798C17.3 12.2931 16.6194 13.9362 15.4079 15.1477C14.1964 16.3592 12.5533 17.0398 10.84 17.0398C9.12669 17.0398 7.48357 16.3592 6.27208 15.1477C5.0606 13.9362 4.37999 12.2931 4.37999 10.5798Z" fill="#1D1D1F" fill-opacity="0.48"/>
<path d="M8.14001 10.5798C8.14001 9.8637 8.42447 9.17695 8.93082 8.6706C9.43717 8.16425 10.1239 7.87979 10.84 7.87979C11.1185 7.87979 11.3856 7.76916 11.5825 7.57225C11.7794 7.37533 11.89 7.10826 11.89 6.82979C11.89 6.55131 11.7794 6.28424 11.5825 6.08732C11.3856 5.89041 11.1185 5.77979 10.84 5.77979C9.89066 5.77979 8.96263 6.0613 8.17327 6.58873C7.38392 7.11616 6.76869 7.86582 6.40539 8.7429C6.04209 9.61999 5.94703 10.5851 6.13224 11.5162C6.31745 12.4473 6.77461 13.3026 7.4459 13.9739C8.11719 14.6452 8.97247 15.1023 9.90358 15.2876C10.8347 15.4728 11.7998 15.3777 12.6769 15.0144C13.554 14.6511 14.3036 14.0359 14.8311 13.2465C15.3585 12.4572 15.64 11.5291 15.64 10.5798C15.64 10.3013 15.5294 10.0342 15.3325 9.83732C15.1356 9.64041 14.8685 9.52979 14.59 9.52979C14.3115 9.52979 14.0445 9.64041 13.8475 9.83732C13.6506 10.0342 13.54 10.3013 13.54 10.5798C13.54 11.2959 13.2555 11.9826 12.7492 12.489C12.2429 12.9953 11.5561 13.2798 10.84 13.2798C10.1239 13.2798 9.43717 12.9953 8.93082 12.489C8.42447 11.9826 8.14001 11.2959 8.14001 10.5798Z" fill="#1D1D1F" fill-opacity="0.48"/>
</svg>
