<svg width="21" height="21" viewBox="0 0 21 21" fill="none" xmlns="http://www.w3.org/2000/svg">
<path fill-rule="evenodd" clip-rule="evenodd" d="M7.34 3.40991H15.04C15.54 3.40991 15.94 3.50991 16.24 3.70991C16.84 4.00991 17.24 4.50991 17.64 5.10991C17.84 5.40991 17.84 5.80991 17.94 6.30991V15.5099C17.94 16.0099 17.84 16.4099 17.64 16.7099C17.3452 17.3216 16.8517 17.8151 16.24 18.1099C15.94 18.3099 15.54 18.3099 15.04 18.4099H5.84C5.34 18.4099 4.94 18.3099 4.64 18.1099C4.02835 17.8151 3.53479 17.3216 3.24 16.7099C3.04 16.4099 3.04 16.0099 2.94 15.5099V6.30991C2.94 5.80991 3.04 5.40991 3.24 5.10991C3.54 4.50991 4.04 4.10991 4.64 3.70991C4.94 3.50991 5.34 3.50991 5.84 3.40991H7.34ZM14.24 7.20991C14.24 7.09829 14.218 6.98776 14.1753 6.88463C14.1326 6.7815 14.07 6.6878 13.991 6.60887C13.9121 6.52994 13.8184 6.46733 13.7153 6.42461C13.6122 6.3819 13.5016 6.35991 13.39 6.35991C13.2784 6.35991 13.1678 6.3819 13.0647 6.42461C12.9616 6.46733 12.8679 6.52994 12.789 6.60887C12.71 6.6878 12.6474 6.7815 12.6047 6.88463C12.562 6.98776 12.54 7.09829 12.54 7.20991V14.6099C12.54 14.8353 12.6296 15.0515 12.789 15.211C12.9484 15.3704 13.1646 15.4599 13.39 15.4599C13.6154 15.4599 13.8316 15.3704 13.991 15.211C14.1504 15.0515 14.24 14.8353 14.24 14.6099V7.20991ZM11.24 10.2099C11.24 10.1049 11.2193 10.0008 11.1791 9.90377C11.1389 9.8067 11.08 9.71851 11.0057 9.64423C10.9314 9.56994 10.8432 9.51101 10.7461 9.47081C10.6491 9.4306 10.5451 9.40991 10.44 9.40991C10.3349 9.40991 10.2309 9.4306 10.1339 9.47081C10.0368 9.51101 9.9486 9.56994 9.87432 9.64423C9.80003 9.71851 9.7411 9.8067 9.7009 9.90377C9.6607 10.0008 9.64 10.1049 9.64 10.2099V14.6099C9.64 14.8221 9.72429 15.0256 9.87432 15.1756C10.0243 15.3256 10.2278 15.4099 10.44 15.4099C10.6522 15.4099 10.8557 15.3256 11.0057 15.1756C11.1557 15.0256 11.24 14.8221 11.24 14.6099V10.2099ZM8.24 13.2099C8.24 12.9977 8.15572 12.7943 8.00569 12.6442C7.85566 12.4942 7.65218 12.4099 7.44 12.4099C7.22783 12.4099 7.02435 12.4942 6.87432 12.6442C6.72429 12.7943 6.64 12.9977 6.64 13.2099V14.6099C6.64 14.8353 6.72956 15.0515 6.88896 15.211C7.04837 15.3704 7.26457 15.4599 7.49 15.4599C7.71544 15.4599 7.93164 15.3704 8.09104 15.211C8.25045 15.0515 8.34 14.8353 8.34 14.6099V13.1099L8.24 13.2099Z" fill="#1D1D1F" fill-opacity="0.48"/>
</svg>
