<svg width="20" height="21" viewBox="0 0 20 21" fill="none" xmlns="http://www.w3.org/2000/svg">
<path d="M6.03999 6.53983C6.03999 5.48958 6.4572 4.48234 7.19985 3.73969C7.94249 2.99705 8.94973 2.57983 9.99999 2.57983C11.0502 2.57983 12.0575 2.99705 12.8001 3.73969C13.5428 4.48234 13.96 5.48958 13.96 6.53983C13.96 7.59009 13.5428 8.59733 12.8001 9.33998C12.0575 10.0826 11.0502 10.4998 9.99999 10.4998C8.94973 10.4998 7.94249 10.0826 7.19985 9.33998C6.4572 8.59733 6.03999 7.59009 6.03999 6.53983ZM11.78 11.0998C11.1951 10.9734 10.5984 10.9097 9.99999 10.9098C6.65999 10.9098 3.74999 12.8598 2.79999 15.6698V15.7198C2.69999 15.9898 2.59999 16.3098 2.56999 16.5998C2.52393 17.0082 2.63774 17.4184 2.88756 17.7447C3.13737 18.0709 3.50379 18.2878 3.90999 18.3498C4.20999 18.4098 4.58999 18.4098 4.93999 18.4098H10.41C10.0026 17.8459 9.7142 17.205 9.56228 16.5262C9.41035 15.8473 9.39808 15.1446 9.52623 14.4608C9.65438 13.7771 9.92026 13.1265 10.3077 12.5487C10.6952 11.9709 11.1961 11.478 11.78 11.0998Z" fill="#1D1D1F" fill-opacity="0.72"/>
<path fill-rule="evenodd" clip-rule="evenodd" d="M11.11 15.41C11.11 13.51 12.64 11.95 14.54 11.95C15.1531 11.9491 15.7553 12.1122 16.2843 12.4222C16.8133 12.7323 17.2497 13.1781 17.5485 13.7135C17.8473 14.2489 17.9976 14.8544 17.9838 15.4674C17.97 16.0804 17.7926 16.6786 17.47 17.2L18.09 17.82C18.1675 17.8974 18.2289 17.9894 18.2709 18.0906C18.3128 18.1919 18.3344 18.3004 18.3344 18.41C18.3344 18.5195 18.3128 18.628 18.2709 18.7293C18.2289 18.8305 18.1675 18.9225 18.09 19C18.0125 19.0774 17.9205 19.1389 17.8193 19.1808C17.7181 19.2228 17.6096 19.2443 17.5 19.2443C17.3904 19.2443 17.2819 19.2228 17.1807 19.1808C17.0795 19.1389 16.9875 19.0774 16.91 19L16.3 18.38C15.777 18.689 15.1814 18.854 14.574 18.8583C13.9665 18.8625 13.3687 18.7058 12.8414 18.404C12.3141 18.1023 11.8762 17.6663 11.5721 17.1404C11.2679 16.6145 11.1085 16.0175 11.11 15.41ZM14.54 13.61C13.58 13.61 12.78 14.41 12.78 15.41C12.78 16.41 13.58 17.21 14.54 17.21C15.5 17.21 16.3 16.41 16.3 15.41C16.3 14.41 15.5 13.61 14.54 13.61Z" fill="#1D1D1F" fill-opacity="0.72"/>
</svg>
