<svg width="20" height="21" viewBox="0 0 20 21" fill="none" xmlns="http://www.w3.org/2000/svg">
<path d="M13.16 2.90994C13.398 2.65524 13.6847 2.45099 14.0032 2.30934C14.3217 2.16769 14.6654 2.09152 15.0139 2.08537C15.3624 2.07921 15.7086 2.1432 16.0319 2.27352C16.3552 2.40385 16.649 2.59785 16.8958 2.84398C17.1426 3.09012 17.3374 3.38337 17.4686 3.70631C17.5998 4.02924 17.6647 4.37525 17.6595 4.72378C17.6543 5.07231 17.5791 5.41623 17.4383 5.7351C17.2975 6.05397 17.0941 6.34128 16.84 6.57994L6.32001 17.0999C6.08001 17.3399 5.87001 17.5599 5.62001 17.7099C5.3941 17.848 5.1477 17.9492 4.89001 18.0099C4.60001 18.0799 4.30001 18.0799 3.97001 18.0799H2.50001C2.27988 18.0799 2.06877 17.9925 1.91311 17.8368C1.75746 17.6812 1.67001 17.4701 1.67001 17.2499V15.7799C1.67001 15.4399 1.67001 15.1399 1.74001 14.8499C1.80001 14.5999 1.90001 14.3499 2.04001 14.1299C2.19001 13.8799 2.40001 13.6699 2.64001 13.4299L13.16 2.90994ZM18.12 16.1399C18.2685 15.9768 18.3462 15.7614 18.3359 15.541C18.3255 15.3207 18.2281 15.1135 18.065 14.9649C17.9019 14.8164 17.6865 14.7388 17.4661 14.7491C17.2458 14.7594 17.0385 14.8568 16.89 15.0199L16.05 15.9199C15.75 16.2499 15.38 16.4199 15 16.4199C14.62 16.4199 14.24 16.2499 13.95 15.9199C13.6615 15.6011 13.3098 15.3457 12.9173 15.1701C12.5248 14.9945 12.1 14.9025 11.67 14.8999C11.2393 14.9038 10.8141 14.9974 10.4215 15.1747C10.0289 15.3521 9.67763 15.6093 9.39001 15.9299C9.31582 16.01 9.25812 16.104 9.22023 16.2064C9.18234 16.3088 9.16498 16.4176 9.16916 16.5268C9.17334 16.6359 9.19897 16.7431 9.24458 16.8423C9.2902 16.9415 9.35491 17.0307 9.43501 17.1049C9.51512 17.1791 9.60906 17.2368 9.71146 17.2747C9.81386 17.3126 9.92272 17.33 10.0318 17.3258C10.1409 17.3216 10.2482 17.296 10.3474 17.2504C10.4466 17.2048 10.5358 17.14 10.61 17.0599C10.91 16.7399 11.29 16.5699 11.67 16.5699C12.05 16.5699 12.43 16.7399 12.72 17.0499C13.0076 17.3706 13.3589 17.6278 13.7515 17.8052C14.1441 17.9825 14.5693 18.0761 15 18.0799C15.4308 18.0761 15.856 17.9825 16.2485 17.8052C16.6411 17.6278 16.9924 17.3706 17.28 17.0499L18.12 16.1499V16.1399Z" fill="#1D1D1F" fill-opacity="0.72"/>
</svg>
