<svg width="21" height="21" viewBox="0 0 21 21" fill="none" xmlns="http://www.w3.org/2000/svg">
<path d="M6.82001 6.20976C6.82001 5.1595 7.23722 4.15226 7.97986 3.40961C8.72251 2.66697 9.72975 2.24976 10.78 2.24976C11.8303 2.24976 12.8375 2.66697 13.5801 3.40961C14.3228 4.15226 14.74 5.1595 14.74 6.20976C14.74 7.26001 14.3228 8.26725 13.5801 9.0099C12.8375 9.75254 11.8303 10.1698 10.78 10.1698C9.72975 10.1698 8.72251 9.75254 7.97986 9.0099C7.23722 8.26725 6.82001 7.26001 6.82001 6.20976ZM12.56 10.7698C11.9751 10.6433 11.3784 10.5796 10.78 10.5798C7.44001 10.5798 4.53001 12.5298 3.58001 15.3398V15.3898C3.48001 15.6598 3.38001 15.9798 3.35001 16.2698C3.30395 16.6781 3.41776 17.0884 3.66757 17.4146C3.91739 17.7409 4.2838 17.9577 4.69001 18.0198C4.99001 18.0798 5.37001 18.0798 5.72001 18.0798H11.19C10.7826 17.5158 10.4942 16.875 10.3423 16.1961C10.1904 15.5172 10.1781 14.8145 10.3062 14.1307C10.4344 13.447 10.7003 12.7964 11.0877 12.2186C11.4752 11.6408 11.9761 11.1479 12.56 10.7698Z" fill="#1D1D1F" fill-opacity="0.48"/>
<path fill-rule="evenodd" clip-rule="evenodd" d="M11.89 15.0799C11.89 13.1799 13.42 11.6199 15.32 11.6199C15.9331 11.619 16.5353 11.7821 17.0643 12.0922C17.5933 12.4022 18.0297 12.848 18.3285 13.3834C18.6273 13.9188 18.7776 14.5244 18.7638 15.1373C18.75 15.7503 18.5726 16.3485 18.25 16.8699L18.87 17.4899C18.9475 17.5674 19.0089 17.6593 19.0509 17.7606C19.0928 17.8618 19.1144 17.9703 19.1144 18.0799C19.1144 18.1894 19.0928 18.2979 19.0509 18.3992C19.0089 18.5004 18.9475 18.5924 18.87 18.6699C18.7925 18.7474 18.7005 18.8088 18.5993 18.8507C18.4981 18.8927 18.3896 18.9143 18.28 18.9143C18.1704 18.9143 18.0619 18.8927 17.9607 18.8507C17.8595 18.8088 17.7675 18.7474 17.69 18.6699L17.08 18.0499C16.557 18.3589 15.9614 18.524 15.354 18.5282C14.7465 18.5324 14.1487 18.3757 13.6214 18.074C13.0941 17.7722 12.6562 17.3362 12.3521 16.8103C12.0479 16.2844 11.8885 15.6874 11.89 15.0799ZM15.32 13.2799C14.36 13.2799 13.56 14.0799 13.56 15.0799C13.56 16.0799 14.36 16.8799 15.32 16.8799C16.28 16.8799 17.08 16.0799 17.08 15.0799C17.08 14.0799 16.28 13.2799 15.32 13.2799Z" fill="#1D1D1F" fill-opacity="0.48"/>
</svg>
