<svg width="21" height="21" viewBox="0 0 21 21" fill="none" xmlns="http://www.w3.org/2000/svg">
<path fill-rule="evenodd" clip-rule="evenodd" d="M7.57999 4.20981C6.87999 4.00981 6.17999 4.00981 5.57999 4.20981C4.07999 4.60981 3.27999 6.10981 2.87999 7.20981C2.69232 8.02979 2.65841 8.87747 2.77999 9.70981C2.77999 9.90981 2.77999 10.2098 2.97999 10.4098C3.27999 10.8098 3.87999 10.9098 4.17999 10.6098C4.57999 10.3098 4.67999 9.80981 4.37999 9.50981V8.90981C4.37999 8.60981 4.37999 8.10981 4.57999 7.60981C4.87999 6.60981 5.47999 5.90981 6.07999 5.70981H7.07999C7.37999 5.70981 7.67999 5.90981 7.97999 6.30981C8.27999 6.90981 8.57999 7.70981 8.77999 9.10981C6.90015 10.1085 5.39226 11.6865 4.47999 13.6098H3.17999C2.91478 13.6098 2.66042 13.7152 2.47289 13.9027C2.28535 14.0902 2.17999 14.3446 2.17999 14.6098C2.17999 15.0098 2.67999 15.4098 3.17999 15.4098H4.07999V15.9098C4.47999 17.5098 6.37999 18.1098 7.87999 17.4098C8.73045 16.9895 9.40385 16.2807 9.77999 15.4098H18.38C18.88 15.4098 19.38 15.0098 19.38 14.5098C19.38 14.0098 18.88 13.6098 18.38 13.6098H10.38L10.58 11.7098V10.3098C10.9713 10.1518 11.3721 10.0182 11.78 9.90981C11.7682 10.1787 11.7348 10.4463 11.68 10.7098C11.6283 11.2418 11.595 11.7755 11.58 12.3098L11.68 12.7098C11.78 12.9098 12.08 13.0098 12.38 13.1098L12.98 13.0098L13.18 12.8098C13.9218 12.0763 14.7247 11.4072 15.58 10.8098C15.5008 11.1405 15.434 11.4741 15.38 11.8098C15.38 12.0098 15.48 12.5098 16.08 12.8098C16.48 12.9098 16.88 12.8098 17.08 12.7098L18.08 12.2098C18.48 11.9098 18.58 11.4098 18.28 11.0098C18.1769 10.8483 18.0192 10.7293 17.8357 10.6742C17.6522 10.6191 17.455 10.6318 17.28 10.7098V10.4098C17.38 10.2098 17.38 9.90981 17.28 9.60981C17.08 9.20981 16.78 9.00981 16.28 8.90981H15.78C15.5735 8.95515 15.3724 9.02219 15.18 9.10981C14.5974 9.4395 14.0596 9.84281 13.58 10.3098V9.30981L13.28 8.70981L12.78 8.30981C12.28 8.10981 11.78 8.20981 11.38 8.30981L10.38 8.50981C10.2301 7.44316 9.85511 6.42056 9.27999 5.50981C8.77999 4.90981 8.27999 4.40981 7.57999 4.20981ZM6.87999 12.9098C7.47999 12.1098 8.17999 11.5098 8.87999 11.0098C8.85937 11.9126 8.79262 12.8138 8.67999 13.7098H6.27999L6.77999 12.9098H6.87999ZM5.77999 15.6098H7.77999C7.60588 15.7784 7.40258 15.9139 7.17999 16.0098C6.37999 16.3098 5.87999 16.0098 5.77999 15.6098Z" fill="#1D1D1F" fill-opacity="0.48"/>
</svg>
