<svg width="21" height="21" viewBox="0 0 21 21" fill="none" xmlns="http://www.w3.org/2000/svg">
<path fill-rule="evenodd" clip-rule="evenodd" d="M8.85997 1.70996C8.35997 1.70996 8.05997 2.10996 8.05997 2.60996C8.05997 3.00996 8.35997 3.40996 8.85997 3.40996H9.65997V4.30996C5.75997 4.70996 2.65997 8.10996 2.65997 12.21C2.65997 16.51 6.15997 20.11 10.46 20.11C14.76 20.11 18.26 16.51 18.26 12.11C18.26 8.10996 15.26 4.70996 11.26 4.30996V3.40996H12.16C12.56 3.40996 12.96 3.00996 12.96 2.60996C12.96 2.10996 12.56 1.70996 12.16 1.70996H8.85997ZM10.06 8.10996C10.46 8.10996 10.86 8.40996 10.86 8.80996V11.81L12.56 12.81C12.86 13.01 12.96 13.41 12.76 13.81C12.56 14.11 12.06 14.31 11.76 14.01L9.75997 12.81C9.6373 12.7391 9.53562 12.637 9.46535 12.514C9.39507 12.391 9.35871 12.2516 9.35997 12.11V8.90996C9.35997 8.50996 9.65997 8.20996 10.06 8.20996V8.10996Z" fill="#1D1D1F" fill-opacity="0.48"/>
<path d="M5.05997 3.70986C5.35997 4.00986 5.35997 4.60986 5.05997 4.90986L3.85997 6.10986C3.55997 6.50986 2.95997 6.50986 2.65997 6.10986C2.51931 5.96129 2.44092 5.76446 2.44092 5.55986C2.44092 5.35526 2.51931 5.15844 2.65997 5.00986L3.95997 3.70986C4.25997 3.40986 4.75997 3.40986 5.05997 3.70986ZM15.06 3.70986C15.46 3.40986 15.96 3.40986 16.26 3.70986L17.46 5.00986C17.76 5.30986 17.76 5.80986 17.46 6.10986C17.16 6.50986 16.66 6.50986 16.36 6.10986L15.06 4.90986C14.9748 4.83479 14.9067 4.74246 14.86 4.63901C14.8133 4.53557 14.7891 4.42336 14.7891 4.30986C14.7891 4.19636 14.8133 4.08416 14.86 3.98071C14.9067 3.87726 14.9748 3.78494 15.06 3.70986Z" fill="#1D1D1F" fill-opacity="0.48"/>
</svg>
