<svg width="21" height="21" viewBox="0 0 21 21" fill="none" xmlns="http://www.w3.org/2000/svg">
<path fill-rule="evenodd" clip-rule="evenodd" d="M8.30999 2.60986H14.51L15.71 2.90986C16.1588 3.16636 16.5387 3.52776 16.8174 3.96313C17.096 4.39851 17.265 4.89491 17.31 5.40986V11.9099C16.71 11.9099 16.01 12.1099 15.51 12.6099L13.91 14.2099C13.3985 13.87 12.7799 13.7303 12.172 13.8173C11.5642 13.9043 11.0096 14.212 10.6141 14.6817C10.2185 15.1514 10.0097 15.7503 10.0274 16.3641C10.0451 16.9779 10.288 17.5637 10.71 18.0099L12.01 19.3099H6.80999C6.3861 19.2633 5.97701 19.127 5.60999 18.9099C5.03567 18.5973 4.57918 18.1057 4.30999 17.5099C4.10999 17.2099 4.00999 16.8099 4.00999 16.3099V5.50986C4.00999 5.00986 4.00999 4.60986 4.30999 4.30986C4.60999 3.70986 5.00999 3.20986 5.60999 2.90986C5.9848 2.72759 6.39349 2.62542 6.80999 2.60986H8.30999ZM6.90999 7.20986C6.90999 6.70986 7.20999 6.30986 7.70999 6.30986H13.61C13.8354 6.30986 14.0516 6.39942 14.211 6.55882C14.3704 6.71823 14.46 6.93443 14.46 7.15986C14.46 7.3853 14.3704 7.6015 14.211 7.7609C14.0516 7.92031 13.8354 8.00986 13.61 8.00986H7.60999C7.39781 8.00986 7.19433 7.92558 7.0443 7.77555C6.89427 7.62552 6.80999 7.42204 6.80999 7.20986H6.90999ZM6.90999 10.2099C6.90999 9.70986 7.20999 9.30986 7.70999 9.30986H12.11C12.3354 9.30986 12.5516 9.39942 12.711 9.55882C12.8704 9.71823 12.96 9.93443 12.96 10.1599C12.96 10.3853 12.8704 10.6015 12.711 10.7609C12.5516 10.9203 12.3354 11.0099 12.11 11.0099H7.70999C7.60493 11.0099 7.5009 10.9892 7.40384 10.949C7.30678 10.9088 7.21859 10.8498 7.1443 10.7755C7.07001 10.7013 7.01109 10.6131 6.97088 10.516C6.93068 10.4189 6.90999 10.3149 6.90999 10.2099ZM6.90999 13.2099C6.90999 12.7099 7.20999 12.3099 7.70999 12.3099H9.20999C9.43542 12.3099 9.65162 12.3994 9.81103 12.5588C9.97043 12.7182 10.06 12.9344 10.06 13.1599C10.06 13.3853 9.97043 13.6015 9.81103 13.7609C9.65162 13.9203 9.43542 14.0099 9.20999 14.0099H7.60999C7.50493 14.0099 7.4009 13.9892 7.30384 13.949C7.20678 13.9088 7.11859 13.8498 7.0443 13.7755C6.97001 13.7013 6.91109 13.6131 6.87088 13.516C6.83068 13.419 6.80999 13.3149 6.80999 13.2099H6.90999Z" fill="#1D1D1F" fill-opacity="0.48"/>
<path d="M11.61 16.21C11.6136 16.0942 11.6423 15.9806 11.6941 15.877C11.7459 15.7734 11.8195 15.6823 11.91 15.61C11.9851 15.5248 12.0774 15.4567 12.1808 15.41C12.2843 15.3633 12.3965 15.3391 12.51 15.3391C12.6235 15.3391 12.7357 15.3633 12.8391 15.41C12.9426 15.4567 13.0349 15.5248 13.11 15.61L14.01 16.51L16.71 13.71C16.7888 13.6312 16.8823 13.5687 16.9853 13.526C17.0882 13.4834 17.1986 13.4614 17.31 13.4614C17.4214 13.4614 17.5318 13.4834 17.6347 13.526C17.7377 13.5687 17.8312 13.6312 17.91 13.71C17.9888 13.7887 18.0513 13.8823 18.0939 13.9852C18.1366 14.0882 18.1585 14.1985 18.1585 14.31C18.1585 14.4214 18.1366 14.5317 18.0939 14.6347C18.0513 14.7376 17.9888 14.8312 17.91 14.91L14.61 18.21C14.5349 18.2951 14.4426 18.3633 14.3391 18.41C14.2357 18.4567 14.1235 18.4808 14.01 18.4808C13.8965 18.4808 13.7843 18.4567 13.6808 18.41C13.5774 18.3633 13.4851 18.2951 13.41 18.21L11.91 16.71C11.7875 16.5714 11.7169 16.3947 11.71 16.21H11.61Z" fill="#1D1D1F" fill-opacity="0.48"/>
</svg>
